<svg width="117" height="87" viewBox="0 0 117 87" fill="none" xmlns="http://www.w3.org/2000/svg">
<path d="M55.6447 73.6922C8.3582 103.492 -4.02306 26.4042 13.119 24.3405C40.2032 21.0799 71.9681 18.6976 86.5832 9.24495C95.3041 3.60446 103.461 11.0107 110.413 36.9569C117.335 62.7892 93.7413 49.6839 55.6447 73.6922Z" fill="#F3F1C3" stroke="#5E8A0F" stroke-width="3"/>
<path d="M22.0727 49.9015L19.6317 42.1698L16.831 43.054L16.0901 40.7073L24.6529 38.0039L25.3938 40.3506L22.5931 41.2349L25.0341 48.9666L22.0727 49.9015ZM28.0025 48.0294L28.1102 36.9124L30.7364 36.0833L31.4949 38.4859L30.6568 38.7505L31.1175 47.046L28.0025 48.0294ZM29.437 45.3722L29.4203 43.081L34.1836 41.5772L35.4855 43.4626L29.437 45.3722ZM35.1824 45.7626L30.7965 38.7064L30.0379 36.3038L31.8259 35.7393L38.2975 44.7792L35.1824 45.7626ZM40.5717 41.035L39.8815 38.8489L42.2003 38.1168C42.6892 37.9625 43.0328 37.7209 43.2311 37.392C43.4325 37.057 43.4576 36.6497 43.3062 36.1701L43.3017 36.1562C43.1489 35.6719 42.8952 35.3552 42.5409 35.2059C42.1897 35.0505 41.7697 35.05 41.2808 35.2043L38.962 35.9364L38.2586 33.7084L41.2828 32.7536C42.0697 32.5052 42.7973 32.4419 43.4656 32.5637C44.1385 32.6841 44.7177 32.9697 45.2031 33.4207C45.6932 33.8702 46.0559 34.4674 46.2911 35.2124L46.2955 35.2264C46.5307 35.9714 46.576 36.6662 46.4313 37.311C46.2914 37.9543 45.9797 38.5161 45.4964 38.9963C45.0163 39.4705 44.3828 39.8318 43.5959 40.0802L40.5717 41.035ZM39.9598 44.2544L36.7779 34.1759L39.7392 33.2409L42.9212 43.3194L39.9598 44.2544ZM53.4955 39.9809L50.3136 29.9024L57.3958 27.6665L58.1367 30.0133L54.0159 31.3143L54.6289 33.2559L58.3586 32.0784L59.0598 34.2995L55.3301 35.477L56.4569 39.046L53.4955 39.9809ZM67.0706 36.0023C66.0416 36.3272 65.0776 36.396 64.1788 36.2087C63.2845 36.02 62.503 35.5959 61.834 34.9367C61.1682 34.2713 60.6618 33.3892 60.3149 32.2903L60.3105 32.2763C59.965 31.1821 59.8769 30.173 60.046 29.2492C60.2137 28.3206 60.6094 27.5224 61.2332 26.8544C61.8615 26.1849 62.6879 25.6885 63.7123 25.3651C64.7413 25.0402 65.703 24.9721 66.5972 25.1609C67.4914 25.3497 68.2714 25.7767 68.9372 26.4421C69.6062 27.1014 70.1134 27.9781 70.4588 29.0723L70.4632 29.0863C70.8102 30.1852 70.8998 31.1989 70.7321 32.1274C70.5676 33.0498 70.1735 33.845 69.5498 34.513C68.926 35.181 68.0997 35.6774 67.0706 36.0023ZM66.3077 33.5857C66.7128 33.4578 67.0315 33.2266 67.2638 32.8921C67.5008 32.5562 67.6371 32.1445 67.6727 31.6571C67.7068 31.165 67.6312 30.6256 67.446 30.0389L67.4416 30.0249C67.2563 29.4382 67.0092 28.9556 66.7002 28.5769C66.3912 28.1983 66.0433 27.9395 65.6563 27.8005C65.274 27.6601 64.8803 27.6538 64.4753 27.7817C64.0702 27.9096 63.7491 28.1415 63.5121 28.4775C63.2798 28.812 63.1435 29.2237 63.1033 29.7125C63.0677 30.2 63.1425 30.737 63.3278 31.3237L63.3322 31.3377C63.5174 31.9244 63.7652 32.4094 64.0757 32.7927C64.3894 33.1698 64.7373 33.4286 65.1196 33.5691C65.5066 33.7081 65.9026 33.7136 66.3077 33.5857ZM73.876 33.5465L70.6941 23.4681L75.234 22.0348C76.1187 21.7554 76.8993 21.6575 77.5759 21.7408C78.2525 21.8242 78.8207 22.0749 79.2804 22.4931C79.7433 22.905 80.0887 23.4719 80.3165 24.1936L80.3209 24.2076C80.5076 24.7989 80.5436 25.3994 80.4289 26.0092C80.3127 26.6142 80.0335 27.1248 79.5914 27.5409L82.7113 30.7571L79.4007 31.8023L76.741 28.9246C76.7224 28.9305 76.7014 28.9371 76.6781 28.9445C76.6548 28.9518 76.6316 28.9592 76.6083 28.9665L75.7702 29.2311L76.8374 32.6116L73.876 33.5465ZM75.1527 27.2755L76.389 26.8852C76.7941 26.7573 77.0786 26.5395 77.2426 26.2317C77.4112 25.9224 77.4352 25.5769 77.3147 25.1951L77.3103 25.1811C77.1927 24.8086 76.9753 24.5419 76.6582 24.3808C76.3458 24.2183 75.987 24.201 75.5819 24.3289L74.3457 24.7192L75.1527 27.2755ZM87.1045 29.3701L87.2122 18.2531L89.8383 17.424L90.5969 19.8266L89.7588 20.0912L90.2195 28.3867L87.1045 29.3701ZM88.539 26.7129L88.5223 24.4217L93.2856 22.9179L94.5875 24.8033L88.539 26.7129ZM94.2844 27.1033L89.8985 20.0471L89.1399 17.6445L90.9279 17.08L97.3995 26.1199L94.2844 27.1033ZM24.9209 66.8295L21.739 56.751L28.8212 54.515L29.5621 56.8618L25.4413 58.1628L26.0543 60.1044L29.784 58.9269L30.4852 61.148L26.7555 62.3255L27.8823 65.8945L24.9209 66.8295ZM33.833 64.0158L30.6511 53.9373L35.1909 52.504C36.0756 52.2247 36.8563 52.1267 37.5329 52.2101C38.2095 52.2935 38.7777 52.5442 39.2374 52.9623C39.7003 53.3743 40.0456 53.9411 40.2735 54.6629L40.2779 54.6768C40.4646 55.2682 40.5006 55.8687 40.3859 56.4784C40.2697 57.0834 39.9905 57.594 39.5484 58.0101L42.6683 61.2264L39.3577 62.2716L36.698 59.3939C36.6793 59.3998 36.6584 59.4064 36.6351 59.4137C36.6118 59.4211 36.5885 59.4284 36.5653 59.4358L35.7271 59.7004L36.7944 63.0808L33.833 64.0158ZM35.1097 57.7448L36.346 57.3545C36.7511 57.2266 37.0356 57.0087 37.1995 56.7009C37.3682 56.3917 37.3922 56.0461 37.2717 55.6643L37.2673 55.6504C37.1497 55.2779 36.9323 55.0111 36.6152 54.8501C36.3028 54.6876 35.944 54.6703 35.5389 54.7982L34.3027 55.1885L35.1097 57.7448ZM44.3515 60.6949L41.1696 50.6165L48.2797 48.3717L49.0206 50.7185L44.8719 52.0283L45.3879 53.6626L49.2782 52.4344L49.9485 54.5577L46.0582 55.7859L46.572 57.4132L50.7207 56.1034L51.4616 58.4502L44.3515 60.6949ZM53.6268 57.7666L50.4449 47.6881L57.555 45.4434L58.2959 47.7901L54.1472 49.0999L54.6632 50.7343L58.5535 49.5061L59.2238 51.6293L55.3335 52.8575L55.8473 54.4849L59.996 53.1751L60.7369 55.5219L53.6268 57.7666ZM67.7353 53.3124L67.0958 51.2869L69.8407 50.4203C70.3017 50.2748 70.6239 50.0629 70.8075 49.7848C70.9896 49.502 71.0211 49.172 70.902 48.7949L70.8976 48.7809C70.8212 48.5388 70.7006 48.3516 70.536 48.2192C70.3713 48.0869 70.1702 48.0095 69.9327 47.9872C69.6953 47.9649 69.4276 48.0008 69.1296 48.0949L66.3637 48.9681L65.8279 47.2709L68.461 46.4396C68.8382 46.3205 69.1075 46.1356 69.269 45.8849C69.4337 45.6281 69.469 45.3507 69.3749 45.0527L69.3705 45.0387C69.2735 44.7314 69.0923 44.5224 68.8269 44.4116C68.56 44.2961 68.238 44.2979 67.8609 44.417L65.1928 45.2594L64.5534 43.2339L68.0316 42.1358C68.7207 41.9182 69.339 41.8331 69.8865 41.8804C70.4339 41.9277 70.8953 42.0996 71.2704 42.3959C71.6488 42.686 71.9203 43.0919 72.0849 43.6134L72.0893 43.6274C72.204 43.9905 72.226 44.3523 72.1554 44.7125C72.0834 45.0681 71.9346 45.3915 71.7091 45.6829C71.4883 45.9728 71.2013 46.1991 70.8482 46.3618L70.8923 46.5015C71.3282 46.3741 71.76 46.3632 72.1877 46.4689C72.6138 46.5698 72.9899 46.7635 73.3158 47.0497C73.6402 47.3313 73.8686 47.6817 74.0009 48.1007L74.0053 48.1147C74.1905 48.7014 74.2063 49.2622 74.0526 49.7972C73.8974 50.3275 73.5927 50.7975 73.1383 51.2072C72.6839 51.6169 72.0959 51.9357 71.3742 52.1635L67.7353 53.3124ZM66.2546 53.7798L63.0727 43.7014L66.0341 42.7664L69.216 52.8449L66.2546 53.7798ZM81.3523 49.3205C80.3232 49.6454 79.3593 49.7142 78.4604 49.5269C77.5662 49.3382 76.7846 48.9141 76.1156 48.2549C75.4498 47.5895 74.9435 46.7074 74.5966 45.6085L74.5921 45.5945C74.2467 44.5003 74.1585 43.4912 74.3277 42.5674C74.4954 41.6389 74.8911 40.8406 75.5148 40.1726C76.1432 39.5031 76.9696 39.0067 77.9939 38.6833C79.023 38.3584 79.9846 38.2903 80.8788 38.4791C81.773 38.6679 82.553 39.0949 83.2188 39.7603C83.8878 40.4196 84.395 41.2963 84.7405 42.3905L84.7449 42.4045C85.0918 43.5034 85.1814 44.5171 85.0138 45.4456C84.8493 46.368 84.4551 47.1632 83.8314 47.8312C83.2077 48.4992 82.3813 48.9956 81.3523 49.3205ZM80.5893 46.9039C80.9944 46.776 81.3131 46.5448 81.5455 46.2103C81.7825 45.8744 81.9188 45.4627 81.9543 44.9753C81.9884 44.4832 81.9129 43.9438 81.7276 43.3571L81.7232 43.3431C81.538 42.7565 81.2909 42.2738 80.9819 41.8951C80.6729 41.5165 80.3249 41.2577 79.938 41.1187C79.5557 40.9783 79.162 40.972 78.7569 41.0999C78.3518 41.2278 78.0308 41.4597 77.7938 41.7957C77.5614 42.1302 77.4251 42.5419 77.3849 43.0308C77.3493 43.5182 77.4242 44.0552 77.6094 44.6419L77.6138 44.6559C77.799 45.2426 78.0469 45.7276 78.3574 46.1109C78.671 46.488 79.019 46.7469 79.4013 46.8873C79.7882 47.0263 80.1842 47.0318 80.5893 46.9039ZM87.11 47.1955L88.7952 39.8585L88.9009 42.5287L88.4665 41.1528L83.9211 37.1192L87.3714 36.0299L89.9712 38.7422L91.3471 38.3078L89.813 40.0901L90.6052 35.009L93.8878 33.9726L92.3402 39.9451L92.7746 41.321L91.3114 39.0948L97.0558 44.0555L93.7592 45.0963L91.0608 42.6071L89.6849 43.0415L91.2929 41.2743L90.239 46.2076L87.11 47.1955ZM98.2173 40.0712L95.8225 33.3618L98.8957 32.3916L100.788 39.2598L98.2173 40.0712ZM100.629 43.2345C100.126 43.3933 99.7008 43.3996 99.3526 43.2536C99.0075 43.1014 98.7659 42.8064 98.6277 42.3687C98.4881 41.9264 98.5165 41.5462 98.7131 41.2281C98.9128 40.9039 99.2642 40.6624 99.767 40.5036C100.27 40.3449 100.694 40.3416 101.039 40.4938C101.387 40.6399 101.631 40.9341 101.771 41.3764C101.909 41.8141 101.878 42.1951 101.678 42.5193C101.482 42.8373 101.132 43.0758 100.629 43.2345Z" fill="#5E8A0F"/>
</svg>
