<svg width="332" height="306" viewBox="0 0 332 306" fill="none" xmlns="http://www.w3.org/2000/svg">
<path d="M79.6333 259.067C77.7986 257.375 76.009 255.636 74.2644 253.85C73.4511 253.004 72.6483 252.148 71.8557 251.282C71.0634 250.416 70.2816 249.54 69.5103 248.655C68.7393 247.771 67.9792 246.876 67.2299 245.972C66.4806 245.069 65.7426 244.156 65.0157 243.234C64.2886 242.313 63.5729 241.382 62.8686 240.443C62.1641 239.504 61.4714 238.556 60.7904 237.6C60.1091 236.644 59.4396 235.679 58.7819 234.707C58.1241 233.734 57.4784 232.754 56.8447 231.765C56.2109 230.777 55.5891 229.781 54.9796 228.777C54.3701 227.774 53.7729 226.763 53.1881 225.745C52.6034 224.727 52.0311 223.701 51.4713 222.669C50.9112 221.637 50.364 220.598 49.8296 219.552C49.295 218.507 48.7733 217.455 48.2646 216.396C47.7558 215.338 47.2599 214.274 46.777 213.203C46.294 212.132 45.8242 211.056 45.3676 209.974C44.9109 208.892 44.4675 207.805 44.0374 206.712C43.6073 205.619 43.1905 204.521 42.7872 203.418C42.3838 202.315 41.9939 201.207 41.6176 200.094C41.2412 198.982 40.8785 197.865 40.5294 196.743C40.1803 195.622 39.8449 194.496 39.5233 193.366C39.2016 192.237 38.8938 191.103 38.5997 189.966C38.3057 188.829 38.0256 187.688 37.7594 186.544C37.4932 185.4 37.241 184.253 37.0028 183.102C36.7646 181.952 36.5404 180.799 36.3303 179.643C36.1202 178.488 35.9242 177.33 35.7423 176.169C35.5605 175.008 35.3928 173.846 35.2393 172.681C35.0857 171.517 34.9465 170.35 34.8214 169.182C34.6963 168.014 34.5855 166.845 34.4889 165.674C34.3924 164.503 34.3101 163.331 34.2422 162.159C34.1742 160.986 34.1205 159.812 34.0811 158.638C34.0418 157.464 34.0167 156.29 34.006 155.115C33.9953 153.94 33.9989 152.766 34.0168 151.591C34.0302 150.404 34.0582 149.217 34.1008 148.03C34.1434 146.844 34.2005 145.658 34.2722 144.473C34.3439 143.287 34.4301 142.103 34.5308 140.92C34.6315 139.737 34.7467 138.556 34.8764 137.375C35.0062 136.195 35.1503 135.017 35.309 133.84C35.4676 132.663 35.6407 131.489 35.8281 130.316C36.0156 129.144 36.2174 127.974 36.4336 126.807C36.6498 125.639 36.8802 124.475 37.125 123.313C37.3697 122.151 37.6287 120.992 37.9019 119.837C38.1751 118.682 38.4624 117.53 38.7638 116.382C39.0652 115.233 39.3807 114.089 39.7103 112.948C40.0398 111.808 40.3833 110.671 40.7407 109.539C41.0981 108.407 41.4693 107.28 41.8544 106.157C42.2395 105.034 42.6383 103.916 43.0508 102.803C43.4633 101.69 43.8894 100.582 44.3291 99.4792C44.7688 98.3765 45.222 97.2795 45.6886 96.1883C46.1552 95.0968 46.6351 94.0112 47.1284 92.9316C47.6217 91.852 48.1281 90.7786 48.6476 89.7115C49.1674 88.6441 49.7 87.5835 50.2456 86.5295C50.7912 85.4756 51.3496 84.4284 51.9208 83.388C52.4923 82.3477 53.0763 81.3146 53.6729 80.2889C54.2695 79.263 54.8787 78.2445 55.5005 77.2335C56.1221 76.2227 56.756 75.2196 57.4022 74.2243C58.0485 73.229 58.7069 72.2419 59.3774 71.2627C60.0479 70.2836 60.7303 69.313 61.4247 68.351C62.119 67.3887 62.825 66.435 63.5426 65.49C64.2605 64.5452 64.9897 63.6094 65.7304 62.6824C66.4711 61.7555 67.223 60.8379 67.9863 59.9296C68.7493 59.0212 69.5235 58.1223 70.3087 57.233C71.0942 56.3436 71.8903 55.4641 72.697 54.5946C73.5038 53.7249 74.3212 52.8652 75.1493 52.0155C75.9771 51.166 76.8153 50.3268 77.6639 49.4978C78.352 48.8289 79.0465 48.1667 79.7473 47.5111C80.4483 46.8558 81.1556 46.2074 81.8692 45.5658C82.5827 44.9241 83.3024 44.2895 84.0282 43.662C84.7542 43.0345 85.4862 42.4142 86.2243 41.8012C86.9622 41.1879 87.7061 40.582 88.456 39.9834C89.2057 39.3848 89.9612 38.7935 90.7225 38.2096C91.4841 37.6257 92.2511 37.0493 93.0237 36.4805C93.7962 35.9116 94.5742 35.3504 95.3577 34.7966C96.1412 34.2431 96.93 33.6972 97.724 33.1587C98.5181 32.6205 99.3174 32.0902 100.122 31.5678C100.926 31.0451 101.736 30.5304 102.55 30.0237C103.365 29.5168 104.184 29.018 105.008 28.5272C105.833 28.0365 106.662 27.5538 107.495 27.0793C108.329 26.6047 109.167 26.1384 110.01 25.6802C110.852 25.222 111.699 24.7722 112.551 24.3306C113.402 23.889 114.258 23.4558 115.118 23.0308C115.978 22.6061 116.842 22.1898 117.71 21.7819C118.578 21.3738 119.45 20.9743 120.326 20.5834C121.201 20.1925 122.081 19.8102 122.964 19.4365C123.847 19.0627 124.734 18.6977 125.624 18.3413C126.515 17.9849 127.409 17.6373 128.306 17.2984C129.203 16.9595 130.103 16.6294 131.007 16.3081C131.91 15.9868 132.817 15.6744 133.727 15.3708C134.636 15.0672 135.549 14.7726 136.464 14.4868C137.38 14.2011 138.298 13.9244 139.218 13.6566C140.139 13.3888 141.063 13.13 141.988 12.8803C142.914 12.6306 143.842 12.39 144.773 12.1584C145.703 11.9268 146.636 11.7044 147.571 11.491C148.506 11.2777 149.442 11.0735 150.381 10.8785C151.32 10.6835 152.261 10.4977 153.203 10.321C154.146 10.1444 155.09 9.97703 156.035 9.81887C156.981 9.66071 157.928 9.5118 158.877 9.37215C162.973 8.83135 167.083 8.45029 171.209 8.229C175.334 8.00768 179.462 7.94678 183.592 8.04631C186.64 8.11691 189.682 8.29425 192.718 8.57832C195.753 8.86239 198.775 9.2525 201.784 9.74865C233.673 14.6884 261.627 30.0393 283.999 53.1612C290.623 59.9593 296.449 67.7213 301.506 75.7461C317.312 100.828 324.355 127.2 323.986 156.769C323.966 157.941 323.931 159.112 323.881 160.284C323.832 161.455 323.768 162.625 323.69 163.795C323.612 164.964 323.519 166.133 323.412 167.3C323.305 168.468 323.184 169.633 323.048 170.798C322.912 171.962 322.762 173.124 322.598 174.285C322.434 175.446 322.255 176.604 322.063 177.76C321.87 178.917 321.663 180.07 321.442 181.221C321.221 182.372 320.986 183.521 320.736 184.666C320.487 185.811 320.223 186.953 319.946 188.092C319.668 189.231 319.377 190.366 319.072 191.498C318.766 192.629 318.447 193.757 318.114 194.88C317.781 196.004 317.434 197.124 317.073 198.239C316.713 199.354 316.338 200.465 315.95 201.571C315.562 202.676 315.161 203.777 314.746 204.873C314.331 205.969 313.902 207.06 313.46 208.145C313.018 209.231 312.563 210.311 312.094 211.385C311.626 212.459 311.145 213.527 310.65 214.589C310.155 215.652 309.647 216.708 309.127 217.757C308.606 218.807 308.072 219.851 307.526 220.887C306.98 221.924 306.421 222.953 305.849 223.976C305.277 224.999 304.693 226.014 304.096 227.023C303.5 228.031 302.891 229.032 302.269 230.025C301.648 231.018 301.014 232.004 300.369 232.982C299.723 233.959 299.066 234.929 298.397 235.89C297.727 236.852 297.046 237.805 296.353 238.749C295.66 239.694 294.956 240.63 294.24 241.557C293.524 242.484 292.797 243.403 292.058 244.312C291.32 245.221 290.57 246.121 289.81 247.012C289.049 247.903 288.278 248.784 287.496 249.656C286.713 250.527 285.921 251.389 285.117 252.241C284.313 253.094 283.5 253.936 282.675 254.768C281.851 255.6 281.017 256.421 280.172 257.233C279.314 258.062 278.445 258.881 277.566 259.689C276.687 260.497 275.798 261.294 274.899 262.08C274.001 262.866 273.093 263.641 272.175 264.405C271.258 265.169 270.331 265.921 269.395 266.662C268.459 267.403 267.514 268.132 266.56 268.849C265.606 269.567 264.643 270.273 263.671 270.966C262.7 271.66 261.72 272.342 260.732 273.011C259.744 273.681 258.748 274.338 257.744 274.983C256.739 275.628 255.727 276.261 254.708 276.881C253.688 277.501 252.66 278.108 251.625 278.703C250.591 279.297 249.549 279.879 248.5 280.448C247.451 281.017 246.395 281.573 245.332 282.116C244.269 282.659 243.2 283.189 242.124 283.705C241.048 284.222 239.966 284.725 238.878 285.215C237.79 285.704 236.696 286.181 235.596 286.644C234.496 287.106 233.391 287.556 232.28 287.991C231.169 288.427 230.053 288.848 228.932 289.256C227.811 289.664 226.684 290.058 225.553 290.439C224.423 290.819 223.287 291.185 222.147 291.537C221.007 291.889 219.863 292.227 218.715 292.551C217.566 292.875 216.414 293.185 215.259 293.48C214.103 293.776 212.943 294.057 211.78 294.324C210.618 294.591 209.452 294.844 208.283 295.081C207.114 295.32 205.942 295.543 204.767 295.753C203.593 295.962 202.416 296.156 201.237 296.337C200.057 296.517 198.876 296.683 197.693 296.834C196.509 296.985 195.324 297.121 194.137 297.243C192.951 297.364 191.763 297.472 190.574 297.564C189.384 297.656 188.194 297.734 187.003 297.797C185.811 297.86 184.619 297.909 183.427 297.942C182.234 297.976 181.042 297.995 179.849 297.999C178.656 298.003 177.463 297.993 176.271 297.968C175.161 297.947 174.053 297.914 172.945 297.869C171.836 297.823 170.729 297.765 169.622 297.694C168.515 297.623 167.409 297.539 166.304 297.443C165.199 297.347 164.095 297.239 162.993 297.118C161.89 296.996 160.789 296.863 159.689 296.716C158.59 296.57 157.492 296.411 156.396 296.24C155.3 296.069 154.206 295.885 153.114 295.689C152.023 295.492 150.933 295.284 149.846 295.063C148.759 294.842 147.675 294.609 146.593 294.363C145.511 294.117 144.433 293.859 143.357 293.589C142.281 293.319 141.208 293.036 140.139 292.742C139.069 292.447 138.003 292.14 136.94 291.821C135.878 291.502 134.819 291.171 133.764 290.828C132.709 290.485 131.658 290.13 130.611 289.763C129.565 289.396 128.522 289.017 127.483 288.626C126.445 288.235 125.411 287.833 124.382 287.419C123.353 287.004 122.329 286.578 121.309 286.141C120.289 285.703 119.275 285.254 118.265 284.793C117.256 284.332 116.252 283.86 115.253 283.377C114.255 282.893 113.262 282.398 112.274 281.892C111.287 281.386 110.305 280.868 109.33 280.34C108.354 279.811 107.385 279.272 106.421 278.721C105.458 278.17 104.501 277.609 103.55 277.036C102.599 276.464 101.655 275.881 100.718 275.287C99.7801 274.693 98.8496 274.088 97.9259 273.473C97.002 272.858 96.0853 272.232 95.1759 271.596C94.2664 270.96 93.3642 270.314 92.4691 269.657C91.5743 269.001 90.687 268.334 89.8073 267.657C88.9275 266.98 88.0555 266.294 87.1913 265.597C86.327 264.9 85.4708 264.194 84.6227 263.478C83.7746 262.762 82.9347 262.036 82.103 261.301C81.2712 260.566 80.448 259.821 79.6333 259.067Z" fill="#DCFBA2" stroke="#5E8A0F" stroke-width="16"/>
<path fill-rule="evenodd" clip-rule="evenodd" d="M39 153C39 230.32 101.68 293 179 293C256.32 293 319 230.32 319 153C319 75.6801 256.32 13 179 13C101.68 13 39 75.6801 39 153ZM179 3C96.1573 3 29 70.1573 29 153C29 235.843 96.1573 303 179 303C261.843 303 329 235.843 329 153C329 70.1573 261.843 3 179 3Z" fill="white"/>
<path d="M55.6442 94.6922C8.35771 124.492 -4.02355 47.4042 13.1185 45.3405C40.2027 42.0799 71.9676 39.6976 86.5827 30.245C95.3037 24.6045 103.461 32.0107 110.413 57.9569C117.335 83.7892 93.7408 70.6839 55.6442 94.6922Z" fill="#F3F1C3" stroke="#5E8A0F" stroke-width="3"/>
<path d="M22.072 70.9015L19.631 63.1698L16.8302 64.054L16.0893 61.7073L24.6522 59.0039L25.3931 61.3506L22.5924 62.2349L25.0334 69.9666L22.072 70.9015ZM28.0017 69.0294L28.1095 57.9124L30.7356 57.0833L31.4942 59.4859L30.656 59.7505L31.1168 68.046L28.0017 69.0294ZM29.4363 66.3722L29.4195 64.081L34.1829 62.5772L35.4848 64.4626L29.4363 66.3722ZM35.1817 66.7626L30.7957 59.7064L30.0372 57.3038L31.8252 56.7393L38.2968 65.7792L35.1817 66.7626ZM40.5709 62.035L39.8808 59.8489L42.1996 59.1168C42.6885 58.9625 43.0321 58.7209 43.2303 58.392C43.4318 58.057 43.4568 57.6497 43.3054 57.1701L43.301 57.1562C43.1481 56.6719 42.8945 56.3552 42.5402 56.2059C42.189 56.0505 41.769 56.05 41.2801 56.2043L38.9612 56.9364L38.2578 54.7084L41.2821 53.7536C42.069 53.5052 42.7966 53.4419 43.4648 53.5637C44.1378 53.6841 44.717 53.9697 45.2024 54.4207C45.6925 54.8702 46.0551 55.4674 46.2903 56.2124L46.2947 56.2264C46.53 56.9714 46.5752 57.6662 46.4306 58.311C46.2906 58.9543 45.979 59.5161 45.4957 59.9963C45.0156 60.4705 44.3821 60.8318 43.5952 61.0802L40.5709 62.035ZM39.959 65.2544L36.7771 55.1759L39.7385 54.2409L42.9204 64.3194L39.959 65.2544ZM53.4948 60.9809L50.3129 50.9024L57.3951 48.6665L58.136 51.0133L54.0152 52.3143L54.6282 54.2559L58.3579 53.0784L59.0591 55.2995L55.3294 56.477L56.4562 60.046L53.4948 60.9809ZM67.0699 57.0023C66.0409 57.3272 65.0769 57.396 64.178 57.2087C63.2838 57.02 62.5022 56.5959 61.8332 55.9367C61.1675 55.2713 60.6611 54.3892 60.3142 53.2903L60.3098 53.2763C59.9643 52.1821 59.8761 51.173 60.0453 50.2492C60.213 49.3206 60.6087 48.5224 61.2324 47.8544C61.8608 47.1849 62.6872 46.6885 63.7116 46.3651C64.7406 46.0402 65.7022 45.9721 66.5964 46.1609C67.4907 46.3497 68.2707 46.7767 68.9364 47.4421C69.6054 48.1014 70.1126 48.9781 70.4581 50.0723L70.4625 50.0863C70.8094 51.1852 70.8991 52.1989 70.7314 53.1274C70.5669 54.0498 70.1728 54.845 69.549 55.513C68.9253 56.181 68.0989 56.6774 67.0699 57.0023ZM66.3069 54.5857C66.712 54.4578 67.0307 54.2266 67.2631 53.8921C67.5001 53.5562 67.6364 53.1445 67.6719 52.6571C67.706 52.165 67.6305 51.6256 67.4452 51.0389L67.4408 51.0249C67.2556 50.4382 67.0085 49.9556 66.6995 49.5769C66.3905 49.1983 66.0425 48.9395 65.6556 48.8005C65.2733 48.6601 64.8796 48.6538 64.4745 48.7817C64.0694 48.9096 63.7484 49.1415 63.5114 49.4775C63.279 49.812 63.1428 50.2237 63.1025 50.7125C63.067 51.2 63.1418 51.737 63.327 52.3237L63.3314 52.3377C63.5167 52.9244 63.7645 53.4094 64.075 53.7927C64.3886 54.1698 64.7366 54.4286 65.1189 54.5691C65.5058 54.7081 65.9018 54.7136 66.3069 54.5857ZM73.8753 54.5465L70.6934 44.4681L75.2332 43.0348C76.1179 42.7554 76.8986 42.6575 77.5752 42.7408C78.2518 42.8242 78.8199 43.0749 79.2797 43.4931C79.7425 43.905 80.0879 44.4719 80.3158 45.1936L80.3202 45.2076C80.5069 45.7989 80.5429 46.3994 80.4281 47.0092C80.3119 47.6142 80.0328 48.1248 79.5907 48.5409L82.7106 51.7571L79.4 52.8023L76.7403 49.9246C76.7216 49.9305 76.7007 49.9371 76.6774 49.9445C76.6541 49.9518 76.6308 49.9592 76.6075 49.9665L75.7694 50.2311L76.8367 53.6116L73.8753 54.5465ZM75.152 48.2755L76.3882 47.8852C76.7933 47.7573 77.0779 47.5395 77.2418 47.2317C77.4105 46.9224 77.4345 46.5769 77.314 46.1951L77.3095 46.1811C77.1919 45.8086 76.9746 45.5419 76.6575 45.3808C76.345 45.2183 75.9863 45.201 75.5812 45.3289L74.3449 45.7192L75.152 48.2755ZM24.9202 87.8295L21.7383 77.751L28.8204 75.515L29.5613 77.8618L25.4406 79.1628L26.0536 81.1044L29.7832 79.9269L30.4844 82.148L26.7548 83.3255L27.8816 86.8945L24.9202 87.8295ZM33.8323 85.0158L30.6504 74.9373L35.1902 73.504C36.0749 73.2247 36.8556 73.1267 37.5322 73.2101C38.2088 73.2935 38.7769 73.5442 39.2366 73.9623C39.6995 74.3743 40.0449 74.9411 40.2728 75.6629L40.2772 75.6768C40.4639 76.2682 40.4999 76.8687 40.3851 77.4784C40.2689 78.0834 39.9898 78.594 39.5476 79.0101L42.6675 82.2264L39.3569 83.2716L36.6972 80.3939C36.6786 80.3998 36.6577 80.4064 36.6344 80.4137C36.6111 80.4211 36.5878 80.4284 36.5645 80.4358L35.7264 80.7004L36.7937 84.0808L33.8323 85.0158ZM35.109 78.7448L36.3452 78.3545C36.7503 78.2266 37.0349 78.0087 37.1988 77.7009C37.3674 77.3917 37.3915 77.0461 37.2709 76.6643L37.2665 76.6504C37.1489 76.2779 36.9316 76.0111 36.6145 75.8501C36.302 75.6876 35.9433 75.6703 35.5382 75.7982L34.3019 76.1885L35.109 78.7448ZM44.3508 81.6949L41.1689 71.6165L48.279 69.3717L49.0199 71.7185L44.8712 73.0283L45.3871 74.6626L49.2774 73.4344L49.9478 75.5577L46.0575 76.7859L46.5713 78.4132L50.72 77.1034L51.4609 79.4502L44.3508 81.6949ZM53.6261 78.7666L50.4441 68.6881L57.5543 66.4434L58.2952 68.7901L54.1464 70.0999L54.6624 71.7343L58.5527 70.5061L59.2231 72.6293L55.3328 73.8575L55.8465 75.4849L59.9953 74.1751L60.7362 76.5219L53.6261 78.7666ZM67.7346 74.3124L67.0951 72.2869L69.84 71.4203C70.3009 71.2748 70.6232 71.0629 70.8068 70.7848C70.9889 70.502 71.0204 70.172 70.9013 69.7949L70.8969 69.7809C70.8204 69.5388 70.6999 69.3516 70.5352 69.2192C70.3705 69.0869 70.1695 69.0095 69.932 68.9872C69.6946 68.9649 69.4268 69.0008 69.1288 69.0949L66.363 69.9681L65.8272 68.2709L68.4603 67.4396C68.8374 67.3205 69.1068 67.1356 69.2683 66.8849C69.433 66.6281 69.4683 66.3507 69.3742 66.0527L69.3698 66.0387C69.2728 65.7314 69.0916 65.5224 68.8262 65.4116C68.5593 65.2961 68.2373 65.2979 67.8601 65.417L65.1921 66.2594L64.5526 64.2339L68.0309 63.1358C68.72 62.9182 69.3383 62.8331 69.8858 62.8804C70.4332 62.9277 70.8945 63.0996 71.2697 63.3959C71.6481 63.686 71.9196 64.0919 72.0842 64.6134L72.0886 64.6274C72.2033 64.9905 72.2253 65.3523 72.1547 65.7125C72.0826 66.0681 71.9339 66.3915 71.7084 66.6829C71.4876 66.9728 71.2006 67.1991 70.8474 67.3618L70.8915 67.5015C71.3275 67.3741 71.7593 67.3632 72.1869 67.4689C72.6131 67.5698 72.9891 67.7635 73.315 68.0497C73.6395 68.3313 73.8678 68.6817 74.0001 69.1007L74.0046 69.1147C74.1898 69.7014 74.2056 70.2622 74.0519 70.7972C73.8967 71.3275 73.5919 71.7975 73.1376 72.2072C72.6832 72.6169 72.0951 72.9357 71.3734 73.1635L67.7346 74.3124ZM66.2539 74.7798L63.0719 64.7014L66.0333 63.7664L69.2152 73.8449L66.2539 74.7798ZM81.3515 70.3205C80.3225 70.6454 79.3585 70.7142 78.4597 70.5269C77.5655 70.3382 76.7839 69.9141 76.1149 69.2549C75.4491 68.5895 74.9428 67.7074 74.5958 66.6085L74.5914 66.5945C74.2459 65.5003 74.1578 64.4912 74.327 63.5674C74.4946 62.6389 74.8903 61.8406 75.5141 61.1726C76.1425 60.5031 76.9688 60.0067 77.9932 59.6833C79.0223 59.3584 79.9839 59.2903 80.8781 59.4791C81.7723 59.6679 82.5523 60.0949 83.2181 60.7603C83.8871 61.4196 84.3943 62.2963 84.7397 63.3905L84.7442 63.4045C85.0911 64.5034 85.1807 65.5171 85.013 66.4456C84.8485 67.368 84.4544 68.1632 83.8307 68.8312C83.207 69.4992 82.3806 69.9956 81.3515 70.3205ZM80.5886 67.9039C80.9937 67.776 81.3124 67.5448 81.5447 67.2103C81.7817 66.8744 81.918 66.4627 81.9536 65.9753C81.9877 65.4832 81.9121 64.9438 81.7269 64.3571L81.7225 64.3431C81.5373 63.7565 81.2901 63.2738 80.9811 62.8951C80.6722 62.5165 80.3242 62.2577 79.9372 62.1187C79.555 61.9783 79.1613 61.972 78.7562 62.0999C78.3511 62.2278 78.03 62.4597 77.793 62.7957C77.5607 63.1302 77.4244 63.5419 77.3842 64.0308C77.3486 64.5182 77.4234 65.0552 77.6087 65.6419L77.6131 65.6559C77.7983 66.2426 78.0462 66.7276 78.3566 67.1109C78.6703 67.488 79.0182 67.7469 79.4005 67.8873C79.7875 68.0263 80.1835 68.0318 80.5886 67.9039ZM87.1093 68.1955L88.7945 60.8585L88.9001 63.5287L88.4657 62.1528L83.9204 58.1192L87.3707 57.0299L89.9705 59.7422L91.3464 59.3078L89.8123 61.0901L90.6044 56.009L93.8871 54.9726L92.3395 60.9451L92.7739 62.321L91.3107 60.0948L97.0551 65.0555L93.7584 66.0963L91.0601 63.6071L89.6842 64.0415L91.2921 62.2743L90.2383 67.2076L87.1093 68.1955ZM98.2166 61.0712L95.8218 54.3618L98.8949 53.3916L100.787 60.2598L98.2166 61.0712ZM100.628 64.2345C100.126 64.3933 99.7001 64.3996 99.3518 64.2536C99.0068 64.1014 98.7652 63.8064 98.627 63.3687C98.4873 62.9264 98.5158 62.5462 98.7124 62.2281C98.9121 61.9039 99.2634 61.6624 99.7663 61.5036C100.269 61.3449 100.693 61.3416 101.038 61.4938C101.386 61.6399 101.63 61.9341 101.77 62.3764C101.908 62.8141 101.877 63.1951 101.678 63.5193C101.481 63.8373 101.131 64.0758 100.628 64.2345Z" fill="#5E8A0F"/>
</svg>
