<svg xmlns="http://www.w3.org/2000/svg" width="300" height="300" fill="none"><path fill="#E6F9C3" d="M294.505 150.002c0 79.808-64.697 144.505-144.505 144.505-79.808 0-144.506-64.697-144.506-144.505C5.494 70.193 70.192 5.496 150 5.496s144.505 64.697 144.505 144.506Z"/><path fill="#DCFBA2" d="M114.108 114.108h71.784-71.784Zm0 35.892h71.784-71.784Zm0 35.892H150h-35.892ZM73.73 150c0-58.324 17.946-76.27 76.27-76.27s76.27 17.946 76.27 76.27-17.946 76.27-76.27 76.27S73.73 208.324 73.73 150Z" opacity=".5"/><path fill="#7EB814" fill-rule="evenodd" d="M94.752 94.752C85.015 104.488 80.46 121.088 80.46 150s4.555 45.512 14.292 55.248c9.736 9.737 26.336 14.293 55.248 14.293s45.512-4.556 55.248-14.293c9.737-9.736 14.293-26.336 14.293-55.248s-4.556-45.512-14.293-55.248C195.512 85.015 178.912 80.46 150 80.46s-45.512 4.555-55.248 14.292Zm-9.517-9.517C99.052 71.417 120.587 67 150 67c29.413 0 50.948 4.417 64.765 18.235C228.583 99.052 233 120.587 233 150c0 29.413-4.417 50.948-18.235 64.765C200.948 228.583 179.413 233 150 233c-29.413 0-50.948-4.417-64.765-18.235C71.417 200.948 67 179.413 67 150c0-29.413 4.417-50.948 18.235-64.765Zm22.143 28.873a6.73 6.73 0 0 1 6.73-6.73h71.784a6.73 6.73 0 1 1 0 13.46h-71.784a6.73 6.73 0 0 1-6.73-6.73Zm0 35.892a6.73 6.73 0 0 1 6.73-6.73h71.784a6.73 6.73 0 1 1 0 13.46h-71.784a6.73 6.73 0 0 1-6.73-6.73Zm0 35.892a6.73 6.73 0 0 1 6.73-6.73H150a6.73 6.73 0 1 1 0 13.46h-35.892a6.73 6.73 0 0 1-6.73-6.73Z" clip-rule="evenodd"/></svg>