<svg xmlns="http://www.w3.org/2000/svg" width="300" height="300" fill="none"><path fill="#43334C" d="M294.505 150.002c0 79.808-64.697 144.505-144.505 144.505-79.808 0-144.506-64.697-144.506-144.505C5.494 70.193 70.192 5.496 150 5.496s144.505 64.697 144.505 144.506Z"/><path fill="#7E00CC" d="M211.564 220.044c11.412-6.222 18.268-14.201 18.268-22.899 0-9.22-7.703-17.631-20.371-24-14.648-7.365-35.935-12-59.629-12-23.693 0-44.98 4.635-59.628 12-12.668 6.369-20.37 14.78-20.37 24s7.702 17.631 20.37 24c14.648 7.364 35.935 12 59.628 12 24.853 0 47.058-5.1 61.732-13.101Z"/><path fill="#B133FF" fill-rule="evenodd" d="M127.833 89.144c0-12.15 9.849-22 22-22 12.15 0 21.999 9.85 21.999 22s-9.849 22-21.999 22c-12.151 0-22-9.85-22-22Z" clip-rule="evenodd"/><path fill="#BF58FF" d="m119.617 149.737-17.402-5.8a12.26 12.26 0 0 1-8.382-11.63c0-7.805 7.196-13.622 14.827-11.987l15.181 3.253c.844.181 1.266.271 1.685.358a119.987 119.987 0 0 0 48.613 0c.419-.087.841-.177 1.685-.358l15.18-3.253c7.632-1.635 14.828 4.182 14.828 11.987a12.26 12.26 0 0 1-8.382 11.63l-17.403 5.8c-2.103.701-3.154 1.052-3.945 1.54a7.998 7.998 0 0 0-3.724 7.891c.126.921.524 1.956 1.32 4.024l9.974 25.934c2.969 7.719-2.729 16.016-11.001 16.016a11.784 11.784 0 0 1-10.232-5.939l-12.607-22.061-12.606 22.061a11.785 11.785 0 0 1-10.233 5.939c-8.271 0-13.969-8.297-11-16.016l9.974-25.934c.796-2.068 1.194-3.103 1.32-4.024a7.998 7.998 0 0 0-3.724-7.891c-.791-.488-1.843-.839-3.946-1.54Z"/></svg>