<svg xmlns="http://www.w3.org/2000/svg" width="300" height="300" fill="none"><g clip-path="url(#a)"><path fill="#EA486D" d="M50.633 256.067a143.497 143.497 0 0 1-5.369-5.217 143.58 143.58 0 0 1-11.395-13.407 142.533 142.533 0 0 1-4.087-5.736 142.985 142.985 0 0 1-3.802-5.93 143.077 143.077 0 0 1-5.15-9.225 140.592 140.592 0 0 1-3.053-6.349 144.698 144.698 0 0 1-7.254-19.836 145.026 145.026 0 0 1-3.193-13.724 143.563 143.563 0 0 1-1.509-10.461 144.338 144.338 0 0 1-.804-17.591 145.232 145.232 0 0 1 3.885-31.754 145.036 145.036 0 0 1 12.344-33.308 145.758 145.758 0 0 1 5.255-9.295 145.277 145.277 0 0 1 8.042-11.744 146.003 146.003 0 0 1 6.766-8.257 145.222 145.222 0 0 1 7.355-7.735 150.224 150.224 0 0 1 4.205-3.932 147.026 147.026 0 0 1 18.253-13.998 145.897 145.897 0 0 1 7.373-4.489 147.913 147.913 0 0 1 10.215-5.297 145.784 145.784 0 0 1 7.915-3.44 146.664 146.664 0 0 1 13.593-4.685 148.738 148.738 0 0 1 8.353-2.166 147.19 147.19 0 0 1 11.306-2.119 159.38 159.38 0 0 1 24.715-1.326 130.324 130.324 0 0 1 18.192 1.703c31.889 4.94 59.843 20.29 82.215 43.412 6.624 6.798 12.45 14.56 17.507 22.585 15.806 25.082 22.849 51.454 22.48 81.023a142.06 142.06 0 0 1-1.388 17.516 144.92 144.92 0 0 1-1.156 6.936 143.918 143.918 0 0 1-3.328 13.659 140.172 140.172 0 0 1-2.164 6.691 144.74 144.74 0 0 1-2.49 6.574 139.512 139.512 0 0 1-1.366 3.24 139.344 139.344 0 0 1-2.967 6.372 143.898 143.898 0 0 1-5.031 9.266 145.517 145.517 0 0 1-5.699 8.867 141.11 141.11 0 0 1-4.157 5.667 140.973 140.973 0 0 1-4.43 5.455c-.761.891-1.532 1.772-2.314 2.644a145.28 145.28 0 0 1-4.821 5.112c-.824.832-1.658 1.653-2.503 2.465a143.995 143.995 0 0 1-7.997 7.172 143.28 143.28 0 0 1-8.504 6.561 143.958 143.958 0 0 1-12.046 7.737 146.544 146.544 0 0 1-6.293 3.413 142.575 142.575 0 0 1-6.454 3.099 146.468 146.468 0 0 1-13.325 5.224 143.651 143.651 0 0 1-6.838 2.112 144.407 144.407 0 0 1-10.432 2.53 144.253 144.253 0 0 1-21.28 2.716 142.443 142.443 0 0 1-7.154.202c-1.193.004-2.386-.006-3.578-.031a147.228 147.228 0 0 1-13.278-.85 146.66 146.66 0 0 1-26.053-5.297 147.672 147.672 0 0 1-6.329-2.058 146.764 146.764 0 0 1-21.281-9.423 147.12 147.12 0 0 1-11.404-6.867 144.806 144.806 0 0 1-5.457-3.816 142.894 142.894 0 0 1-5.278-4.06 148.047 148.047 0 0 1-5.088-4.296c-.832-.735-1.655-1.48-2.47-2.234Z"/><path fill="#F8EEEE" d="m210.473 94.223.265.223c1.047 1.103 2.126 2.188 3.094 3.362-1.522.787-2.743 1.838-3.838 3.16l-.833.751-2.872-3.143c1.58-1.3 3.224-2.503 4.184-4.353Z"/><path fill="#62020B" d="M102.224 258.003c-.253-.435-.567-.845-.557-1.367.783-.441 19.718-.266 22.004-.302-.011.541.024 1.133-.09 1.659-7.119.088-14.238.092-21.357.01ZM138.632 263.489c-.13-.489-.163-.742-.066-1.255.352-.437.576-.429 1.126-.479 1.959-.183 20.653-.107 21.749.247.239.264.325.283.382.648l-.203.033-.028.241c-2.488 1.24-13.931-.308-17.551.541-1.779.108-3.623.019-5.409.024ZM219.912 117.336c1.298-.738 2.642-1.404 3.965-2.096 1.099 2.094 3.842 6.235 3.693 8.517-1.246.47-2.538.897-3.735 1.481-1.239-2.032-1.851-4.637-3.395-6.913-.23-.339-.392-.603-.528-.989ZM229.851 153.466c.064.594-.007.966.408 1.409 1.344.423 2.905.004 4.32-.001.114 3.063.136 6.232-.212 9.281-1.434-.123-2.916-.382-4.351-.318-.193.179-.264.26-.39.503-.025-.27-.029-.152.003-.403.448-3.432-.088-7.013.222-10.471Z"/><path fill="#FEFEFE" d="M204.636 88.946c2.05 1.629 3.971 3.44 5.837 5.276-.96 1.85-2.604 3.053-4.184 4.353-.772-.797-1.582-1.555-2.384-2.322-.978-.858-1.94-1.75-3.022-2.478 1.253-1.607 2.52-3.206 3.753-4.829ZM65.576 141.381c1.762.399 3.564.58 5.332.953a116.8 116.8 0 0 0-1.209 10.075c-.008.02-.012.044-.026.061-.541.662-4.197 1.128-5.248 1.344-.017-4.219.398-8.282 1.151-12.433ZM97.738 87.893c1.325 1.453 2.541 3.041 3.822 4.539-2.633 2.009-5.874 4.369-7.931 6.95l-4.31-4.138c2.656-2.561 5.376-5.257 8.42-7.351Z"/><path fill="#62020B" d="M123.748 275.967c2.418.478 4.85.868 7.296 1.169 2.446.302 4.899.516 7.36.64.01.864-.038 1.773.077 2.629l.017 1.138c-4.92-.115-9.841-.16-14.762-.134l.012-5.442Z"/><path fill="#FEFEFE" d="M76.342 111.789c1.924-3.35 4.33-6.47 6.612-9.582 1.6 1.206 3.108 2.604 4.637 3.904-1.95 2.378-4.854 6.253-6.203 8.919a33.61 33.61 0 0 0-5.046-3.241ZM71.614 120.315c1.649.839 3.29 1.69 4.982 2.441l.288.317c-.301 1.44-1.14 2.934-1.712 4.293a87.359 87.359 0 0 0-2.284 6.04c-1.808-.717-3.7-1.239-5.577-1.738 1.035-3.846 2.642-7.735 4.302-11.353Z"/><path fill="#E1CFCF" d="M227.57 123.757c.703-.265 1.403-.534 2.12-.762 1.334 3.653 2.584 7.23 3.496 11.014-1.521.359-3.069.676-4.561 1.14-.533.092-.848.217-1.363.032-1.425-3.08-1.972-6.605-3.341-9.749l-.086-.194c1.197-.584 2.489-1.011 3.735-1.481Z"/><path fill="#F8EEEE" d="M105.46 82.315c3.354-2.002 6.655-3.887 10.165-5.597 1.018 1.87 1.99 3.768 2.979 5.654a47.087 47.087 0 0 0-9.929 5.15l-3.215-5.207ZM124.516 73.449a158.536 158.536 0 0 1 11.476-2.867c.315 2.075.881 4.09 1.403 6.12-3.009.154-8.412 1.42-11.024 2.798-.362-2.062-1.147-4.086-1.855-6.051Z"/><path fill="#FEFEFE" d="M166.534 70.987c3.86.974 7.719 1.914 11.485 3.22-.528 1.705-1.024 4.244-1.829 5.765-3.464-1.318-7.389-2.58-11.107-2.918a151.945 151.945 0 0 0 1.451-6.067ZM186.911 77.59c3.477 1.795 7.116 3.71 10.246 6.07-1.159 1.676-2.15 3.41-3.222 5.137-2.744-1.965-6.73-4.708-9.927-5.718a82.304 82.304 0 0 0 2.903-5.49Z"/><path fill="#E1CFCF" d="m231.359 143.747 4.092-.653c.174 2.132 1.215 10.154.643 11.723-.505.023-1.01.055-1.515.057-1.415.005-2.976.424-4.32.001-.415-.444-.344-.816-.408-1.41.271-2.92-.33-6.377-.582-9.307l2.09-.411ZM219.729 104.594c2.243 3.019 4.202 6.304 6.013 9.598l-1.865 1.048c-1.323.692-2.667 1.358-3.965 2.096-.251-1.719-4.521-7.716-5.737-9.454 1.967-.779 3.695-2.28 5.554-3.288ZM229.626 164.34c.126-.243.197-.323.39-.503 1.435-.064 2.917.195 4.351.318.546.061 1.091.118 1.639.157-.434 4.088-1.056 8.083-1.943 12.098-2.063-.578-4.157-1.043-6.215-1.622.771-2.186 1.896-8.172 1.778-10.448Z"/><path fill="#FEFEFE" d="M144.834 69.602c4.252-.245 8.286-.145 12.525.185-.114 2.075-.307 4.142-.438 6.216-2.876-.877-8.562-.495-11.629-.182-.547-1.79-.285-4.321-.458-6.219Z"/><path fill="#62020B" d="M54.267 252.589c3.256-2.844 6.254-6.15 9.3-9.227a817.5 817.5 0 0 1 .148 10.679c.006 2.082-.09 4.203.013 6.28a105.267 105.267 0 0 1-9.461-7.732ZM161.499 275.834c2.486-.823 5.049-1.41 7.556-2.173 2.488-.758 4.935-1.706 7.444-2.38-.015 2.583-.204 5.319.055 7.883-2.44.278-4.869.95-7.267 1.469a72.83 72.83 0 0 1-7.793 1.244l.005-6.043ZM214.223 248.404c.081 4.417-.052 8.836.045 13.251-4.842 2.765-10.797 6.823-16.046 8.512l-.023-9.978.058-.233c5.612-3.687 10.544-7.747 15.966-11.552Z"/><path fill="#E1CFCF" d="M123.612 258.16c.441 1.496.193 15.212.136 17.807l-.012 5.442c.008 2.027-.082 4.108.044 6.128-2.088.425-18.448-4.856-21.573-5.889l-.024-12.881c2.236.51 4.69 1.915 6.926 2.68 4.786 1.638 9.637 2.946 14.528 4.217.035-2.343-.016-4.693-.028-7.037-.042-3.487-.002-6.979.003-10.467Z"/><path fill="#908D8D" d="M138.558 278.038c8.23.248 14.894-.454 22.941-2.204l-.005 6.043c.015 1.248.324 6.821-.142 7.699-3.358.008-6.72.329-10.082.356-4.274.034-8.549-.26-12.814-.507l.041-7.882-.016-1.138c.077-.78.059-1.583.077-2.367Z"/><path fill="#F8EEEE" d="m123.581 257.993.031.167c-.005 3.488-.045 6.98-.003 10.467.012 2.344.064 4.694.028 7.037-4.891-1.271-9.742-2.579-14.528-4.217-2.236-.765-4.69-2.17-6.926-2.68l-.001-3.91-.004-5.74.046-1.114c7.119.082 14.238.078 21.357-.01Z"/><path fill="#FEFEFE" d="m123.581 257.993.031.167c-.005 3.488-.045 6.98-.003 10.467-4.374-.673-12.792-4.766-16.872-6.931-1.476-.784-2.96-2.127-4.559-2.579l.046-1.114c7.119.082 14.238.078 21.357-.01Z"/><path fill="#AFA7A7" d="M144.041 263.466c5.818.092 11.64-.069 17.456.03-.022 4.113-.022 8.225.002 12.338-8.047 1.75-14.711 2.452-22.941 2.204.08-4.841-.127-9.714.074-14.549 1.786-.005 3.63.084 5.409-.023ZM176.681 271.211c5.592-1.837 16.879-7.41 21.518-11.022l.023 9.978.016 11.504c-5.771 1.802-11.463 3.735-17.381 5.032-1.349.295-2.909.734-4.277.769l.04-7.172c.062-3.028.044-6.061.061-9.089Z"/><path fill="#E1CFCF" d="m214.389 214.248 21.631.007-.031 12.153c-2.776 1.899-4.716 5.331-6.982 7.806-4.423 4.829-9.288 9.706-14.494 13.69.001-3.038.314-16.59-.169-18.308l-.017-9.648c-.002-1.888-.088-3.817.062-5.7ZM176.694 240.902l21.571.095-.008 18.959-.058.233c-4.639 3.612-15.926 9.185-21.518 11.022l.013-30.309Z"/><path fill="#AFA7A7" d="m85.652 248.227-.006-30.474c.001-3.746-.356-10.261.154-13.757.135 7.223.011 14.468 0 21.693l.04 48.837c-7.04-3.817-14.393-7.95-20.57-13.082l-.045-4.505c.116-2.457.022-4.969.025-7.432.006-4.122.057-8.293-.191-12.409l.09-1.084c.183 1.848.103 3.753.11 5.611.772-.553 1.488-1.166 2.212-1.778a222.381 222.381 0 0 1-.2-9.013c5.911 6.819 11.14 11.948 18.381 17.393ZM214.513 247.904c5.206-3.984 10.071-8.861 14.494-13.69 2.266-2.475 4.206-5.906 6.982-7.806.01 3.806-.048 7.627.039 11.431-.011 7.63-.132 15.295.062 22.922-7.018 5.011-13.98 9.723-21.657 13.678l-.029-5.648c.047-13.065-.193-26.132-.06-39.195.483 1.718.17 15.27.169 18.308Z"/><path fill="#E1CFCF" d="M75.028 146.431c3.325 4.633 6.765 9.23 9.933 13.969l16.814 24.094c2.944 4.233 5.731 8.795 8.985 12.782-3.603.066-7.243.142-10.845.006-4.592-.445-9.458-.072-14.078-.067l-.037 6.781c-.51 3.496-.153 10.011-.154 13.757l.006 30.474c-7.242-5.445-12.47-10.574-18.38-17.393.005 3.006.072 6.01.2 9.013-.725.612-1.441 1.226-2.212 1.778-.008-1.857.072-3.763-.11-5.611l-.088-11.55.053-27.112-17.782.029-7.472.008 4.654-6.751 26.105-37.732c1.405-2.164 2.77-4.476 4.408-6.475Z"/><path fill="#89102C" d="M84.96 160.4c.28-3.431-.084-7.132.226-10.791a65.042 65.042 0 0 1 1.575-9.707 64.431 64.431 0 0 1 2.136-7.062 65.051 65.051 0 0 1 2.924-6.772 65.759 65.759 0 0 1 2.37-4.311 64.562 64.562 0 0 1 6.745-9.258 66.057 66.057 0 0 1 6.987-6.854 66.032 66.032 0 0 1 27.428-13.835 68.109 68.109 0 0 1 3.192-.672 67.998 67.998 0 0 1 3.222-.514 64.063 64.063 0 0 1 3.242-.355c12.016-1.03 25.265 1.737 35.939 7.356 4.579 2.411 8.755 5.437 12.705 8.768 13.633 12.856 21.392 28.363 21.95 47.276a70.774 70.774 0 0 1 .015 3.322 70.767 70.767 0 0 1-.053 1.66 70.525 70.525 0 0 1-.231 3.313 65.107 65.107 0 0 1-.394 3.299 69.96 69.96 0 0 1-.896 4.9 70.117 70.117 0 0 1-.797 3.224c-.147.534-.3 1.066-.459 1.596-.159.53-.325 1.058-.498 1.584a65.938 65.938 0 0 1-1.726 4.672 70.738 70.738 0 0 1-.651 1.528 70.715 70.715 0 0 1-1.416 3.003 68.527 68.527 0 0 1-1.563 2.93 66.1 66.1 0 0 1-4.521 6.954 70.739 70.739 0 0 1-2.044 2.616 68.188 68.188 0 0 1-3.301 3.725c-11.209 11.858-27.746 19.417-44.061 19.837a63.68 63.68 0 0 1-3.271.011 68.42 68.42 0 0 1-4.898-.287 63.657 63.657 0 0 1-1.627-.177 63.04 63.04 0 0 1-3.237-.472 67.862 67.862 0 0 1-3.21-.632 62.294 62.294 0 0 1-1.592-.375 65.625 65.625 0 0 1-4.715-1.36 65.645 65.645 0 0 1-7.594-3.029 66.54 66.54 0 0 1-8.537-4.834 68.539 68.539 0 0 1-3.977-2.878 65.8 65.8 0 0 1-4.953-4.28c-2.015-1.932-3.772-4.035-5.479-6.238 3.602.137 7.242.061 10.845-.005-3.254-3.987-6.041-8.549-8.985-12.782L84.961 160.4Z"/><path fill="#E1CFCF" d="M166.209 113.948c5.216 2.937 9.081 8.817 10.687 14.483 1.044 3.684 1.187 7.448 1.178 11.25-3.907-.03-7.815-.039-11.722-.026-.13-5.005-.794-10.557-4.649-14.174-.915-.86-1.975-1.546-3.099-2.098l-.045-.085c1.605-1.457 2.935-3.617 4.301-5.33 1.089-1.366 2.295-2.626 3.349-4.02Z"/><path fill="#F8EEEE" d="M143.904 100.964c4.286-1.033 8.283-1.12 12.628-.384l-.024 9.344c3.508.808 6.617 2.177 9.701 4.024-1.054 1.394-2.26 2.654-3.349 4.02-1.366 1.713-2.696 3.873-4.301 5.33-5.239-2.062-11.288-2.258-16.502.026-2.941 1.288-4.984 3.379-6.12 6.393-1.316 3.49-1.399 7.826.158 11.256.749 1.649 1.877 3.02 3.236 4.201-1.957 2.474-6.377 6.873-8.821 9.017a28.355 28.355 0 0 1-2.486-2.873 27.997 27.997 0 0 1-2.076-3.182 28.093 28.093 0 0 1-2.78-7.057 25.65 25.65 0 0 1-.616-3.795 26.126 26.126 0 0 1-.08-1.281 26.097 26.097 0 0 1 .841-7.622 26.27 26.27 0 0 1 1.251-3.635 25.515 25.515 0 0 1 1.126-2.303c.206-.375.422-.744.646-1.108 4.132-6.654 10.157-10.137 17.61-11.909l-.042-8.462Z"/><path fill="#E1CFCF" d="m139.331 145.174.057-.007c10.015 7.929 22.746 1.922 32.686 15.561a26.308 26.308 0 0 1 3.287 6.019 26.39 26.39 0 0 1 1.63 6.663c.841 7.435-.849 14.384-5.541 20.258-3.912 4.897-9.301 7.857-15.459 8.816l.024 10.661c-3.788.018-7.579.069-11.366.038l.027-10.267c-6.528-.45-12.495-3.904-16.748-8.809-2.995-3.454-4.87-7.415-5.511-11.951 4.028-.008 8.055.043 12.082.152 1.489 3.453 3.593 5.58 7.099 6.974 4.849 1.928 11.52 1.887 16.308-.219 3.136-1.38 5.423-3.776 6.668-6.975 1.23-3.16 1.332-7.021-.039-10.154-1.602-3.663-5.02-6.077-8.655-7.457-3.199-1.215-6.45-1.659-9.783-2.297a30.794 30.794 0 0 1-4.287-1.133 31.595 31.595 0 0 1-2.072-.794 31.563 31.563 0 0 1-2.988-1.464 31.527 31.527 0 0 1-2.814-1.778 30.2 30.2 0 0 1-2.608-2.069c-.277-.246-.55-.496-.818-.751 2.444-2.144 6.864-6.543 8.821-9.017Z"/><path fill="#89102C" fill-rule="evenodd" d="M10 150c0 77.32 62.68 140 140 140s140-62.68 140-140S227.32 10 150 10 10 72.68 10 150ZM150 0C67.157 0 0 67.157 0 150s67.157 150 150 150 150-67.157 150-150S232.843 0 150 0Z" clip-rule="evenodd"/></g><defs><clipPath id="a"><path fill="#fff" d="M0 0h300v300H0z"/></clipPath></defs></svg>