<svg xmlns="http://www.w3.org/2000/svg" width="300" height="300" fill="none"><path fill="#DFD95D" d="M213.756 282 30.019 234.365l-4.434-9.037L30.02 27.874 292.005 79.07l4.546 8.986L213.756 282Z"/><path fill="#E8E48C" d="M209.252 272.994 25.516 225.359V18.869l266.531 60.18-82.795 193.945Z"/><path fill="#040104" d="M178.462 31.183c.604-1.359 1.244-2.017 2.664-2.556 2.04-.774 4.585-.966 6.735-1.362 8.144-1.497 9.151-2.473 16.992 1.244 21.988 10.423 36.948 36.623 44.741 58.688.912 2.583 5.624 16.464 4.805 18.271-.932 2.056-14.406 7.37-16.821 8.4a667.452 667.452 0 0 1 16.318 5.307c2.763.92 5.972 1.654 8.525 3.055.843.462 1.43 1.022 1.865 1.89.332.66.435 1.28.489 2.008.207 2.811-.083 17.967-.792 19.827-.389 1.023-1.621 1.52-2.559 1.897-1.304 7.143-2.141 14.395-3.24 21.574a1238.575 1238.575 0 0 0-2.896 19.826c-.521 3.704-1.129 7.425-1.51 11.145.846.723 1.545 1.502 1.61 2.672.028.508-.043 1.041-.091 1.547-.532 2.954.087 7.39-.967 10.066-.266.675-.642 1.235-1.288 1.589-2.547 1.396-6.375 2.485-9.216 3.525a1262.746 1262.746 0 0 0-19.392 7.198 6773.5 6773.5 0 0 0-96.278 38.824c-2.394-1.577-4.918-2.958-7.385-4.415l-11.297-6.756-43.477-26.285a819.043 819.043 0 0 0-10.364-6.171c-1.956-1.166-4.539-2.353-6.117-3.964-.53-2.324-.751-4.78-1.056-7.147-.348-2.707-.767-5.434-.93-8.159.5-.792 1.02-1.321 1.77-1.87-2.351-10.427-4.083-21.021-6.003-31.535a765.172 765.172 0 0 0-1.799-9.521c-.28-1.45-.726-3.015-.856-4.48-.055-.625.15-.975.443-1.501l-.056-.275c-.584-.381-1.25-.751-1.76-1.227-.707-2.738-1.079-5.6-1.603-8.38-.68-3.612-1.562-7.353-1.895-11.009-.058-.636-.18-1.697.124-2.26 1.021-1.89 3.76-2.848 5.722-3.342.36-.089.721-.173 1.084-.251-1.659-.791-5.666-2.289-6.311-4.008-.73-1.945-.557-5.882-.644-8.064-.646-16.184 1.33-33.332 8.45-48.062 3.098-6.41 7.77-13.479 14.776-15.946 3.233-1.138 6.93-1.384 10.307-1.96 2.337-.4 5.037-1.193 7.391-1.116 1.132.037 2.024.379 3.024.867l.438.217 59.491-11.009 25.76-4.688c4.362-.783 8.696-1.661 13.079-2.318Z"/><path fill="#AE095C" d="M132.435 129.644c.243-.005.116-.028.374.105-.132.659-.628 1.318-.969 1.896-.185-.05-.144-.004-.25-.189-.201-.35-.214-.954-.065-1.339.148-.384.562-.383.91-.473Z"/><path fill="#D05D0A" d="M174.389 143.52c.468.116.94-.11 1.335-.348.37-.223.605-.457 1.06-.443.369.296.352.567.442 1.023-.823.129-1.601.396-2.403.614-.835.227-1.834.484-2.611.035.064-.101.121-.196.198-.289.459-.553 1.327-.532 1.979-.592Z"/><path fill="#E49326" d="m122.277 149.038.415.086c.518.519.838 1.92 1.204 2.645a46.695 46.695 0 0 0 2.071 3.751c.44.711.969 1.366 1.348 2.111l-.593-.081c-.919-.766-1.567-1.936-2.163-2.959-.669-1.147-2.632-4.217-2.282-5.553Z"/><path fill="#AE095C" d="M204.369 193.96c2.422-.537 4.456-1.463 6.644-2.596-1.111 1.639-4.743 3.879-6.632 4.789.041-.722-.005-1.469-.012-2.193Z"/><path fill="#FCE83C" d="M204.812 126.425c1.363-.276 2.505-.158 3.799.349 1.09.622 2.094 1.284 2.74 2.403-.186.219-.461.441-.745.51-.683.165-1.513-.387-2.104-.681l-.048-.132c-1.652-.809-2.795-1.041-4.579-.52l-.127-.067c-.001-.354.898-1.345 1.064-1.862Z"/><path fill="#F5B62F" d="M208.502 129.006c.591.294 1.421.846 2.104.681.284-.069.559-.291.745-.51.73 1.143.912 2.36 1.065 3.68-1.343.372-2.717.841-4.088 1.085.586-1.803.929-3.116.174-4.936Z"/><path fill="#A83D0F" d="M172.491 138.756c2.002.578 3.834.78 5.914.762-.98 1.454-1.158 2.498-1.179 4.234-.09-.456-.073-.727-.442-1.023-.455-.014-.69.22-1.06.443-.395.238-.867.464-1.335.348-.576-.046-1.136-.092-1.715-.06.061-1.592.091-3.13-.183-4.704Z"/><path fill="#F5B62F" d="M192.146 111.432c1.118.295 2.527.718 3.656.327.693 1.707 1.241 3.485 1.451 5.322-.364.611-2.291 1.23-3.033 1.398-.026.006-.053.006-.079.01-.107-2.465-.976-4.839-1.995-7.057Z"/><path fill="#E49326" d="M202.041 127.773c.354.54.47.595 1.06.876-.43.508-.711.915-.682 1.604.035.835.577 1.46 1.185 1.979.92.783 2.199 1.269 2.896 2.265l-1.22.675c-2.078-1.155-3.474-1.352-5.8-1.134.123-2.476.678-4.527 2.561-6.265Z"/><path fill="#81096A" d="M59.32 53.67c.545.033 1.158.008 1.657.247.333 2.13.317 4.414.396 6.57.104 2.658.23 5.314.381 7.97-.587.071-1.28-.283-1.823-.486-.074-4.773-.518-9.528-.611-14.302Z"/><path fill="#33DAEB" d="M232.889 106.682c.429.684.975 4.979 1.175 6.11-2.423-.8-4.851-1.584-7.283-2.353l-3.916-1.187c3.303-.958 6.69-1.718 10.024-2.57Z"/><path fill="#FAD73F" d="M204.812 126.425c-.166.517-1.065 1.508-1.064 1.862l.127.067c1.783-.521 2.927-.289 4.579.52l.048.132c.755 1.82.412 3.133-.174 4.936l-1.828.555c-.697-.996-1.976-1.482-2.896-2.265-.608-.519-1.15-1.143-1.185-1.979-.029-.689.252-1.096.682-1.604-.59-.281-.706-.335-1.06-.876.875-.612 1.739-1.063 2.771-1.348Z"/><path fill="#6D063F" d="M67.157 75.794c2.062 1.299 5.289 5.44 7.089 7.352l-4.232.553c-2.114.25-4.21.61-6.309.96.924-3.042 2.172-5.96 3.452-8.865Z"/><path fill="url(#a)" d="M192.669 133.618c3.686-4.764 5.666-7.284 5.899-13.515l.635.042c-.004 2.246.178 6.037 1.567 7.839a8.483 8.483 0 0 0-.2.259c-1.267 1.703-2.097 3.763-1.789 5.905-2.023.414-4.141 1.354-6.164 1.589-.296-.46-.021-1.591.052-2.119Z"/><path fill="#81096A" d="M43.237 154.627c3.452 1.825 7.005 3.421 10.487 5.179.246 1.741.51 3.479.794 5.213-2.744-1.038-7.891-4.78-10.22-5.236-.384-1.71-.767-3.428-1.06-5.156Z"/><path fill="#FCE83C" d="M136.098 128.87c.37-.457.744-.912 1.159-1.33 3.678-3.708 8.885-5.683 14.078-5.682 5.573.001 10.852 2.016 14.79 5.985-.321.245-.38.362-.804.263-1.696-.395-3.892-1.748-5.522-2.511-5.215-2.44-11.237-2.685-16.468-.117-.999.49-2.016 1.035-2.931 1.67-.778.539-1.602 1.412-2.467 1.763-.418.169-1.156.211-1.583.069-.087-.029-.168-.073-.252-.11Z"/><path fill="#F5B62F" d="M156.581 121.501c-.41-5.156.668-9.802 3.95-13.88.913.871 1.727 1.166 2.994 1.135.342-.008.63-.081.956-.175l-.114.139c-3.426 4.325-4.27 8.91-3.626 14.304a29.412 29.412 0 0 0-4.16-1.523Z"/><path fill="#6D063F" d="M104.246 184.962c2.529 1.147 5.131 2.368 7.473 3.864.133 2.616.503 5.215.63 7.828-2.013-.352-5.201-2.477-7.329-3.29-.21-2.808-.546-5.598-.774-8.402Z"/><path fill="#AE095C" d="M216.569 161.845c2.952-1.066 6.024-1.886 9.004-2.886-.328 3.038-.366 6.153-.552 9.207-1.677.565-3.416 1.343-5.137 1.717-.324-3.116-1.677-5.452-3.315-8.038Z"/><path fill="#FE81EA" d="M251.328 201.749c.433.277.818.6 1.213.928-1.725.869-3.782 1.432-5.611 2.071l-11.402 3.931c-10.89 3.741-21.731 7.664-32.667 11.261-.735.242-1.708.645-2.474.598l-.157-.207c1.708-.823 3.593-1.429 5.356-2.138a375.945 375.945 0 0 1 16.606-6.247 1121.118 1121.118 0 0 1 19.43-6.767c3.24-1.127 6.439-2.389 9.706-3.43Z"/><path fill="#BD24A2" d="M112.001 188.938c3.808 1.874 7.555 3.938 11.445 5.63.097 2.144.28 4.27.48 6.405-1.062-.254-2.141-.851-3.135-1.308-2.611-1.203-5.326-2.692-8.055-3.573-.49-2.277-.526-4.828-.735-7.154Z"/><path fill="#6D063F" d="M55.014 160.556c2.306.938 4.537 2.137 6.781 3.218 2.18 1.051 4.479 2.02 6.563 3.25.034 2.133.506 4.306.82 6.415-4.308-2.657-8.887-4.961-13.272-7.506a59.097 59.097 0 0 1-.892-5.377Z"/><path fill="#A96A12" d="M130.99 146.191c.024 0 .05-.005.074 0 .451.083.422.345.569.735 1.175 3.122 2.461 5.629 4.591 8.224-2.536.795-5.152 1.371-7.703 2.131l-.191-.018c-1.766-1.602-3.837-6.17-4.891-8.453l7.551-2.619Z"/><path fill="#81096A" d="M245.857 152.65c4.204-1.21 8.33-2.713 12.52-3.975-.38 2.379-.688 4.769-1.077 7.147-1.27.159-2.639.818-3.833 1.286-2.775 1.089-5.605 2.401-8.491 3.149.234-2.536.591-5.075.881-7.607Z"/><path fill="#FAD73F" d="M161.444 121.271c-.193-4.638.577-8.064 3.468-11.765 1.363 1.025 3.414 1.901 5.13 1.99 1.56-.404 3.57-.169 5.182-.149-.325 1.371-.15 3.672-.937 4.735a5.13 5.13 0 0 1-1.025.338c-1.071.367-2.909.769-3.684 1.566-.574.807-6.872 2.935-8.134 3.285Z"/><path fill="#FCE83C" d="M170.042 111.496c1.56-.403 3.57-.168 5.182-.149-.325 1.371-.15 3.672-.937 4.735a5.13 5.13 0 0 1-1.025.338c-.224-.147-.205-.213-.302-.47-.616-1.633-1.623-3.272-2.918-4.454Z"/><path fill="#FAD73F" d="M197.599 113.786c.32-.195.646-.367.984-.529 3.134-1.502 7.393-1.377 10.617-.236 4.493.814 8.795 3.921 11.362 7.637 1.889 2.733 2.908 5.574 3.766 8.755l-3.042.936c-.854-4.887-2.788-9.152-6.936-12.101-3.201-2.275-7.162-3.425-11.071-2.75-1.796.31-3.32 1.066-4.916 1.913-.114-.629-.207-1.27-.356-1.891l-.408-1.734Z"/><path fill="#FCE83C" d="M197.599 113.786c.32-.195.646-.367.984-.529 3.134-1.502 7.393-1.377 10.617-.236-.759.351-1.771-.712-2.371.104.389.509.775.57 1.383.667l.073.164c-1.431.232-2.886-.368-4.375-.112l-.291.048c-1.912.329-3.707 1.338-5.612 1.628l-.408-1.734Z"/><path fill="#BD24A2" d="M123.763 194.492c1.834-.83 3.842-1.41 5.753-2.047 2.679-.892 5.354-1.8 8.023-2.724.125 2.512.459 5.011.624 7.522-3.136.946-6.224 2.045-9.36 2.995-1.11.336-3.601.765-4.5 1.285-.382-2.039-.373-4.884-.54-7.031Z"/><path fill="#6D063F" d="m69.17 167.367 10.828 5.375c2.114 1.059 4.297 2.068 6.327 3.283.279 2.397.36 4.809.613 7.208-1.48-.669-2.919-1.56-4.344-2.344l-7.993-4.406c-1.257-.691-2.816-1.799-4.194-2.138-.532-2.3-.74-4.668-1.236-6.978ZM87.24 176.312a505.541 505.541 0 0 0 15.869 7.994c.021 2.721.251 5.439.439 8.153-.05-.113-.08-.203-.172-.297-.334-.343-14.2-7.791-15.106-7.931-.588-2.53-.668-5.329-1.03-7.919Z"/><path fill="#E49326" d="M197.253 117.082c.52 5.314-.752 10.317-4.17 14.499-3.358 4.109-8.805 6.581-14.042 7.084-2.306.221-4.341-.081-6.547-.738-.335-1.232-.629-2.497-1.077-3.693 5.178 1.438 10.22 1.45 14.999-1.259 3.582-2.03 6.1-5.39 7.184-9.352a16.487 16.487 0 0 0 .476-2.545 16.432 16.432 0 0 0 .065-2.589c.026-.004.053-.004.079-.01.742-.168 2.669-.787 3.033-1.397Z"/><path fill="#F354AF" d="M213.601 109.307c3.32.793 6.533 2.058 9.786 3.089 5.817 1.844 11.681 3.575 17.527 5.323-.086.018-.171.041-.258.055-1.483.243-4.312-1.969-5.45-.821l-.019.228c-.112 1.22-.327 1.753-1.095 2.714.089.341-.005.229.311.41 1.334.765 4.428.651 5.329 1.626-3.566-.49-7.255-1.821-10.69-2.887-3.691-1.145-7.424-2.206-11.035-3.586-4.729-1.806-5.32-3.315-11.024-3.884 2.039-1.078 4.414-1.624 6.618-2.267Z"/><path fill="#F6A1E8" d="M128.175 247.492c3.519-1.031 7.014-2.464 10.466-3.707a1500.414 1500.414 0 0 0 28.933-11.032c4.031-1.551 8.037-3.204 12.124-4.601-1.102 1.128-5.282 2.844-6.91 3.617a1007.882 1007.882 0 0 1-24.497 11.183c-2.348 1.049-4.765 1.935-7.096 3.021-1.663.774-11.72 6.044-12.553 6.108-.18.015-.138.007-.274-.106a148.864 148.864 0 0 1-.193-4.483Z"/><path fill="#AE095C" d="M218.457 116.275c1.98.349 4.255 1.396 6.228 2.012 5.154 1.608 10.331 3.21 15.611 4.36 1.122.244 2.344.459 3.381.966-1.25.651-2.796 1.02-4.137 1.474-2.725.901-5.47 1.738-8.234 2.512-1.941.547-3.946 1.015-5.833 1.725-1.283-5.157-3.145-9.341-7.016-13.049Z"/><path fill="#FCE83C" d="M160.531 107.621c3.434-4.517 8.126-7.402 13.78-8.18a20.179 20.179 0 0 1 3.95-.186 20.169 20.169 0 0 1 3.91.592 20.076 20.076 0 0 1 7.099 3.399c2.968 2.264 5.054 5.107 6.532 8.513-1.129.391-2.538-.032-3.656-.327a15.99 15.99 0 0 0-2.783-3.589 17.4 17.4 0 0 0-3.398-2.623 17.807 17.807 0 0 0-1.523-.802 17.239 17.239 0 0 0-1.594-.648 19.516 19.516 0 0 0-.819-.264 18.551 18.551 0 0 0-1.673-.405 17.466 17.466 0 0 0-3.424-.307c-5.025.081-9.021 2.23-12.451 5.788-.326.093-.614.166-.956.174-1.267.031-2.081-.264-2.994-1.135Z"/><path fill="#6D063F" d="M156.892 183.267c.138 2.623.583 5.228.688 7.849-3.904 1.17-7.783 2.629-11.631 3.98-1.682.591-3.585 1.457-5.343 1.741-.373-2.596-.606-5.218-.943-7.821 5.81-1.698 11.441-3.975 17.229-5.749ZM226.501 158.775c6.066-1.72 12.114-3.774 18.106-5.739-.499 2.859-.555 5.804-1.087 8.646-.112-.04-.218-.111-.337-.119-.857-.061-14.773 5.36-17.164 6.087l.482-8.875Z"/><path fill="#AE095C" d="M158.871 182.742c2.234-.955 4.701-1.641 7.009-2.415a788.126 788.126 0 0 1 14.549-4.727c.336 2.429.58 4.868.73 7.315-2.791.878-20.66 6.914-21.408 7.506-.081.065-.104.179-.155.269-.277-.928-.631-6.649-.725-7.948Z"/><path fill="#FE81EA" d="M80.155 148.168c.137-.046.267-.13.41-.138.931-.05 5.534 1.358 6.778 1.667 3.337.828 21.234 4.969 23.424 4.003 4.57 1.524 8.939 3.583 13.466 5.219-1.099 2.01-2.179 3.765-2.399 6.097-1.56-.831-3.297-1.407-4.94-2.059a474.316 474.316 0 0 1-6.693-2.743l-30.046-12.046Z"/><path fill="#BD24A2" d="M131.639 135.083c.407 3.145.859 6.501.79 9.674-2.264 1.468-13.358 4.71-16.396 5.534-.262-3.018-.727-5.975-1.238-8.959 3.882-2.194 7.572-4.323 11.967-5.413 1.559-.386 3.186-.468 4.756-.808l.121-.028Z"/><path fill="#FCE83C" d="M164.912 109.507c2.481-2.984 5.481-5.039 9.329-5.795 4.962-.976 9.113.402 13.224 3.134 1.584 1.315 2.906 2.663 3.984 4.427-1.821.947-5.895 1.725-7.171 2.72-1.993.457-4 .838-6.022 1.144-.84-1.395-1.674-2.802-2.708-4.065l-.324.275c-1.612-.019-3.622-.254-5.182.149-1.716-.089-3.767-.965-5.13-1.989Z"/><path fill="#FAD73F" d="M187.465 106.845c1.584 1.316 2.906 2.664 3.984 4.428-1.821.947-5.895 1.725-7.171 2.72-1.993.457-4 .838-6.022 1.144-.84-1.395-1.674-2.802-2.708-4.065 1.613-1.693 9.676-2.001 11.917-4.227Z"/><path fill="#81096A" d="M56.703 131.668c.628.182 36-8.979 39.41-10.149l1.442 4.195c-6.339 2.008-12.77 3.74-19.136 5.668-2.495.755-11.387 3.923-13.182 3.937-1.203.01-8.474-2.433-9.702-3.075-.2-.105-.23-.14-.38-.267.54-.181.974-.329 1.548-.309Z"/><path fill="#FAD73F" d="M198.487 118.401c1.083-.773 2.373-1.356 3.655-1.707 3.858-1.056 7.644-.238 11.05 1.683 4.241 2.781 6.146 6.347 7.165 11.233l.2.977a545.06 545.06 0 0 1-7.523 2.121c-.143-2.106-.621-3.932-2.286-5.379-.714-.619-1.527-1.082-2.397-1.442-1.892-.566-3.55-.448-5.314.505-.821.444-1.544 1.007-2.267 1.592-1.389-1.802-1.571-5.593-1.567-7.839l-.635-.043-.081-1.701Z"/><path fill="#FCE83C" d="M198.487 118.401c1.083-.773 2.373-1.356 3.655-1.707 3.858-1.056 7.644-.238 11.05 1.683-.03.042-.059.084-.09.124-.886 1.186-2.573 1.477-3.326 2.738-.68 1.139-.354 3.167-1.354 3.996-.31-.023-.625-.045-.932-.1-1.738-.315-3.613-2.884-4.511-4.238-1.312-.07-2.516-.405-3.776-.752l-.635-.043-.081-1.701Z"/><path fill="#F5B62F" d="M136.098 128.87c.084.037.165.081.252.11.427.142 1.165.1 1.583-.069.865-.351 1.689-1.224 2.467-1.763.915-.635 1.932-1.18 2.931-1.67 5.231-2.568 11.253-2.323 16.468.117 1.63.763 3.826 2.116 5.522 2.511.424.099.483-.018.804-.263 3.423 3.168 5.555 8.307 5.731 12.937.056 1.478-.019 2.991-.334 4.439l-3.728 1.058c1.155-4.609.875-8.494-1.6-12.653a17.058 17.058 0 0 0-10.565-7.796 15.622 15.622 0 0 0-1.554-.294 15.873 15.873 0 0 0-1.575-.14 16.076 16.076 0 0 0-3.154.186 15.644 15.644 0 0 0-2.308.544 16.46 16.46 0 0 0-1.483.548 15.565 15.565 0 0 0-1.423.691 16.669 16.669 0 0 0-1.345.828 16.174 16.174 0 0 0-6.351 8.774c-.074.252-.142.506-.203.762a15.776 15.776 0 0 0-.282 1.551 15.93 15.93 0 0 0-.101 3.148 15.769 15.769 0 0 0 .517 3.106 15.24 15.24 0 0 0 .485 1.5 15.966 15.966 0 0 0 1.398 2.822c.928 1.477 2.135 2.85 3.575 3.845-1.517.331-3.009.735-4.507 1.144-2.295-2.811-4.193-5.628-5.284-9.131.672-.739.796-1.092.752-2.092-.184-4.226-.796-7.595 1.156-11.545.514-1.039 1.242-2.229 2.02-3.08.042-.045.091-.083.136-.125Z"/><path fill="#6D063F" d="m91.343 110.917.077.007c.594.329 2.178 4.593 2.53 5.42-11.428 2.478-22.703 5.726-34.13 8.244l-2.403.61a105.99 105.99 0 0 1 .16-7.131c5.06-.773 10.125-2.125 15.134-3.202 6.198-1.334 12.465-2.483 18.632-3.948ZM74.577 84.006l.185-.014c1.626.923 7.37 9.842 8.656 11.921-5.373 1.245-10.842 2.174-16.256 3.23-2.488.566-5.012.944-7.476 1.617.375-4.79 2.318-11.008 3.834-15.61 3.648-.075 7.423-.739 11.057-1.144Z"/><path fill="#FAD73F" d="M136.837 144.567c-.523-2.572-.403-5.422.361-7.933 1.131-3.715 3.626-6.879 7.072-8.7a16.14 16.14 0 0 1 2.921-1.22 16.937 16.937 0 0 1 1.538-.385c.259-.052.519-.097.781-.135a14.785 14.785 0 0 1 1.577-.152c.264-.013.528-.018.792-.017a14.963 14.963 0 0 1 1.583.084 15.923 15.923 0 0 1 3.101.637c4.503 1.434 7.696 4.534 9.832 8.675-1.501.641-5.307 1.153-6.996 1.235-1.992.102-4.229.895-6.091 1.602-1.267-1.936-2.638-3.846-4.32-5.449-.069 2.277-.044 4.547.36 6.797l-.136.057c-1.557.644-3.84 1.011-5.185 1.883.157.327.374.405.669.601-.177.144-.343.283-.559.37-1.095.439-2.519.503-3.687.813-1.24.329-2.392.896-3.613 1.237Z"/><path fill="#AE095C" d="M158.202 108.438c.11.247.101.115-.029.41-.343.778-.797 1.502-1.144 2.283-1.488 3.353-1.914 6.403-1.788 10.035a19.561 19.561 0 0 0-1.845-.325c-5.365-.733-11.684 1.51-15.988 4.64-1.226.891-2.188 2.079-3.401 2.977-.067.05-.136.096-.203.145-.741.536-1.659.723-2.529.964l-.474-2.012c-.889-3.848-1.924-7.631-3.031-11.42 6.008-1.261 11.963-2.935 17.906-4.476 4.161-1.078 8.405-2.004 12.526-3.221Z"/><path fill="#F354AF" d="M82.996 51.687c2.094-.658 4.396-.962 6.555-1.377a823.314 823.314 0 0 1 11.344-2.13l27.499-5.08a3041.458 3041.458 0 0 1 39.083-7.144 900.631 900.631 0 0 0 10.535-2c1.791-.343 3.622-.784 5.436-.968 1.884-.191 3.778.463 5.522 1.101-1.713 1.23-11.792 3.02-14.421 3.559-4.097.839-8.171 1.792-12.278 2.58-5.379 1-10.767 1.948-16.164 2.846l-41.516 7.186-11.395 1.879c-2.242.37-4.883.654-7.023 1.421a50.016 50.016 0 0 0-3.177-1.873Z"/><path fill="#F6A1E8" d="M239.732 121.932c-.901-.975-3.995-.862-5.329-1.627-.316-.181-.222-.069-.311-.41.768-.961.983-1.494 1.095-2.714l.019-.228c1.138-1.147 3.967 1.064 5.45.821.087-.014.172-.037.258-.055l13.832 4.571c2.188.725 4.687 1.322 6.743 2.353l-41.339 12.118c-3.564 1.045-7.165 1.983-10.715 3.075-.355-.704-.7-1.419-1.196-2.037-.508-.632-1.525-1.176-1.839-1.889.326-.436.996-.602 1.502-.756 3.088-.942 6.264-1.649 9.377-2.516a566.432 566.432 0 0 0 18.16-5.512c3.84-1.2 7.849-2.3 11.607-3.724-2.387-.423-5.019-.71-7.314-1.47Z"/><path fill="#F5B62F" d="M148.988 132.809c1.682 1.603 3.053 3.513 4.32 5.449 1.862-.707 4.099-1.5 6.091-1.602 1.689-.082 5.495-.594 6.996-1.235 1.598 3.563 1.761 7.352.599 11.079-8.058 2.444-16.187 4.611-24.267 6.967-2.938-2.541-4.926-5.061-5.89-8.9 1.221-.341 2.373-.908 3.613-1.237 1.168-.31 2.592-.374 3.687-.813.216-.087.382-.226.559-.37-.295-.196-.512-.274-.669-.601 1.345-.872 3.627-1.239 5.185-1.883l.136-.057c-.404-2.25-.429-4.52-.36-6.797Z"/><path fill="#040104" d="M148.988 132.809c1.682 1.603 3.053 3.513 4.32 5.449 1.862-.707 4.099-1.5 6.091-1.602-1.132 1.574-2.246 3.171-3.43 4.707.876 1.057 2.234 2.365 2.54 3.718-.067.205-.044.33-.258.43-.976.459-3.644-.478-4.652-.824-.93 1.71-1.805 3.127-3.206 4.503-.226-1.772-.224-3.583-.479-5.342-1.718-.548-3.477-1.263-5.218-1.701-.295-.196-.512-.274-.669-.601 1.345-.872 3.627-1.239 5.185-1.883l.136-.057c-.404-2.25-.429-4.52-.36-6.797Z"/><path fill="#E49326" d="M151.357 141.225c.05 1.207.764 1.795 1.612 2.572.079.072.159.144.24.215-.47 1.51-1.492 2.924-2.463 4.149-.007-1.452-.116-2.901-.21-4.35.577-.836.716-1.602.821-2.586Z"/><path fill="#D05D0A" d="M150.086 139.639c.164.718.817 1.057 1.271 1.586-.105.983-.244 1.75-.821 2.586-1.067-.998-4.235-1.486-5.726-2.166.737-.233 4.706-1.28 5.088-1.678.087-.091.125-.219.188-.328Z"/><path fill="#F5B62F" d="M149.692 134.315c1.244 1.42 2.31 2.981 3.404 4.517 1.726-.528 3.46-1.029 5.201-1.505-.947 1.362-1.949 2.674-2.961 3.988 1.076 1.227 2.109 2.443 2.937 3.856-1.764-.175-3.377-.635-5.064-1.159a16.644 16.644 0 0 1-.24-.215c-.848-.777-1.562-1.365-1.612-2.572-.454-.529-1.107-.868-1.271-1.586a34.748 34.748 0 0 1-.394-5.324Z"/><path fill="#E600C8" d="M115.971 117.447c2.063.113 4.131.037 6.193.151 1.14.063 4.05.608 4.927.286 1.897 5.345 3.553 11.609 4.548 17.199l-.122.028c-1.569.34-3.196.422-4.755.808-4.395 1.09-8.085 3.219-11.967 5.413a236.487 236.487 0 0 0-5.058-22.254c2.865.042 3.733-.546 6.234-1.631Z"/><path fill="url(#b)" d="M181.347 143.593c.462-.071.861-.075 1.299.097 1.77.693 2.666 2.714 3.405 4.325-4.423 1.437-9.021 2.486-13.493 3.786A3058.746 3058.746 0 0 1 126.2 164.7a48.244 48.244 0 0 1-3.871.841c.108-2.548.866-4.288 2.224-6.407 4.327-.851 8.685-2.295 12.939-3.479l31.434-8.71c4.116-1.104 8.246-2.515 12.421-3.352Z"/><path fill="#E600C8" d="M44.298 159.783c2.328.456 7.476 4.198 10.22 5.236 1.013 4.86 1.73 9.796 2.58 14.687 1.69 9.732 3.44 19.555 5.61 29.189-3.404-2.094-6.91-4.018-10.37-6.017-.075-1.375-.427-2.778-.687-4.13l-1.399-7.314a965.42 965.42 0 0 0-3.934-21.268c-.658-3.463-1.408-6.911-2.02-10.383Z"/><path fill="#6D063F" d="m83.276 96.725.517-.057c.847.444 6.415 11.399 7.183 12.829-9.023 2.071-18.081 3.946-27.07 6.176-2.104.36-4.235 1.002-6.314 1.512.232-2.252.35-4.517.596-6.769.334-3.049.818-6.092 1.276-9.125 7.989-1.265 15.861-3.128 23.812-4.566Z"/><path fill="#E600C8" d="M112.736 196.092c2.729.882 5.443 2.37 8.055 3.573.994.458 2.073 1.054 3.135 1.308.331 1.969.382 4.066.533 6.062.32 4.197.615 8.395.884 12.595.644 8.929 1.578 17.84 2.279 26.766-3.845-2.061-7.836-4.046-11.391-6.585a2987.949 2987.949 0 0 0-3.495-43.719Z"/><path fill="#F5B62F" d="M191.449 111.272c2.089 3.861 2.703 8.304 1.448 12.544a15.466 15.466 0 0 1-.481 1.391 15.001 15.001 0 0 1-.974 1.981 14.823 14.823 0 0 1-2.77 3.422 15.014 15.014 0 0 1-1.134.939 14.12 14.12 0 0 1-1.221.822c-.21.127-.423.249-.64.365-4.511 2.424-9.707 2.116-14.481.707-2.26-4.196-5.035-7.857-9.415-10.029-.119-.714-.232-1.428-.337-2.143 1.262-.35 7.56-2.478 8.134-3.285.775-.797 2.613-1.199 3.684-1.566a5.13 5.13 0 0 0 1.025-.338c.787-1.063.612-3.364.937-4.735l.324-.275c1.034 1.262 1.868 2.67 2.708 4.065a81.483 81.483 0 0 0 6.022-1.144c1.276-.995 5.35-1.773 7.171-2.721Z"/><path fill="#040104" d="M175.548 111.072c1.034 1.262 1.868 2.67 2.708 4.065a81.483 81.483 0 0 0 6.022-1.144c.181.12.439.197.465.433.114 1.028-2.451 4.139-3.114 5.039 1.132 1.699 2.165 3.453 2.914 5.358-2.295-.123-3.916-.573-5.848-1.824a149.395 149.395 0 0 1-4.638 3.959c.369-2.112.867-4.277 1.073-6.408-1.848-.845-3.743-1.641-5.552-2.564.775-.797 2.613-1.199 3.684-1.566a5.13 5.13 0 0 0 1.025-.338c.787-1.063.612-3.364.937-4.735l.324-.275Z"/><path fill="#D05D0A" d="M170.672 117.983c1.539-.531 3.103-.964 4.67-1.403.491 1.002 3.361 5.187 3.394 5.604-1.226 1.28-2.587 2.423-3.955 3.546.337-1.804.645-3.613.778-5.444-1.613-.806-3.306-1.426-4.887-2.303Z"/><path fill="url(#c)" d="M175.765 112.116c.566.758.996 1.617 1.584 2.357.57.719.817.923 1.717 1.024l1.467-.26a63.22 63.22 0 0 0 4.029-.937c-1.116 1.695-2.376 3.302-3.472 5.003 1.166 1.606 2.308 3.297 2.95 5.191-1.97-.255-3.821-.943-5.304-2.31-.033-.417-2.903-4.602-3.394-5.604-.061-1.471.229-3.007.423-4.464Z"/><path fill="#F5B62F" d="m179.066 115.497 1.467-.26c.007.62-.551 2.004-.874 2.538l-.289.115c-.293-.674-.306-1.659-.304-2.393Z"/><path fill="#E600C8" d="M244.976 160.257c2.886-.748 5.716-2.06 8.491-3.149 1.194-.468 2.563-1.127 3.833-1.286l-4.467 30.717c-.638 4.71-1.462 9.413-1.712 14.162-3.924 1.295-7.778 2.811-11.704 4.082l5.559-44.526Z"/><path fill="#AE095C" d="M55.906 165.933c4.385 2.545 8.964 4.849 13.273 7.506l4.678 30.482 1.235 8.271c.172 1.151.213 2.65.616 3.718l.091-.252c.084.237.12.366.128.622-1.535-.16-10.739-5.92-12.585-7.004a2345.234 2345.234 0 0 0-7.436-43.343ZM229.821 89.396c.719.882 2.75 10.988 3.185 12.956-3.315.802-6.602 1.862-9.869 2.844-4.142 1.245-8.298 2.464-12.421 3.77-1.71.542-3.35 1.352-5.071 1.831-3.062.853-5.063-.019-8.178 1.763-.669-1.57-1.327-3.107-2.198-4.58-2.112-3.229-5.077-5.429-8.249-7.523 1.802-.212 3.612-.762 5.367-1.212l8.362-2.181c9.686-2.549 19.36-5.224 29.072-7.668Z"/><path fill="#E600C8" d="M219.884 169.883c1.721-.374 3.46-1.152 5.136-1.716-.213 8.119-.834 16.222-1.196 24.335a825.772 825.772 0 0 1-.493 11.348c-.077 1.828-.042 3.673-.246 5.492l.029.864c-1.449.87-3.421 1.346-5.032 1.93-4.575 1.66-9.375 3.148-13.806 5.14-.101-.481-.271-.878-.478-1.323-.385-6.193.159-12.954-.07-19.251l.653-.549c1.889-.91 5.521-3.149 6.632-4.789 1.387-.914 2.651-2.166 3.732-3.421 4.685-5.436 5.69-11.065 5.139-18.06Z"/><path fill="#13010E" d="m203.728 196.702.653-.549c-.12 4.927-.015 9.868-.025 14.797-.004 2.074.127 4.265-.08 6.326-.101-.481-.271-.878-.478-1.323-.385-6.193.159-12.954-.07-19.251Z"/><path fill="#E600C8" d="M38.44 132.051c.946-.728 1.881-1.203 2.994-1.629 4.455-1.701 9.259-2.637 13.867-3.836a790.946 790.946 0 0 1 22.905-5.733c5.344-1.282 10.747-2.437 16.03-3.959.678 1.404 1.215 2.897 1.797 4.344-3.31.994-6.7 1.773-10.046 2.639a1907.58 1907.58 0 0 0-19.252 5.023c-3.27.876-6.908 1.5-10.032 2.768-.574-.02-1.008.128-1.548.309l-.236.194c.743.679 12.002 4.528 13.689 5.162a2809.04 2809.04 0 0 1 27.281 10.675l10.548 3.978c1.431.554 2.945 1.056 4.33 1.714-2.19.966-20.087-3.175-23.424-4.003-1.244-.309-5.847-1.717-6.778-1.667-.143.008-.273.092-.41.138-1.406-.365-2.895-1.148-4.245-1.702l-8.486-3.435a531.03 531.03 0 0 0-28.984-10.98ZM58.263 54.33c.524.48.931 12.168.999 13.592-.707.675-1.391 1.36-2.025 2.105-10.247 12.05-12.832 40.239-11.65 55.582-1.298-.678-2.577-1.402-3.863-2.104-.974-.504-1.928-1.057-2.887-1.588-.964-13.426-.51-27.3 2.94-40.37 2.593-9.818 7.345-21.9 16.486-27.217ZM233.266 59.79c2.105 2.56 3.779 5.701 5.322 8.623 6.076 11.505 10.104 23.587 13.358 36.153-2.967 1.653-6.174 2.955-9.276 4.331-1.967.873-4.041 1.973-6.103 2.583a222.275 222.275 0 0 0-6.88-26.467c-.944-2.89-1.948-5.76-3.01-8.61.37-.062.737-.133 1.103-.215 2.226-.5 4.007-1.886 5.191-3.81 1.599-2.6 2.27-6.152 1.459-9.123-.31-1.134-.879-2.207-1.137-3.337l-.027-.128ZM70.407 174.344c1.378.34 2.937 1.448 4.194 2.139l7.993 4.406c1.425.784 2.864 1.675 4.344 2.344.938 8.834 2.028 17.682 3.127 26.498l1.02 7.787c.197 1.492.478 3.062.511 4.567.073.925.38 2.433.106 3.296a622.78 622.78 0 0 0-7.78-4.49c-1.626-.909-6.95-3.474-7.995-4.611a1.747 1.747 0 0 0-.128-.622c-1.524-13.734-3.183-27.671-5.392-41.314Z"/><path fill="#81096A" d="M59.083 69.082c1.559.499 6.228 4.851 7.586 6.164-6.899 14.473-10.148 34.01-9.921 50.002-1.594.233-3.15.583-4.718.94-1.91.436-3.81.914-5.698 1.434-.269-2.922-.56-5.736-.557-8.681.013-14.462 2.63-39.183 13.308-49.859Z"/><path fill="#AE095C" d="M184.978 173.99c-.588 5.009.419 10.269 3.617 14.271 2.543 3.183 6.369 5.374 10.437 5.793 1.545.159 3.118.088 4.666.016l.03 2.632c.229 6.297-.315 13.058.07 19.251l-.076.923.02.299c-.052.09-.075.206-.157.271-.478.376-2.433.91-3.102 1.166-4.944 1.888-9.928 3.693-14.839 5.662-.331-1.423-.383-2.972-.528-4.425l-.76-7.759c-.95-9.852-1.771-19.715-2.461-29.589-.125-2.405-.269-4.81-.431-7.213a37.55 37.55 0 0 0 3.514-1.298Z"/><path fill="#6D063F" d="M184.978 173.99c-.588 5.009.419 10.269 3.617 14.271 2.543 3.183 6.369 5.374 10.437 5.793 1.545.159 3.118.088 4.666.016l.03 2.632c.229 6.297-.315 13.058.07 19.251l-.076.923c-.389-2.083-.123-4.602-.12-6.734l.008-13.604c-2.322.679-4.609 1.328-7.057 1.151-6.491-.469-11.199-5.779-12.925-11.748-.183-.635-.521-3.328-.808-3.66l-.925.22c-.125-2.405-.269-4.81-.431-7.213a37.55 37.55 0 0 0 3.514-1.298Z"/><path fill="#E600C8" d="M124.303 201.523c.899-.52 3.39-.949 4.5-1.285 3.136-.95 6.224-2.048 9.36-2.995l2.696 27.311c.531 5.593.924 11.214 1.566 16.794a467.257 467.257 0 0 0-9.098 3.497c-1.715.672-3.439 1.439-5.201 1.964a1726.891 1726.891 0 0 1-2.814-33.391c-.304-3.963-.777-7.93-1.009-11.895Z"/><path fill="#F6A1E8" d="M181.602 31.352c4.429-.408 12.427-3.204 16.25-2.275 13.785 3.348 28.194 19.036 35.414 30.713l.027.128c.258 1.13.827 2.203 1.137 3.337.811 2.971.14 6.522-1.46 9.123-1.183 1.924-2.964 3.31-5.19 3.81-.366.082-.733.154-1.103.216-3.473-7.475-7.153-14.798-12.194-21.371-5.933-7.735-14.536-17.14-23.53-21.187-3.008-1.353-6.093-2.064-9.351-2.494Z"/><path fill="#FE81EA" d="m202.496 33.91.149-.005.231.003c.4.003.676.033 1.04.219.504.258.933.6 1.056 1.184.101.476-.073.74-.311 1.12-.395-.005-.809-.016-1.191-.13-.48-.145-1.015-.45-1.21-.937-.215-.537.002-.98.236-1.455Z"/><path fill="#040104" d="M220.999 50.505c.732.121 1.326.366 1.873.883.405.383.748.874.708 1.46-.04.58-.347.825-.779 1.132-.852-.077-1.436-.26-2.059-.877-.381-.377-.662-.868-.589-1.425.075-.58.411-.855.846-1.173Z"/><path fill="#E600C8" d="M220.937 51.044c.066.005.133.007.199.014.593.064 1.242.312 1.575.841.324.514.23.94.072 1.476-.068-.003-.136-.004-.203-.01-.594-.058-1.272-.274-1.603-.811-.316-.514-.206-.979-.04-1.51Z"/><path fill="url(#d)" d="M181.765 139.963c3.309-1.012 6.694-1.774 10.041-2.645 2.797-.728 7.065-2.547 9.939-2.238 2.352.254 4.571 1.682 6.066 3.46.291.508.499.978.629 1.551.671 2.945 2.268 16.88 1.984 19.459l-.234-.264c-3.065-1.288-7.054-1.574-10.169-.249-3.823 1.627-7.191 4.676-8.697 8.594-1.694 4.41-1.51 9.652.457 13.938 1.458 3.179 3.855 5.913 7.195 7.147 3.134 1.158 6.584.868 9.585-.532 3.943-1.84 6.97-6.117 8.386-10.133 1.044-2.96.692-5.303 1.169-8.187a16.979 16.979 0 0 1 .607 3.084 17.094 17.094 0 0 1 .091 2.356 17.23 17.23 0 0 1-.115 1.569 17.156 17.156 0 0 1-.432 2.319 18.07 18.07 0 0 1-.458 1.504 18.475 18.475 0 0 1-.591 1.458c-1.896 4.039-5.46 7.559-9.686 9.079a14.47 14.47 0 0 1-2.134.613c-.242.051-.485.095-.729.133-.244.038-.489.07-.735.097a16.426 16.426 0 0 1-1.478.083 15.263 15.263 0 0 1-2.216-.151 14.815 14.815 0 0 1-4.242-1.273c-3.66-1.756-6.313-4.825-7.644-8.659-1.841-5.305-.215-10.834 2.118-15.677a615.574 615.574 0 0 0-1.113-9.965c-.36-3.148-.419-6.935-1.634-9.876-.732-1.77-2.005-3.529-3.838-4.25-1.065-.419-2.3-.728-3.4-.254l-1.025.438-.175-.142c-.015-.262-.045-.302.083-.552.438-.864 1.494-1.552 2.395-1.835Z"/><path fill="#F5B62F" d="M189.41 145.108c.295-.03.586-.054.882-.065.251.241.192.106.24.344.088.432.203.795.376 1.2.456 2.167.51 4.531.706 6.737.287 3.23.687 6.502.75 9.744-.402.566-.846 1.105-1.274 1.652a359.03 359.03 0 0 1-1.387-11.556c-.291-2.601-.449-5.303-1.187-7.823.301-.139.57-.179.894-.233Z"/><path fill="#E49326" d="M207.811 138.541c.291.508.499.977.629 1.55.671 2.945 2.268 16.88 1.984 19.459l-.234-.264c-.24-1.593-.645-3.171-.909-4.765-.718-4.332-1.331-8.91-1.595-13.295-3.435.79-6.856 2.166-10.237 3.202-1.086.332-5.593 1.422-6.32 1.86-.106.064-.147.199-.221.299a5.927 5.927 0 0 1-.376-1.2c-.048-.238.011-.103-.24-.344a13.71 13.71 0 0 0-.882.065c2.241-1.6 10.97-4.035 14.028-4.963 1.365-.414 3.226-.754 4.373-1.604Z"/><path fill="#FAD73F" d="M181.765 139.963c3.309-1.012 6.694-1.774 10.041-2.645 2.797-.728 7.065-2.547 9.939-2.238 2.352.254 4.571 1.682 6.066 3.46-1.147.851-3.008 1.191-4.373 1.605-3.058.928-11.788 3.363-14.028 4.963-.324.054-.593.094-.894.233-.916-2.3-2.49-3.855-4.818-4.721-.569-.211-1.182-.316-1.734-.565l-.199-.092Z"/><path fill="#F5B62F" d="M218.116 169.864c-.477 2.884-.125 5.227-1.169 8.187-1.416 4.016-4.443 8.293-8.386 10.133-3.001 1.4-6.451 1.69-9.585.532-3.34-1.234-5.737-3.968-7.195-7.147-1.967-4.286-2.151-9.528-.457-13.938 1.506-3.918 4.874-6.967 8.697-8.594 3.115-1.325 7.104-1.039 10.169.249l.234.264c2.862 1.027 5.271 4.297 6.517 6.938.506 1.072.929 2.214 1.175 3.376Z"/><path fill="#A96A12" d="M196.199 169.037c-.022-1.256 1.152-2.408 1.975-3.268 1.84-1.924 4.096-3.177 6.801-3.242 2.312-.056 4.533.764 6.194 2.397 2.11 2.074 3.267 5.104 3.25 8.046-.006 1.077-.16 2.148-.563 3.15.057-1.169.113-2.334-.058-3.497a10.755 10.755 0 0 0-.191-1.002 10.14 10.14 0 0 0-1.15-2.825 10.131 10.131 0 0 0-1.207-1.642 10.22 10.22 0 0 0-1.105-1.057 10.118 10.118 0 0 0-.402-.315c-1.908-1.414-4.138-1.977-6.5-1.603-3.12.494-5.257 2.386-7.044 4.858Z"/><path fill="#040104" d="M196.199 169.037c1.787-2.472 3.924-4.364 7.044-4.858 2.362-.374 4.592.189 6.5 1.603a10.093 10.093 0 0 1 1.507 1.372c.113.126.224.256.332.387a11.13 11.13 0 0 1 .604.822 10.131 10.131 0 0 1 .747 1.335 9.729 9.729 0 0 1 .385.945 10.14 10.14 0 0 1 .289.978 10.28 10.28 0 0 1 .191 1.002c.171 1.163.115 2.328.058 3.497-.228.799-.477 1.607-.814 2.367-1.255 2.83-3.515 5.191-6.435 6.305-2.125.811-4.509.854-6.59-.127-2.365-1.114-4.18-3.331-5.005-5.79-1.12-3.341-.347-6.775 1.187-9.838Z"/><path fill="#6D063F" d="M203.424 166.57c1.526-.085 2.851-.028 4.264.648 1.705.815 2.849 2.221 3.501 3.97-2.264 1.032-4.833 2.063-7.299 2.505-.131-2.377-.382-4.743-.466-7.123ZM196.4 176.346c.039-1.879.352-3.665 1.206-5.355 1.156-2.287 2.709-3.386 5.099-4.173.336 2.353.413 4.806.46 7.181-2.298.471-4.493 1.705-6.765 2.347Z"/><path fill="#AE095C" d="M196.4 176.345c2.272-.641 4.467-1.875 6.765-2.346.085 2.27.126 4.553.315 6.817.013.829.046 1.656.098 2.483-1.522-.185-2.871-.395-4.161-1.312-1.913-1.36-2.636-3.438-3.017-5.642Z"/><path fill="#AE095C" d="M211.189 171.188c.564 2.801.357 5.432-1.278 7.858-1.377 2.042-3.424 3.316-5.69 4.18-.213.031-.427.075-.643.073a52.73 52.73 0 0 1-.098-2.482c.363-.142.383-.241.602-.571a325.527 325.527 0 0 0-.192-6.553c2.466-.442 5.034-1.473 7.299-2.505Z"/><path fill="#13010E" d="M204.082 180.246c.025.974-.023 2.022.139 2.98-.213.031-.427.075-.643.073a52.73 52.73 0 0 1-.098-2.482c.363-.142.383-.241.602-.571Z"/><path fill="#AE095C" d="M226.019 167.65c2.391-.727 16.307-6.148 17.164-6.087.119.008.225.079.337.119l-3.198 29.4c-.506 4.617-1.192 9.243-1.56 13.871a692.986 692.986 0 0 0-10.175 3.487c-1.778.616-3.631 1.425-5.473 1.766l-.029-.864.198.413c.211-1.281.19-2.645.254-3.942.113-2.204.238-4.408.373-6.61l1.55-22.648c.212-2.957.213-5.964.559-8.905Z"/><path fill="#E600C8" d="M188.97 34.09c3.623 1.622 7.204 4.162 10.254 6.699-3.927.458-7.871 1.334-11.767 2.03l-19.898 3.526-72.998 13.629c-2.698-2.338-5.438-4.408-8.388-6.413 2.14-.767 4.781-1.051 7.023-1.422l11.395-1.88 41.516-7.185a863.658 863.658 0 0 0 16.164-2.847c4.107-.787 8.181-1.74 12.278-2.579 2.629-.538 12.708-2.329 14.421-3.559Z"/><path fill="#AE095C" d="M140.606 196.837c1.758-.284 3.661-1.15 5.343-1.741 3.848-1.351 7.727-2.81 11.631-3.98 1.622 11.305 2.897 22.658 4.782 33.925.446 2.666.774 5.419 1.333 8.059-4.683 2.111-9.569 3.898-14.375 5.713-1.666.63-3.401 1.172-5.035 1.872-.49-11.499-1.709-23.037-2.771-34.497-.288-3.113-.683-6.235-.908-9.351ZM88.27 184.23c.905.141 14.772 7.589 15.105 7.931.092.095.123.184.173.298.117 5.242.719 10.537 1.139 15.765a960.244 960.244 0 0 0 2.203 25.01c.119-4.581-.219-9.237-.471-13.811l-.925-18.714c-.125-2.451-.405-4.89-.474-7.345 2.128.812 5.316 2.938 7.329 3.29 1.053 10.273 1.708 20.573 2.501 30.869.31 4.027.411 8.1.924 12.106-3.032-1.836-6.169-3.502-9.146-5.424-2.837-1.663-5.63-3.397-8.477-5.043-2.14-1.237-4.42-2.38-6.449-3.781.275-.863-.033-2.371-.106-3.296l.108.068c.32-.654-3.047-34.492-3.434-37.923Z"/><path fill="#E600C8" d="M159.596 190.69c.051-.09.074-.204.155-.269.748-.592 18.617-6.628 21.408-7.506 1.144 9.665 1.76 19.412 2.563 29.11.312 3.763.372 8.906 1.194 12.51-4.281 1.574-8.503 3.35-12.704 5.125-2.6 1.098-5.211 2.298-7.886 3.202-1.777-10.142-2.601-20.458-3.57-30.702-.362-3.82-.656-7.667-1.16-11.47ZM261.74 125.282c.021.017.045.03.062.051.28.337.316.814.342 1.232.151 2.404-.141 4.952-.276 7.363-.199 3.536-.342 7.079-.581 10.611-2.004 1.13-4.648 1.636-6.851 2.283a998.6 998.6 0 0 0-10.005 2.99l-30.296 9.476c-.596-.461-1.285-.681-1.92-1.068-.216-.131-.171-.23-.222-.464-.945-5.691-1.226-11.51-2.45-17.158l35.799-10.497c5.442-1.596 10.896-3.468 16.398-4.819ZM50.214 204.1c1.46.595 2.772 1.629 4.167 2.372 6.055 3.222 11.97 6.708 17.994 9.986 8.3 4.516 16.704 8.83 24.952 13.443 5.589 3.126 11.021 6.497 16.558 9.709a569.509 569.509 0 0 0 8.342 4.709c1.799.998 3.66 1.941 5.375 3.079-.655 4.702.507 10.153.736 14.921-.059.007-.119.028-.179.023-.258-.02-57.098-34.265-61.455-36.918a717.632 717.632 0 0 0-9.393-5.614c-1.759-1.051-3.805-2.092-5.362-3.429L50.214 204.1ZM61.692 54.26c4.814 1.418 9.447 4.309 13.337 7.447 3.46 2.79 6.507 6.046 9.379 9.428 17.637 20.772 28.28 52.161 31.183 79.033-3.348-.628-6.668-1.715-9.95-2.63-.522-2.454-.902-4.933-1.458-7.382a164.66 164.66 0 0 0-8.223-25.919c-6.656-15.932-18.535-35.872-33.404-45.252-.38-4.904-.433-9.816-.864-14.724Z"/><path fill="url(#e)" d="M76.835 50.487c1.322.47 2.621 1.083 3.893 1.675 3.279 1.53 6.375 3.288 9.253 5.495C102.71 67.418 112.19 82.7 118.918 97.02c1.405 2.988 2.831 6.021 3.963 9.123 1.613 3.72 3.212 7.813 4.21 11.742-.877.322-3.787-.223-4.927-.286-2.062-.114-4.13-.038-6.193-.151-2.501 1.085-3.369 1.673-6.234 1.631-1.877-6.417-4.285-12.579-6.938-18.707-6.515-15.05-17.416-32.792-31.368-42.025-3.25-2.151-6.732-3.658-10.341-5.086 1.715-.344 3.468-.535 5.191-.843l10.554-1.93Z"/><path fill="#040104" d="M81.564 59.478c.584-.04 1.052-.036 1.575.254.402.223.762.534.847 1.01.103.577-.21.926-.558 1.324a2.87 2.87 0 0 1-1.87-.608c-.292-.234-.512-.575-.524-.958-.015-.453.245-.717.53-1.022Z"/><path fill="#FE81EA" d="M82.008 59.81c.545.138.897.382 1.226.831.079.428.068.47-.102.872-.63-.102-1.087-.208-1.485-.724.004-.478.113-.583.36-.98Z"/><path fill="#040104" d="M101.489 81.313c.984.163 1.796.478 2.392 1.327.256.365.376.823.239 1.26-.179.566-.641.806-1.124 1.07-.344.004-.733.03-1.068-.055-.611-.158-1.183-.768-1.48-1.302-.242-.432-.309-.958-.108-1.42.239-.55.627-.706 1.149-.88Z"/><path fill="#FE81EA" d="M101.358 81.866c.475.03.884.062 1.298.319.361.222.699.568.719 1.018.022.506-.221.692-.516 1.045-.563.01-.926-.065-1.392-.387-.365-.252-.597-.57-.633-1.023-.032-.416.269-.69.524-.972Z"/><path fill="#F354AF" d="M122.881 106.142c1.613 3.72 3.212 7.813 4.21 11.743-.877.321-3.787-.224-4.927-.287-2.062-.114-4.13-.038-6.193-.151.341-.198.661-.408.981-.638 3.999-2.883 5.164-5.942 5.929-10.667Z"/><path fill="#AE095C" d="M225.326 76.936c1.151.74 3.988 10.228 4.483 12.107-5.204 1.525-10.528 2.703-15.773 4.084-9.118 2.4-18.223 4.919-27.38 7.16-3.889-1.458-7.356-2.388-11.552-2.034-4.907.414-9.744 2.74-13.271 6.154-1.158 1.12-2.13 2.39-3.164 3.621-10.016 2.218-19.847 5.304-29.874 7.472l-1.175.296a170.57 170.57 0 0 0-5.274-14.223c1.696-.13 3.433-.599 5.095-.966a518.058 518.058 0 0 0 8.346-1.911c9.166-2.15 18.322-4.345 27.467-6.587l43.87-10.645a710.282 710.282 0 0 1 10.474-2.564c2.576-.611 5.21-1.144 7.728-1.964Z"/><path fill="#E600C8" d="M185.68 148.983c.127-.013.265.034.39.06.619 1.192 1.873 13.692 2.316 16.195-1.114 1.607-1.94 3.175-2.694 4.979-10.116 3.566-20.402 6.736-30.606 10.04l-30.182 10.019-1.295.408c-.297-8.295-.677-16.585-1.139-24.872 2.491-.219 5.036-1.002 7.463-1.605 5.528-1.372 10.996-2.942 16.485-4.46l39.262-10.764ZM252.541 202.677c.257.584-.695 9.7-.762 11.037-2.73 1.38-5.759 2.366-8.64 3.392l-11.956 4.26c-8.265 2.986-16.384 6.374-24.572 9.562-7.389 2.876-14.725 5.9-22.084 8.855l-31.809 12.784c-7.829 3.187-15.623 6.533-23.51 9.568-.217-3.394-.619-6.77-.84-10.16.136.113.094.121.274.106.833-.064 10.89-5.334 12.553-6.108 2.331-1.086 4.748-1.972 7.096-3.021a1007.882 1007.882 0 0 0 24.497-11.183c1.628-.773 5.808-2.489 6.91-3.617 1.652-.97 5.872-2.293 7.874-3.054 4.003-1.52 8.633-3.575 12.658-4.766l.157.206c.766.047 1.739-.356 2.474-.598 10.936-3.597 21.777-7.52 32.667-11.261l11.402-3.931c1.829-.639 3.886-1.202 5.611-2.071Z"/><path fill="#5BF5BB" d="M239.384 213.911c.332.069.566.09.834.312.2.166.158.273.192.513-.193.527-.514.787-.926 1.156l-.616-.198c-.249-.273-.275-.284-.313-.648.198-.511.431-.763.829-1.135Z"/><path fill="#E600C8" d="M38.63 132.745c16.8 6.914 33.826 13.311 50.687 20.083 7.331 2.982 14.691 5.89 22.081 8.722 3.406 1.305 6.939 2.931 10.469 3.809-.064 5.855.324 11.82.638 17.67.132 2.455.358 4.929.358 7.388-1.907-.592-5.827-2.937-7.846-3.917a1403.757 1403.757 0 0 1-24.245-11.836L58.32 158.726c-5.487-2.704-11.22-5.222-16.507-8.295l-2.132-11.448c-.378-2.057-.868-4.156-1.051-6.238Z"/><path fill="#F354AF" d="m199.981 42.241.394-.028c3.091 1.54 11.656 12.289 14.181 15.421a4361.882 4361.882 0 0 1-52.701 10.715l-51.4 10.883c-.814-1.482-1.882-2.918-2.863-4.296-3.563-5.004-7.5-9.406-11.856-13.727 3.667-.42 7.372-1.323 11.009-2.003l21.206-3.95c23.98-4.505 47.99-8.844 72.03-13.015Z"/><path fill="#E600C8" d="M215.143 59.07c.152-.042.311-.006.467.008.855.714 1.512 1.93 2.121 2.865 2.896 4.44 5.248 9.008 7.428 13.836l-67.98 16.407a1351.47 1351.47 0 0 1-26.325 6.308c-2.796.662-5.579 1.45-8.384 2.06-.236.051-.377.031-.601-.053-1.262-2.424-2.298-4.996-3.506-7.453a122.3 122.3 0 0 0-7.153-12.558c3.018-.237 7.528-1.502 10.63-2.148l24.176-5.08 69.127-14.192Z"/><defs><linearGradient id="a" x1="201.037" x2="194.094" y1="123.244" y2="136.066" gradientUnits="userSpaceOnUse"><stop stop-color="#EA9804"/><stop offset="1" stop-color="#CF6A0A"/></linearGradient><linearGradient id="b" x1="159.312" x2="147.064" y1="164.394" y2="145.099" gradientUnits="userSpaceOnUse"><stop stop-color="#F8B5D4"/><stop offset="1" stop-color="#FFA9EC"/></linearGradient><linearGradient id="c" x1="176.542" x2="184.36" y1="119.437" y2="116.921" gradientUnits="userSpaceOnUse"><stop stop-color="#F79906"/><stop offset="1" stop-color="#FCE60E"/></linearGradient><linearGradient id="d" x1="197.187" x2="200.022" y1="191.568" y2="141.088" gradientUnits="userSpaceOnUse"><stop stop-color="#82581D"/><stop offset="1" stop-color="#A6745A"/></linearGradient><linearGradient id="e" x1="80.647" x2="101.75" y1="103.028" y2="63.57" gradientUnits="userSpaceOnUse"><stop stop-color="#F08DE0"/><stop offset="1" stop-color="#FFB5FA"/></linearGradient></defs></svg>