<svg xmlns="http://www.w3.org/2000/svg" width="300" height="300" fill="none"><path fill="#E6F9C3" d="M294.505 150.002c0 79.808-64.697 144.505-144.505 144.505-79.808 0-144.506-64.697-144.506-144.505C5.494 70.193 70.192 5.496 150 5.496s144.505 64.697 144.505 144.506Z"/><g fill-rule="evenodd" clip-path="url(#a)" clip-rule="evenodd"><path fill="#7EB814" d="M150 71.863c-14.791 0-28.616 4.108-40.403 11.243a2.432 2.432 0 0 1-2.519-4.16C119.604 71.364 134.296 67 150 67c45.84 0 83 37.16 83 83s-37.16 83-83 83-83-37.16-83-83c0-15.83 4.434-30.633 12.13-43.224a2.432 2.432 0 0 1 4.15 2.536C76.036 121.162 71.862 135.09 71.862 150c0 43.154 34.983 78.137 78.137 78.137s78.137-34.983 78.137-78.137S193.154 71.863 150 71.863Z"/><path fill="#7EB814" d="M150 82.26c-10.377 0-20.203 2.331-28.988 6.496a2.432 2.432 0 1 1-2.083-4.394c9.422-4.468 19.958-6.966 31.071-6.966 40.098 0 72.604 32.506 72.604 72.604 0 12.669-3.247 24.587-8.956 34.96a2.433 2.433 0 0 1-4.261-2.345c5.324-9.673 8.354-20.786 8.354-32.615 0-37.412-30.329-67.74-67.741-67.74Zm-62.525 35.759a2.43 2.43 0 0 1 1.168 3.234C84.55 129.977 82.26 139.718 82.26 150c0 37.412 30.329 67.741 67.741 67.741 11.828 0 22.942-3.03 32.614-8.353a2.431 2.431 0 1 1 2.345 4.26c-10.372 5.709-22.29 8.956-34.959 8.956-40.098 0-72.604-32.506-72.604-72.604 0-11.011 2.453-21.457 6.845-30.813a2.431 2.431 0 0 1 3.234-1.168Z"/><path fill="#5E8A0F" d="M95.421 72.198a2.432 2.432 0 0 1 2.432 2.431c0 10.14 8.22 18.36 18.36 18.36a2.432 2.432 0 1 1 0 4.864c-10.14 0-18.36 8.22-18.36 18.36a2.432 2.432 0 1 1-4.863 0c0-10.14-8.22-18.36-18.36-18.36a2.432 2.432 0 0 1 0-4.863c10.14 0 18.36-8.22 18.36-18.36a2.432 2.432 0 0 1 2.431-2.432Zm0 12.789A23.322 23.322 0 0 1 84.987 95.42a23.32 23.32 0 0 1 10.434 10.435 23.327 23.327 0 0 1 10.435-10.435 23.325 23.325 0 0 1-10.435-10.434Zm37.248 44.919a2.431 2.431 0 0 1 2.455 2.408l.329 34.108.001.023c0 .425-.063.909-.254 1.389-.183.458-.561 1.092-1.298 1.498a2.747 2.747 0 0 1-2.47.086c-.647-.293-1.068-.769-1.324-1.138l-19.389-28.076v27.431a2.431 2.431 0 0 1-4.863 0v-35.232a2.43 2.43 0 0 1 4.432-1.382l20.243 29.313-.27-27.973a2.431 2.431 0 0 1 2.408-2.455Zm39.589 2.431a2.43 2.43 0 0 1 2.431-2.431h19.494a2.43 2.43 0 1 1 0 4.863h-7.355v32.866a2.43 2.43 0 1 1-4.863 0v-32.866h-7.276a2.431 2.431 0 0 1-2.431-2.432Zm-27.235.129a2.431 2.431 0 0 1 2.432-2.431h14.201a2.431 2.431 0 1 1 0 4.863h-11.77v12.325h10.642a2.431 2.431 0 1 1 0 4.863h-10.642v15.42a2.43 2.43 0 1 1-4.863 0v-35.04Zm47.86 43.691a2.432 2.432 0 0 1 2.432 2.432c0 6.551 5.311 11.862 11.863 11.862a2.431 2.431 0 0 1 0 4.864c-6.552 0-11.863 5.311-11.863 11.862a2.432 2.432 0 0 1-4.864 0c0-6.551-5.311-11.862-11.862-11.862a2.432 2.432 0 0 1 0-4.864c6.551 0 11.862-5.311 11.862-11.862a2.432 2.432 0 0 1 2.432-2.432Zm0 11.121a16.803 16.803 0 0 1-5.605 5.605 16.803 16.803 0 0 1 5.605 5.605 16.812 16.812 0 0 1 5.605-5.605 16.812 16.812 0 0 1-5.605-5.605Z"/></g><defs><clipPath id="a"><path fill="#fff" d="M67 67h166v166H67z"/></clipPath></defs></svg>