<svg xmlns="http://www.w3.org/2000/svg" width="24" height="24" fill="none"><path fill="#fff" d="M18.609 5.942c2.146 3.177 3.205 6.76 2.81 10.887a.062.062 0 0 1-.026.044 15.664 15.664 0 0 1-4.751 2.414.06.06 0 0 1-.067-.023 12.776 12.776 0 0 1-.97-1.588.061.061 0 0 1 .032-.085 9.68 9.68 0 0 0 1.483-.71.062.062 0 0 0 .005-.102c-.1-.076-.2-.154-.295-.233a.058.058 0 0 0-.062-.008c-3.073 1.43-6.44 1.43-9.548 0a.059.059 0 0 0-.062.008 8.108 8.108 0 0 1-.294.233.062.062 0 0 0 .006.101c.473.274.965.514 1.482.712a.06.06 0 0 1 .033.084c-.28.557-.605 1.087-.97 1.59a.062.062 0 0 1-.067.021 15.715 15.715 0 0 1-4.745-2.414.065.065 0 0 1-.024-.045c-.332-3.569.343-7.182 2.806-10.887a.056.056 0 0 1 .026-.022c1.212-.56 2.51-.972 3.867-1.208a.061.061 0 0 1 .062.03c.168.299.36.682.49.996 1.43-.22 2.883-.22 4.343 0 .13-.307.315-.697.482-.996a.058.058 0 0 1 .062-.03 15.59 15.59 0 0 1 3.867 1.208c.01.004.02.012.025.023Zm-8.052 6.785c.015-1.055-.75-1.928-1.708-1.928-.95 0-1.707.866-1.707 1.928 0 1.063.771 1.928 1.707 1.928.951 0 1.708-.865 1.708-1.928Zm6.313 0c.015-1.055-.749-1.928-1.708-1.928-.95 0-1.707.866-1.707 1.928 0 1.063.771 1.928 1.707 1.928.959 0 1.708-.865 1.708-1.928Z"/></svg>