<svg xmlns="http://www.w3.org/2000/svg" width="24" height="24" fill="none"><path fill="#fff" d="M8.835 12a3.166 3.166 0 1 1 6.332-.002A3.166 3.166 0 0 1 8.835 12Zm-1.711 0A4.877 4.877 0 1 0 12 7.122 4.877 4.877 0 0 0 7.124 12Zm8.806-5.072a1.14 1.14 0 1 0 1.14-1.14 1.14 1.14 0 0 0-1.14 1.14ZM8.164 19.733c-.926-.042-1.43-.197-1.764-.327a2.953 2.953 0 0 1-1.093-.71 2.932 2.932 0 0 1-.71-1.093c-.13-.334-.285-.838-.327-1.764-.046-1.001-.055-1.302-.055-3.839s.01-2.837.055-3.84c.043-.925.198-1.428.327-1.763.173-.444.378-.76.71-1.093a2.927 2.927 0 0 1 1.093-.71c.334-.131.838-.285 1.764-.327 1-.046 1.301-.056 3.836-.056 2.536 0 2.836.01 3.838.056.926.042 1.429.197 1.764.326.444.172.76.379 1.093.711.332.332.537.65.71 1.093.13.334.285.838.327 1.764.046 1.002.055 1.302.055 3.84 0 2.536-.01 2.836-.055 3.838-.043.926-.197 1.43-.327 1.764-.173.444-.378.76-.71 1.092a2.953 2.953 0 0 1-1.093.711c-.334.13-.838.285-1.764.327-1 .046-1.301.055-3.838.055-2.536 0-2.836-.01-3.836-.055Zm-.08-17.175c-1.01.046-1.701.206-2.304.44a4.658 4.658 0 0 0-1.683 1.097 4.642 4.642 0 0 0-1.095 1.682c-.235.604-.395 1.295-.441 2.306C2.514 9.096 2.503 9.42 2.503 12s.01 2.904.058 3.917c.046 1.011.206 1.702.44 2.306a4.644 4.644 0 0 0 1.096 1.682 4.67 4.67 0 0 0 1.683 1.096c.604.235 1.294.395 2.305.441 1.013.046 1.336.058 3.915.058 2.58 0 2.903-.01 3.916-.058 1.011-.046 1.701-.206 2.305-.44a4.67 4.67 0 0 0 1.683-1.097 4.653 4.653 0 0 0 1.095-1.682c.235-.604.396-1.295.441-2.306.046-1.014.057-1.337.057-3.917s-.01-2.904-.057-3.917c-.046-1.011-.206-1.702-.441-2.306a4.672 4.672 0 0 0-1.095-1.682 4.646 4.646 0 0 0-1.682-1.096c-.605-.235-1.295-.396-2.305-.441C14.904 2.51 14.58 2.5 12 2.5c-2.579 0-2.903.01-3.916.058Z"/></svg>