<svg xmlns="http://www.w3.org/2000/svg" width="24" height="24" fill="none"><path fill="#fff" d="M6.578 21.5V8.68H2.321V21.5h4.258ZM4.451 6.93c1.484 0 2.408-.985 2.408-2.215C6.83 3.457 5.935 2.5 4.479 2.5c-1.457 0-2.409.957-2.409 2.215 0 1.23.924 2.215 2.353 2.215h.027ZM8.935 21.5h4.257V14.34c0-.382.027-.766.14-1.04.308-.765 1.008-1.558 2.184-1.558 1.54 0 2.157 1.176 2.157 2.9V21.5h4.257v-7.35c0-3.938-2.1-5.77-4.901-5.77-2.296 0-3.305 1.284-3.865 2.159h.028V8.68H8.935c.056 1.203 0 12.82 0 12.82Z"/></svg>