<svg xmlns="http://www.w3.org/2000/svg" width="24" height="24" fill="none"><path fill="#fff" fill-rule="evenodd" d="M12 2.5c-5.296 0-9.401 3.92-9.401 9.215 0 2.77 1.123 5.163 2.953 6.817.153.14.246.332.253.54l.051 1.69a.754.754 0 0 0 1.056.673l1.865-.831a.742.742 0 0 1 .501-.038c.857.239 1.77.365 2.722.365 5.297 0 9.401-3.92 9.401-9.216C21.401 6.42 17.297 2.5 12 2.5Zm5.645 7.09-2.762 4.427c-.439.703-1.381.879-2.04.38l-2.195-1.665a.56.56 0 0 0-.68.002L7.002 15.01c-.395.304-.913-.176-.646-.6l2.761-4.427a1.403 1.403 0 0 1 2.04-.38l2.195 1.664a.56.56 0 0 0 .68-.002l2.966-2.274c.395-.304.913.175.646.6Z" clip-rule="evenodd"/></svg>