<svg xmlns="http://www.w3.org/2000/svg" width="24" height="24" fill="none"><path fill="#fff" d="M2.665 10.96s8.403-3.54 11.318-4.786c1.117-.499 4.905-2.094 4.905-2.094s1.75-.698 1.603.997c-.048.698-.437 3.14-.825 5.782-.583 3.74-1.215 7.827-1.215 7.827s-.097 1.146-.923 1.346c-.825.2-2.185-.698-2.428-.898-.195-.149-3.643-2.392-4.906-3.489-.34-.3-.729-.897.048-1.595a187.647 187.647 0 0 0 5.1-4.985c.583-.598 1.166-1.994-1.262-.3a414.287 414.287 0 0 1-6.85 4.736s-.776.499-2.234.05c-1.457-.448-3.157-1.046-3.157-1.046s-1.166-.748.826-1.546Z"/></svg>