<svg xmlns="http://www.w3.org/2000/svg" width="24" height="24" fill="none"><path fill="#fff" d="M18.183 6.563a4.318 4.318 0 0 1-.374-.217 5.26 5.26 0 0 1-.96-.816 4.53 4.53 0 0 1-1.083-2.234h.004c-.082-.483-.048-.796-.043-.796h-3.263v12.618c0 .17 0 .337-.008.502l-.003.062c0 .009 0 .018-.002.028v.007a2.77 2.77 0 0 1-1.394 2.2 2.723 2.723 0 0 1-1.35.355 2.761 2.761 0 0 1-2.752-2.77 2.761 2.761 0 0 1 2.752-2.771c.288 0 .574.045.848.134l.004-3.322a6.062 6.062 0 0 0-4.671 1.366 6.403 6.403 0 0 0-1.397 1.723c-.138.238-.658 1.192-.72 2.74-.04.88.224 1.79.35 2.167v.008c.079.221.386.978.885 1.616.404.511.88.96 1.414 1.333v-.008l.008.008C8.008 21.57 9.759 21.5 9.759 21.5c.303-.012 1.319 0 2.472-.547a6.205 6.205 0 0 0 2.008-1.508 6.273 6.273 0 0 0 1.094-1.818 6.812 6.812 0 0 0 .394-2.08V8.852c.04.024.567.373.567.373s.76.487 1.944.804c.85.225 1.996.273 1.996.273v-3.24c-.402.044-1.217-.083-2.05-.499Z"/></svg>