<svg xmlns="http://www.w3.org/2000/svg" width="24" height="24" fill="none"><path fill="#fff" d="M23.412 4.782a9.432 9.432 0 0 1-2.33.665c.375-.064.926-.74 1.146-1.013.334-.412.588-.883.75-1.389 0-.037.037-.09 0-.118a.129.129 0 0 0-.123 0c-.871.472-1.798.833-2.759 1.073a.193.193 0 0 1-.193-.049 2.684 2.684 0 0 0-.24-.252 5.026 5.026 0 0 0-1.318-.852 4.63 4.63 0 0 0-2.052-.338 4.962 4.962 0 0 0-1.95.536 5.053 5.053 0 0 0-1.542 1.309 4.955 4.955 0 0 0-.938 1.876 5.157 5.157 0 0 0-.048 1.984c0 .112 0 .128-.096.112-3.82-.563-6.953-1.92-9.513-4.83-.113-.129-.172-.129-.263 0C.83 5.19 1.37 7.87 2.763 9.195c.187.177.38.348.584.509a4.78 4.78 0 0 1-1.832-.51c-.107-.069-.166-.031-.172.097a3.161 3.161 0 0 0 0 .536 4.87 4.87 0 0 0 3 3.882c.195.083.397.146.605.188a5.477 5.477 0 0 1-1.794.053c-.129-.027-.177.043-.129.166.788 2.145 2.496 2.799 3.75 3.163.171.027.342.027.535.07l-.032.032c-.37.676-1.864 1.131-2.55 1.367a9.156 9.156 0 0 1-3.91.504c-.209-.032-.257-.026-.31 0-.054.027 0 .086.059.14.267.177.535.332.814.482.829.453 1.706.813 2.614 1.072 4.703 1.298 9.995.344 13.525-3.168 2.774-2.756 3.75-6.557 3.75-10.363 0-.145.176-.23.278-.306a9.2 9.2 0 0 0 1.837-1.92.563.563 0 0 0 .128-.385c0-.08 0-.064-.101-.022Z"/></svg>