<svg xmlns="http://www.w3.org/2000/svg" width="24" height="24" fill="none"><path fill="#9146FF" d="m15.268 12.874-1.73 1.605h-1.73l-1.514 1.405v-1.405H8.348V8.46h6.92v4.414Z"/><path fill="#000" d="m7.414 3.194-.883.882-1.543 9.925 4.631 2.426.662.883 4.411-1.544 4.852-3.75.221-3.529-.22-5.073-.662-.22H7.413Z"/><path fill="#fff" d="M6.88 2.5 3.223 5.893v12.214h4.388V21.5l3.657-3.393h2.926L20.776 12V2.5H6.88Zm12.434 8.822-2.926 2.714h-2.925l-2.56 2.375v-2.375H7.61V3.857h11.703v7.465Z"/><path fill="#fff" d="M17.12 6.232h-1.463v4.071h1.462v-4.07ZM13.098 6.232h-1.462v4.071h1.463v-4.07Z"/></svg>