<svg xmlns="http://www.w3.org/2000/svg" width="24" height="24" fill="none"><path fill="#fff" fill-rule="evenodd" d="M21.064 7.424c.132-.413 0-.716-.629-.716h-2.078c-.529 0-.772.262-.904.551 0 0-1.058 2.417-2.555 3.987-.484.454-.705.599-.969.599-.132 0-.323-.145-.323-.558V7.424c0-.496-.154-.716-.594-.716H9.745c-.33 0-.528.23-.528.448 0 .47.748.578.825 1.9v2.872c0 .63-.12.743-.385.743-.705 0-2.419-2.428-3.435-5.205-.2-.54-.4-.758-.93-.758h-2.08c-.593 0-.712.262-.712.551 0 .516.705 3.078 3.281 6.466 1.718 2.313 4.138 3.568 6.34 3.568 1.321 0 1.485-.279 1.485-.759v-1.748c0-.558.125-.669.543-.669.309 0 .837.145 2.07 1.26 1.41 1.322 1.642 1.915 2.435 1.915h2.078c.594 0 .891-.278.72-.828-.188-.548-.86-1.342-1.753-2.285-.485-.537-1.212-1.115-1.432-1.405-.308-.371-.22-.537 0-.867 0 0 2.533-3.347 2.797-4.483Z" clip-rule="evenodd"/></svg>