<svg xmlns="http://www.w3.org/2000/svg" width="24" height="24" fill="none"><path fill="#fff" d="m2.516 21.5 1.362-5.064A9.366 9.366 0 0 1 6.407 4.41a9.405 9.405 0 0 1 12.282.794 9.372 9.372 0 0 1 .954 12.25 9.408 9.408 0 0 1-12.012 2.68L2.517 21.5Zm5.362-3.26.317.187a7.603 7.603 0 0 0 9.196-1.117 7.576 7.576 0 0 0 1.27-9.161 7.589 7.589 0 0 0-3.666-3.236A7.605 7.605 0 0 0 6.043 7.29a7.572 7.572 0 0 0-1.57 4.627 7.485 7.485 0 0 0 1.11 3.929l.199.327L5.02 19l2.858-.76Z"/><path fill="#fff" fill-rule="evenodd" d="M15.557 13.217a1.568 1.568 0 0 0-1.34-.305c-.349.145-.574.69-.8.964a.333.333 0 0 1-.428.096 6.072 6.072 0 0 1-3.035-2.596.364.364 0 0 1 .048-.503c.251-.249.436-.556.536-.895a1.946 1.946 0 0 0-.247-1.07 2.505 2.505 0 0 0-.777-1.173 1.074 1.074 0 0 0-1.153.177 2.366 2.366 0 0 0-.82 1.874c0 .198.026.396.075.589.124.462.316.904.568 1.311.182.312.381.614.595.905a9.137 9.137 0 0 0 2.58 2.388 7.773 7.773 0 0 0 1.608.765 3.565 3.565 0 0 0 1.872.294 2.249 2.249 0 0 0 1.694-1.258c.093-.2.12-.425.08-.642-.096-.444-.691-.707-1.056-.92Z" clip-rule="evenodd"/></svg>