<svg width="36" height="36" viewBox="0 0 36 36" fill="none" xmlns="http://www.w3.org/2000/svg">
<g clip-path="url(#clip0_1222_23843)">
<path fill-rule="evenodd" clip-rule="evenodd" d="M10.7441 10.7438C10.9004 10.5875 11.1124 10.4997 11.3334 10.4997H18.8334C19.0544 10.4997 19.2663 10.5875 19.4226 10.7438C19.5789 10.9 19.6667 11.112 19.6667 11.333V12.1663C19.6667 12.6266 20.0398 12.9997 20.5 12.9997C20.9603 12.9997 21.3334 12.6266 21.3334 12.1663V11.333C21.3334 10.67 21.07 10.0341 20.6011 9.56524C20.1323 9.0964 19.4964 8.83301 18.8334 8.83301H11.3334C10.6703 8.83301 10.0344 9.0964 9.56561 9.56524C9.09677 10.0341 8.83337 10.67 8.83337 11.333V18.833C8.83337 19.496 9.09677 20.1319 9.56561 20.6008C10.0344 21.0696 10.6703 21.333 11.3334 21.333H12.1667C12.6269 21.333 13 20.9599 13 20.4997C13 20.0394 12.6269 19.6663 12.1667 19.6663H11.3334C11.1124 19.6663 10.9004 19.5785 10.7441 19.4223C10.5878 19.266 10.5 19.054 10.5 18.833V11.333C10.5 11.112 10.5878 10.9 10.7441 10.7438ZM16.3334 17.1663C16.3334 16.7061 16.7065 16.333 17.1667 16.333H24.6667C25.1269 16.333 25.5 16.7061 25.5 17.1663V24.6663C25.5 25.1266 25.1269 25.4997 24.6667 25.4997H17.1667C16.7065 25.4997 16.3334 25.1266 16.3334 24.6663V17.1663ZM17.1667 14.6663C15.786 14.6663 14.6667 15.7856 14.6667 17.1663V24.6663C14.6667 26.0471 15.786 27.1663 17.1667 27.1663H24.6667C26.0474 27.1663 27.1667 26.0471 27.1667 24.6663V17.1663C27.1667 15.7856 26.0474 14.6663 24.6667 14.6663H17.1667Z" fill="#22221E"/>
</g>
<defs>
<clipPath id="clip0_1222_23843">
<rect width="20" height="20" fill="white" transform="translate(8 8)"/>
</clipPath>
</defs>
</svg>
