<svg width="33" height="32" fill="none" xmlns="http://www.w3.org/2000/svg"><path d="m28.014 20.93-.82-2.45c-.803-2.401-4.474-4.408-6.44-5.81a1.838 1.838 0 0 1-.532-2.38l3.341-6.361c.231-.44-.336-.87-.69-.523l-.01.01-.582.581a1.42 1.42 0 0 1-2.007 0l-.582-.581a1.42 1.42 0 0 0-2.007 0l-.582.581a1.42 1.42 0 0 1-2.007 0l-.581-.581a1.42 1.42 0 0 0-2.007 0l-.582.581a1.42 1.42 0 0 1-2.007 0l-.582-.581-.01-.01c-.354-.348-.922.083-.691.523l3.34 6.36a1.853 1.853 0 0 1-.554 2.396l-.018.013c-1.946 1.4-5.6 3.397-6.398 5.783l-.82 2.449a6.11 6.11 0 0 0-.32 1.953C3.865 26.137 6.5 29 9.997 29h12.205c4.184 0 7.138-4.102 5.81-8.07Z" fill="url(#a)"/><path d="M3.865 22.882C3.865 26.138 6.501 29 9.998 29h12.204c4.144 0 7.08-4.022 5.849-7.953H4.15a6.104 6.104 0 0 0-.286 1.835Z" fill="url(#b)"/><path d="m28.013 20.93-.82-2.45c-.803-2.401-4.474-4.408-6.439-5.81a1.818 1.818 0 0 1-.76-1.508h-7.792c.002.384-.116.76-.336 1.075l14.817 14.816c1.455-1.564 2.086-3.865 1.33-6.123Z" fill="url(#c)"/><path d="m16.1 11.293 4.935-6.902a1.412 1.412 0 0 1-.761-.394l-.582-.581a1.42 1.42 0 0 0-2.007 0l-.581.581a1.42 1.42 0 0 1-2.008 0l-.581-.581a1.42 1.42 0 0 0-2.007 0l-.582.581a1.41 1.41 0 0 1-.762.394l4.936 6.902Z" fill="url(#d)"/><path d="m16.1 11.293 2.62-8.292c-.374-.008-.75.13-1.035.415l-.581.581a1.42 1.42 0 0 1-2.007 0l-.582-.581A1.414 1.414 0 0 0 13.48 3l2.619 8.292Z" fill="url(#e)"/><path d="M28.031 24.771c-.787 2.399-3.033 4.23-5.828 4.23h-7.505l-2.988-2.99 2.74-2.74 1.035 1.034c.34.34.89.34 1.23 0l2.069-2.068a.87.87 0 0 0 0-1.231l-1.034-1.034 2.74-2.741 7.541 7.54Z" fill="url(#f)"/><path d="M20.49 17.23a6.21 6.21 0 1 0-8.78 8.782 6.21 6.21 0 0 0 8.78-8.781Zm-6.178 4.801a.58.58 0 0 1 0-.82l1.378-1.378a.58.58 0 0 1 .82 0l1.378 1.378a.58.58 0 0 1 0 .82L16.51 23.41a.58.58 0 0 1-.82 0l-1.378-1.378Z" fill="url(#g)"/><path d="M19.7 18.022A5.09 5.09 0 1 0 12.5 25.22a5.09 5.09 0 0 0 7.198-7.198Zm-1.812 3.189a.58.58 0 0 1 0 .82L16.51 23.41a.58.58 0 0 1-.82 0l-1.378-1.378a.58.58 0 0 1 0-.82l1.378-1.378a.58.58 0 0 1 .82 0l1.378 1.378Z" fill="url(#h)"/><path d="m15.485 18.938-2.068 2.068a.87.87 0 0 0 0 1.23l2.068 2.069a.87.87 0 0 0 1.23 0l2.069-2.068a.87.87 0 0 0 0-1.231l-2.068-2.068a.87.87 0 0 0-1.232 0Zm2.403 2.273a.58.58 0 0 1 0 .82L16.51 23.41a.58.58 0 0 1-.82 0l-1.378-1.378a.58.58 0 0 1 0-.82l1.378-1.378a.58.58 0 0 1 .82 0l1.378 1.378Z" fill="url(#i)"/><path d="M17.655 21.855v.74c0 .32-.26.58-.58.58h-1.95a.58.58 0 0 1-.58-.58v-.74H9.897a6.21 6.21 0 0 0 12.408 0h-4.65Z" fill="url(#j)"/><path d="M11.977 10.29c.167.307.244.655.22 1.004h7.8c-.02-.35.057-.697.225-1.004l2.376-4.523H9.601l2.376 4.523Z" fill="url(#k)"/><path d="M22.81 17.171a.417.417 0 0 0 .18-.793l-1.654-.787a1.017 1.017 0 0 1-.545-.641 1.017 1.017 0 0 1 .114-.834c.45-.72.354-1.654-.23-2.27l-.232-.244a.417.417 0 1 0-.605.574l.232.244a1.03 1.03 0 0 1 .128 1.255 1.866 1.866 0 0 0 .78 2.668l1.654.788c.055.026.117.04.178.04Z" fill="url(#l)"/><path d="m20.049 11.272-.009.336a1.864 1.864 0 0 1-1.441 1.768c-.29.067-.528.247-.67.508a.96.96 0 0 0-.081.242.417.417 0 1 1-.813-.177c.038-.17.092-.338.162-.465.255-.465.697-.8 1.213-.92a1.03 1.03 0 0 0 .797-.977l.01-.337a.416.416 0 1 1 .832.022Z" fill="url(#m)"/><path d="M21.005 10.325a.382.382 0 0 0-.382-.383h-9.046a.382.382 0 0 0 0 .765h9.046a.382.382 0 0 0 .382-.382Z" fill="url(#n)"/><path d="M21.005 11.09a.382.382 0 0 0-.382-.383h-9.046a.382.382 0 0 0 0 .765h9.046a.382.382 0 0 0 .382-.383Z" fill="url(#o)"/><path d="M21.005 11.854a.382.382 0 0 0-.382-.382h-9.046a.382.382 0 0 0 0 .765h9.046a.382.382 0 0 0 .382-.383Z" fill="url(#p)"/><defs><linearGradient id="i" x1="14.559" y1="21.62" x2="17.432" y2="21.62" gradientUnits="userSpaceOnUse"><stop stop-color="#FEE45A"/><stop offset="1" stop-color="#FEA613"/></linearGradient><linearGradient id="a" x1="10.259" y1="13.502" x2="20.948" y2="18.458" gradientUnits="userSpaceOnUse"><stop stop-color="#FD4755"/><stop offset="1" stop-color="#A72B2B"/></linearGradient><linearGradient id="c" x1="20.1" y1="20.282" x2="20.1" y2="9.106" gradientUnits="userSpaceOnUse"><stop stop-color="#A72B2B" stop-opacity="0"/><stop offset="1" stop-color="#42210B"/></linearGradient><linearGradient id="d" x1="16.006" y1="4.167" x2="18.827" y2="10.896" gradientUnits="userSpaceOnUse"><stop stop-color="#A72B2B" stop-opacity="0"/><stop offset="1" stop-color="#42210B"/></linearGradient><linearGradient id="e" x1="15.818" y1="4.221" x2="18.979" y2="10.033" gradientUnits="userSpaceOnUse"><stop stop-color="#A72B2B" stop-opacity="0"/><stop offset="1" stop-color="#42210B"/></linearGradient><linearGradient id="f" x1="24.097" y1="29.619" x2="16.895" y2="22.416" gradientUnits="userSpaceOnUse"><stop stop-color="#A72B2B" stop-opacity="0"/><stop offset="1" stop-color="#42210B"/></linearGradient><linearGradient id="g" x1="11.239" y1="21.62" x2="22.54" y2="21.62" gradientUnits="userSpaceOnUse"><stop stop-color="#FEE45A"/><stop offset="1" stop-color="#FEA613"/></linearGradient><linearGradient id="h" x1="21.208" y1="21.62" x2="10.47" y2="21.62" gradientUnits="userSpaceOnUse"><stop stop-color="#FEE45A"/><stop offset="1" stop-color="#FEA613"/></linearGradient><linearGradient id="b" x1="16.1" y1="25.125" x2="16.1" y2="29.23" gradientUnits="userSpaceOnUse"><stop stop-color="#A72B2B" stop-opacity="0"/><stop offset="1" stop-color="#42210B"/></linearGradient><linearGradient id="j" x1="16.1" y1="23.442" x2="16.1" y2="28.831" gradientUnits="userSpaceOnUse"><stop stop-color="#FEA613" stop-opacity="0"/><stop offset="1" stop-color="#E94444"/></linearGradient><linearGradient id="k" x1="16.1" y1="7.793" x2="16.1" y2="10.376" gradientUnits="userSpaceOnUse"><stop stop-color="#A72B2B" stop-opacity="0"/><stop offset="1" stop-color="#42210B"/></linearGradient><linearGradient id="l" x1="19.007" y1="12.345" x2="21.421" y2="14.759" gradientUnits="userSpaceOnUse"><stop stop-color="#FEE45A"/><stop offset="1" stop-color="#FEA613"/></linearGradient><linearGradient id="m" x1="18.084" y1="12.198" x2="18.658" y2="12.771" gradientUnits="userSpaceOnUse"><stop stop-color="#FEE45A"/><stop offset="1" stop-color="#FEA613"/></linearGradient><linearGradient id="n" x1="16.1" y1="9.942" x2="16.1" y2="10.707" gradientUnits="userSpaceOnUse"><stop stop-color="#FEE45A"/><stop offset="1" stop-color="#FEA613"/></linearGradient><linearGradient id="o" x1="16.1" y1="10.707" x2="16.1" y2="11.472" gradientUnits="userSpaceOnUse"><stop stop-color="#FEE45A"/><stop offset="1" stop-color="#FEA613"/></linearGradient><linearGradient id="p" x1="16.1" y1="11.472" x2="16.1" y2="12.237" gradientUnits="userSpaceOnUse"><stop stop-color="#FEE45A"/><stop offset="1" stop-color="#FEA613"/></linearGradient></defs></svg>