<svg width="33" height="32" fill="none" xmlns="http://www.w3.org/2000/svg"><path d="M22.94 8.622h-1.233c0-1.926-2.157-3.492-4.807-3.492-2.65 0-4.807 1.566-4.807 3.492h-1.232c0-1.295.65-2.501 1.832-3.397 1.13-.856 2.625-1.328 4.207-1.328 1.582 0 3.076.472 4.207 1.328 1.181.896 1.832 2.102 1.832 3.397Z" fill="url(#a)"/><path d="M21.107 5.225a6.39 6.39 0 0 0-1.964-.994v1.303c1.523.586 2.564 1.75 2.564 3.087h1.232c0-1.295-.65-2.5-1.832-3.396Z" fill="url(#b)"/><path d="m13.05 7.876-.17-.068a2.694 2.694 0 0 0-1.984 0l-.17.068a.787.787 0 0 0-.498.732v1.701c0 .435.353.788.787.788h1.746a.787.787 0 0 0 .787-.787V8.607a.788.788 0 0 0-.498-.732Z" fill="url(#c)"/><path d="m23.075 7.876-.17-.068a2.694 2.694 0 0 0-1.985 0l-.17.068a.787.787 0 0 0-.498.732v1.701c0 .435.353.788.788.788h1.745a.787.787 0 0 0 .787-.787V8.607a.787.787 0 0 0-.497-.732Z" fill="url(#d)"/><path d="M9.93 28.572H8.85a.61.61 0 0 1-.61-.61v-.968h2.3v.967a.61.61 0 0 1-.61.61Z" fill="url(#e)"/><path d="M24.95 28.572h-1.08a.61.61 0 0 1-.61-.61v-.968h2.3v.967a.61.61 0 0 1-.61.61Z" fill="url(#f)"/><path d="M26.335 27.832H7.465a2.68 2.68 0 0 1-2.68-2.68V12.469c0-1.48 1.2-2.68 2.68-2.68h18.87c1.48 0 2.681 1.2 2.681 2.68v12.683c0 1.48-1.2 2.68-2.68 2.68Z" fill="url(#g)"/><path d="M29.016 18.1a3.578 3.578 0 0 1-2.53 1.047H5.294l8.685 8.685h12.356c1.48 0 2.68-1.2 2.68-2.68v-7.053Z" fill="url(#h)"/><path d="m27.241 19.638-9.426.818c-.609.053-1.221.053-1.83 0l-9.426-.818a2.441 2.441 0 0 1-2.23-2.432v-5.655c0-1.48 1.2-2.68 2.68-2.68h19.782c1.48 0 2.68 1.2 2.68 2.68v5.655a2.441 2.441 0 0 1-2.23 2.432Z" fill="url(#i)"/><path d="M4.329 13.235v3.972c0 1.266.968 2.322 2.23 2.432l9.426.817c.609.053 1.221.053 1.83 0l9.426-.817a2.441 2.441 0 0 0 2.23-2.432v-3.972H4.33Z" fill="url(#j)"/><path d="M4.784 21.62v3.531c0 1.481 1.2 2.681 2.68 2.681h18.871c1.48 0 2.68-1.2 2.68-2.68V21.62H4.786Z" fill="url(#k)"/><path d="M29.016 21.322v3.83c0 .712-.279 1.36-.733 1.841l-5.53-5.53a.616.616 0 0 1-.356-.56v-.57a.784.784 0 0 1-.255-.579v-1.702c0-.434.352-.786.787-.786h1.745c.294 0 .55.16.685.4l3.657 3.656Z" fill="url(#l)"/><path d="M21.82 27.832h-6.403l-6.369-6.369a.616.616 0 0 1-.356-.56v-.57a.784.784 0 0 1-.255-.579v-1.702c0-.434.352-.786.787-.786h1.745c.294 0 .55.16.685.4l10.167 10.166Z" fill="url(#m)"/><path d="M10.835 21.472H9.26a.617.617 0 0 1-.618-.617v-1.01h2.81v1.01a.618.618 0 0 1-.617.617Z" fill="url(#n)"/><path d="m11.21 20.436-.17.068a2.694 2.694 0 0 1-1.985 0l-.17-.068a.788.788 0 0 1-.497-.731v-1.702c0-.435.352-.787.787-.787h1.745c.435 0 .787.352.787.787v1.702a.787.787 0 0 1-.497.732Z" fill="url(#o)"/><path d="M24.54 21.472h-1.575a.617.617 0 0 1-.617-.617v-1.01h2.81v1.01a.618.618 0 0 1-.618.617Z" fill="url(#p)"/><path d="m24.915 20.436-.17.068a2.694 2.694 0 0 1-1.984 0l-.17-.068a.788.788 0 0 1-.498-.731v-1.702c0-.435.352-.787.787-.787h1.745c.435 0 .787.352.787.787v1.702a.787.787 0 0 1-.497.732Z" fill="url(#q)"/><path d="M25.225 19.813c-3.17-3.197-5.797-5.85-5.813-5.875a.4.4 0 0 0-.334-.18H14.82a.401.401 0 0 0-.4.401v.67a.4.4 0 0 0 .117.284l5.215 5.175 5.472-.475Z" fill="url(#r)"/><path d="M19.028 15.155h-4.256a.4.4 0 0 1-.401-.4v-.671a.4.4 0 0 1 .4-.4h4.257a.4.4 0 0 1 .401.4v.67a.401.401 0 0 1-.4.401Z" fill="url(#s)"/><path d="M19.926 6.504c-2.004-.866-4.05-.865-6.051 0a.688.688 0 0 1-.872-.29l-.527-.922a.688.688 0 0 1 .322-.97c2.682-1.19 5.522-1.191 8.204 0a.688.688 0 0 1 .322.97l-.527.923a.688.688 0 0 1-.871.289Z" fill="url(#t)"/><defs><linearGradient id="k" x1="16.9" y1="24.874" x2="16.9" y2="27.901" gradientUnits="userSpaceOnUse"><stop stop-color="#883F2E" stop-opacity="0"/><stop offset="1" stop-color="#6D3326"/></linearGradient><linearGradient id="a" x1="16.9" y1="3.897" x2="16.9" y2="8.622" gradientUnits="userSpaceOnUse"><stop stop-color="#E6EEFF"/><stop offset="1" stop-color="#BAC8FA"/></linearGradient><linearGradient id="c" x1="11.888" y1="8.129" x2="11.888" y2="9.15" gradientUnits="userSpaceOnUse"><stop stop-color="#FEE45A"/><stop offset="1" stop-color="#FEA613"/></linearGradient><linearGradient id="d" x1="21.912" y1="8.129" x2="21.912" y2="9.15" gradientUnits="userSpaceOnUse"><stop stop-color="#FEE45A"/><stop offset="1" stop-color="#FEA613"/></linearGradient><linearGradient id="e" x1="9.39" y1="27.619" x2="9.39" y2="28.375" gradientUnits="userSpaceOnUse"><stop stop-color="#5A5A5A"/><stop offset="1" stop-color="#444"/></linearGradient><linearGradient id="f" x1="24.41" y1="27.619" x2="24.41" y2="28.375" gradientUnits="userSpaceOnUse"><stop stop-color="#5A5A5A"/><stop offset="1" stop-color="#444"/></linearGradient><linearGradient id="g" x1="13.294" y1="14.146" x2="24.041" y2="28.048" gradientUnits="userSpaceOnUse"><stop stop-color="#C86D36"/><stop offset="1" stop-color="#883F2E"/></linearGradient><linearGradient id="h" x1="17.155" y1="25.244" x2="17.155" y2="20.036" gradientUnits="userSpaceOnUse"><stop stop-color="#883F2E" stop-opacity="0"/><stop offset="1" stop-color="#6D3326"/></linearGradient><linearGradient id="i" x1="11.899" y1="11.295" x2="24.323" y2="18.788" gradientUnits="userSpaceOnUse"><stop stop-color="#C86D36"/><stop offset="1" stop-color="#883F2E"/></linearGradient><linearGradient id="j" x1="16.9" y1="15.458" x2="16.9" y2="21.377" gradientUnits="userSpaceOnUse"><stop stop-color="#883F2E" stop-opacity="0"/><stop offset="1" stop-color="#6D3326"/></linearGradient><linearGradient id="b" x1="22.218" y1="7.647" x2="21.084" y2="6.612" gradientUnits="userSpaceOnUse"><stop stop-color="#A7B7F1" stop-opacity="0"/><stop offset="1" stop-color="#A7B7F1"/></linearGradient><linearGradient id="l" x1="29.992" y1="23.854" x2="24.323" y2="20.995" gradientUnits="userSpaceOnUse"><stop stop-color="#883F2E" stop-opacity="0"/><stop offset="1" stop-color="#6D3326"/></linearGradient><linearGradient id="m" x1="15.39" y1="23.974" x2="7.207" y2="18.354" gradientUnits="userSpaceOnUse"><stop stop-color="#883F2E" stop-opacity="0"/><stop offset="1" stop-color="#6D3326"/></linearGradient><linearGradient id="n" x1="10.047" y1="20.618" x2="10.047" y2="21.374" gradientUnits="userSpaceOnUse"><stop stop-color="#FEE45A"/><stop offset="1" stop-color="#FEA613"/></linearGradient><linearGradient id="o" x1="9.652" y1="18.035" x2="10.556" y2="19.908" gradientUnits="userSpaceOnUse"><stop stop-color="#FEE45A"/><stop offset="1" stop-color="#FEA613"/></linearGradient><linearGradient id="p" x1="23.753" y1="20.618" x2="23.753" y2="21.374" gradientUnits="userSpaceOnUse"><stop stop-color="#FEE45A"/><stop offset="1" stop-color="#FEA613"/></linearGradient><linearGradient id="q" x1="23.358" y1="18.035" x2="24.262" y2="19.908" gradientUnits="userSpaceOnUse"><stop stop-color="#FEE45A"/><stop offset="1" stop-color="#FEA613"/></linearGradient><linearGradient id="r" x1="21.193" y1="19.594" x2="17.199" y2="13.136" gradientUnits="userSpaceOnUse"><stop stop-color="#883F2E" stop-opacity="0"/><stop offset="1" stop-color="#6D3326"/></linearGradient><linearGradient id="s" x1="16.9" y1="14.042" x2="16.9" y2="15.067" gradientUnits="userSpaceOnUse"><stop stop-color="#E6EEFF"/><stop offset="1" stop-color="#BAC8FA"/></linearGradient><linearGradient id="t" x1="16.9" y1="3.888" x2="16.9" y2="4.807" gradientUnits="userSpaceOnUse"><stop stop-color="#5A5A5A"/><stop offset="1" stop-color="#444"/></linearGradient></defs></svg>