<svg width="33" height="32" fill="none" xmlns="http://www.w3.org/2000/svg"><path d="M4.129 15.014c0-.87.603-1.599 1.415-1.79a.347.347 0 0 1 .424.339v2.901c0 .223-.208.39-.424.34a1.84 1.84 0 0 1-1.415-1.79Z" fill="url(#a)"/><path d="M17.426 15.014a1.84 1.84 0 0 0-1.415-1.79.347.347 0 0 0-.424.339v2.901c0 .223.207.39.424.34a1.84 1.84 0 0 0 1.415-1.79Z" fill="url(#b)"/><path d="M17.426 15.014a1.84 1.84 0 0 0-1.415-1.79.347.347 0 0 0-.424.339v2.901c0 .223.207.39.424.34a1.84 1.84 0 0 0 1.415-1.79Z" fill="url(#c)"/><path d="M24.01 19.332H12.011v3.418h4.337a5.19 5.19 0 0 0-.314 1.783v1.726h12.56a.618.618 0 0 0 .618-.619v-1.107a5.201 5.201 0 0 0-5.201-5.201Z" fill="url(#d)"/><path d="M17.366 26.259H27.88v-5.202a5.188 5.188 0 0 0-3.869-1.725h-2.775a5.188 5.188 0 0 0-3.869 1.725v5.202Z" fill="url(#e)"/><path d="M16.034 21.057v5.202h5.202l-5.202-5.202Z" fill="url(#f)"/><path d="M26.108 26.259h2.485a.618.618 0 0 0 .619-.619v-1.107a5.201 5.201 0 0 0-5.202-5.201h-2.775c-.615 0-1.204.107-1.751.302l6.624 6.625Z" fill="url(#g)"/><path d="M16.073 15.014c0-.87.604-1.599 1.415-1.79a.347.347 0 0 1 .424.339v2.901c0 .223-.207.39-.424.34a1.84 1.84 0 0 1-1.415-1.79Z" fill="url(#h)"/><path d="M29.271 15.014a1.84 1.84 0 0 0-1.415-1.79.347.347 0 0 0-.424.339v2.901c0 .223.208.39.425.34a1.84 1.84 0 0 0 1.415-1.79Z" fill="url(#i)"/><path d="M29.271 15.014a1.84 1.84 0 0 0-1.415-1.79.347.347 0 0 0-.424.339v2.901c0 .223.208.39.425.34a1.84 1.84 0 0 0 1.415-1.79Z" fill="url(#j)"/><path d="M22.622 20.755c2.92 0 5.288-2.57 5.288-5.741s-2.367-5.742-5.288-5.742c-2.92 0-5.287 2.57-5.287 5.742 0 3.17 2.367 5.741 5.287 5.741Z" fill="url(#k)"/><path d="M29.082 10.958c0-.38-.158-.72-.412-.963a.743.743 0 0 1-.188-.78 1.774 1.774 0 0 0-1.623-2.355.762.762 0 0 1-.633-.372 1.33 1.33 0 0 0-1.833-.445.733.733 0 0 1-.79-.005 1.759 1.759 0 0 0-.98-.297c-.363 0-.7.11-.98.297a.733.733 0 0 1-.79.005 1.33 1.33 0 0 0-1.833.445.763.763 0 0 1-.633.371 1.773 1.773 0 0 0-1.623 2.355.744.744 0 0 1-.189.78 1.33 1.33 0 0 0 .158 2.055c.379.265.602.698.602 1.16v1.804c0-1.767.48-3.251 5.288-3.251s5.287 1.484 5.287 3.251V13.21c0-.462.224-.895.602-1.16.345-.24.57-.64.57-1.091Z" fill="url(#l)"/><path d="M20.265 15.985a.773.773 0 0 1-.774-.773v-.397a.773.773 0 1 1 1.547 0v.397a.773.773 0 0 1-.773.773Z" fill="url(#m)"/><path d="M24.981 15.985a.773.773 0 0 1-.773-.773v-.397a.773.773 0 1 1 1.546 0v.397a.773.773 0 0 1-.773.773Z" fill="url(#n)"/><path d="M17.366 26.259H4.806a.618.618 0 0 1-.618-.619v-1.107a5.201 5.201 0 0 1 5.202-5.201h2.775a5.201 5.201 0 0 1 5.201 5.201v1.726Z" fill="url(#o)"/><path d="M17.366 24.533v1.726H8.712L4.76 22.307v-.147c.185-.36.41-.696.672-1a5.188 5.188 0 0 1 3.957-1.828h2.776a5.2 5.2 0 0 1 5.201 5.201Z" fill="url(#p)"/><path d="M5.52 26.259h10.514v-5.202a5.188 5.188 0 0 0-3.869-1.725H9.39a5.188 5.188 0 0 0-3.87 1.725v5.202Z" fill="url(#q)"/><path d="M7.125 21.889a2.196 2.196 0 0 1-2.02.594c-.597-.13-.803-.88-.372-1.312l1.674-1.674c.432-.431 1.183-.225 1.312.372a2.196 2.196 0 0 1-.594 2.02Z" fill="url(#r)"/><path d="M14.263 26.259h3.103v-1.726a5.201 5.201 0 0 0-5.201-5.201H9.39c-.615 0-1.204.107-1.752.302l6.625 6.625Z" fill="url(#s)"/><path d="M10.777 20.755c2.92 0 5.287-2.57 5.287-5.741s-2.367-5.742-5.287-5.742-5.287 2.57-5.287 5.742c0 3.17 2.367 5.741 5.287 5.741Z" fill="url(#t)"/><path d="M8.419 15.985a.773.773 0 0 1-.773-.773v-.397a.773.773 0 1 1 1.546 0v.397a.773.773 0 0 1-.773.773Z" fill="url(#u)"/><path d="M13.135 15.985a.773.773 0 0 1-.773-.773v-.397a.773.773 0 1 1 1.546 0v.397a.773.773 0 0 1-.773.773Z" fill="url(#v)"/><path d="M16.957 12.296c-.766 1.744-3.629 2.174-6.394.96-2.765-1.215-4.386-3.613-3.62-5.358.766-1.744 3.629-2.173 6.394-.96 2.765 1.215 4.386 3.614 3.62 5.358Z" fill="url(#w)"/><path d="M6.264 14.072c1.18 0 2.135-1.249 2.135-2.789s-.956-2.788-2.135-2.788c-1.18 0-2.135 1.248-2.135 2.788 0 1.54.956 2.789 2.135 2.789Z" fill="url(#x)"/><defs><linearGradient id="m" x1="19.491" y1="15.013" x2="21.038" y2="15.013" gradientUnits="userSpaceOnUse"><stop stop-color="#7A6D79"/><stop offset="1" stop-color="#554E56"/></linearGradient><linearGradient id="a" x1="4.67" y1="14.219" x2="6.149" y2="15.698" gradientUnits="userSpaceOnUse"><stop stop-color="#FFDFCF"/><stop offset="1" stop-color="#FFA78F"/></linearGradient><linearGradient id="c" x1="16.589" y1="15.014" x2="15.355" y2="15.014" gradientUnits="userSpaceOnUse"><stop stop-color="#CA6E59" stop-opacity="0"/><stop offset="1" stop-color="#883F2E"/></linearGradient><linearGradient id="d" x1="18.927" y1="18.443" x2="22.948" y2="29.778" gradientUnits="userSpaceOnUse"><stop stop-color="#BF5CFC"/><stop offset=".159" stop-color="#BC5AF9"/><stop offset=".365" stop-color="#B453F0"/><stop offset=".598" stop-color="#A748E2"/><stop offset=".847" stop-color="#9538CF"/><stop offset="1" stop-color="#882DC1"/></linearGradient><linearGradient id="e" x1="22.623" y1="23.373" x2="22.623" y2="29.817" gradientUnits="userSpaceOnUse"><stop stop-color="#882DC1" stop-opacity="0"/><stop offset=".607" stop-color="#6D2D94" stop-opacity=".607"/><stop offset="1" stop-color="#5E2D7C"/></linearGradient><linearGradient id="f" x1="19.231" y1="24.252" x2="14.186" y2="23.315" gradientUnits="userSpaceOnUse"><stop stop-color="#882DC1" stop-opacity="0"/><stop offset=".607" stop-color="#6D2D94" stop-opacity=".607"/><stop offset="1" stop-color="#5E2D7C"/></linearGradient><linearGradient id="g" x1="24.348" y1="25.108" x2="24.348" y2="16.221" gradientUnits="userSpaceOnUse"><stop stop-color="#882DC1" stop-opacity="0"/><stop offset=".607" stop-color="#6D2D94" stop-opacity=".607"/><stop offset="1" stop-color="#5E2D7C"/></linearGradient><linearGradient id="h" x1="16.614" y1="14.219" x2="18.093" y2="15.698" gradientUnits="userSpaceOnUse"><stop stop-color="#F1B0A2"/><stop offset="1" stop-color="#CA6E59"/></linearGradient><linearGradient id="i" x1="26.859" y1="13.938" x2="28.929" y2="16.008" gradientUnits="userSpaceOnUse"><stop stop-color="#F1B0A2"/><stop offset="1" stop-color="#CA6E59"/></linearGradient><linearGradient id="j" x1="28.968" y1="15.014" x2="27.561" y2="15.014" gradientUnits="userSpaceOnUse"><stop stop-color="#CA6E59" stop-opacity="0"/><stop offset="1" stop-color="#883F2E"/></linearGradient><linearGradient id="k" x1="19.736" y1="12.127" x2="26.866" y2="19.257" gradientUnits="userSpaceOnUse"><stop stop-color="#F8D9D3"/><stop offset="1" stop-color="#E0AB9E"/></linearGradient><linearGradient id="l" x1="20.066" y1="7.305" x2="24.126" y2="13.261" gradientUnits="userSpaceOnUse"><stop stop-color="#7A6D79"/><stop offset="1" stop-color="#554E56"/></linearGradient><linearGradient id="b" x1="15.014" y1="13.938" x2="17.083" y2="16.008" gradientUnits="userSpaceOnUse"><stop stop-color="#FFDFCF"/><stop offset="1" stop-color="#FFA78F"/></linearGradient><linearGradient id="n" x1="24.208" y1="15.013" x2="25.754" y2="15.013" gradientUnits="userSpaceOnUse"><stop stop-color="#7A6D79"/><stop offset="1" stop-color="#554E56"/></linearGradient><linearGradient id="o" x1="9.219" y1="20.3" x2="12.374" y2="29.19" gradientUnits="userSpaceOnUse"><stop stop-color="#89E2FF"/><stop offset="1" stop-color="#3FA9F5"/></linearGradient><linearGradient id="p" x1="9.836" y1="21.529" x2="2.276" y2="15.301" gradientUnits="userSpaceOnUse"><stop stop-color="#2740B0" stop-opacity="0"/><stop offset=".288" stop-color="#243CA6" stop-opacity=".288"/><stop offset=".774" stop-color="#1D308C" stop-opacity=".774"/><stop offset="1" stop-color="#192A7D"/></linearGradient><linearGradient id="q" x1="10.777" y1="23.447" x2="10.777" y2="30.774" gradientUnits="userSpaceOnUse"><stop stop-color="#2740B0" stop-opacity="0"/><stop offset=".288" stop-color="#243CA6" stop-opacity=".288"/><stop offset=".774" stop-color="#1D308C" stop-opacity=".774"/><stop offset="1" stop-color="#192A7D"/></linearGradient><linearGradient id="r" x1="5.601" y1="20.365" x2="6.919" y2="21.683" gradientUnits="userSpaceOnUse"><stop stop-color="#FFDFCF"/><stop offset="1" stop-color="#FFA78F"/></linearGradient><linearGradient id="s" x1="12.887" y1="24.502" x2="11.038" y2="11.955" gradientUnits="userSpaceOnUse"><stop stop-color="#2740B0" stop-opacity="0"/><stop offset=".288" stop-color="#243CA6" stop-opacity=".288"/><stop offset=".774" stop-color="#1D308C" stop-opacity=".774"/><stop offset="1" stop-color="#192A7D"/></linearGradient><linearGradient id="t" x1="7.891" y1="12.127" x2="15.02" y2="19.257" gradientUnits="userSpaceOnUse"><stop stop-color="#FFDFCF"/><stop offset="1" stop-color="#FFA78F"/></linearGradient><linearGradient id="u" x1="7.646" y1="15.013" x2="9.192" y2="15.013" gradientUnits="userSpaceOnUse"><stop stop-color="#7A6D79"/><stop offset="1" stop-color="#554E56"/></linearGradient><linearGradient id="v" x1="12.362" y1="15.013" x2="13.909" y2="15.013" gradientUnits="userSpaceOnUse"><stop stop-color="#7A6D79"/><stop offset="1" stop-color="#554E56"/></linearGradient><linearGradient id="w" x1="11.225" y1="8.25" x2="12.967" y2="12.687" gradientUnits="userSpaceOnUse"><stop stop-color="#EEE711"/><stop offset="1" stop-color="#C87B04"/></linearGradient><linearGradient id="x" x1="5.374" y1="9.737" x2="7.247" y2="12.991" gradientUnits="userSpaceOnUse"><stop stop-color="#EEE711"/><stop offset="1" stop-color="#C87B04"/></linearGradient></defs></svg>