<svg width="33" height="32" fill="none" xmlns="http://www.w3.org/2000/svg"><path d="M7.744 18.047c.926 0 1.8-.061 2.575-.17a1.444 1.444 0 0 0 1.241-1.43c0-.72-.528-1.332-1.24-1.432a18.854 18.854 0 0 0-2.576-.169c-.925 0-1.8.061-2.574.17-.713.098-1.241.711-1.241 1.43 0 .72.528 1.332 1.24 1.432.775.108 1.65.169 2.575.169Z" fill="url(#a)"/><path d="M25.256 18.047c.925 0 1.8-.061 2.575-.17a1.444 1.444 0 0 0 1.24-1.43c0-.72-.528-1.332-1.24-1.432a18.855 18.855 0 0 0-2.575-.169c-.926 0-1.8.061-2.575.17-.713.099-1.241.711-1.241 1.43 0 .72.528 1.332 1.24 1.432.775.108 1.65.169 2.576.169Z" fill="url(#b)"/><path d="M25.256 18.047c.925 0 1.8-.061 2.575-.17a1.444 1.444 0 0 0 1.24-1.43c0-.72-.528-1.332-1.24-1.432a18.855 18.855 0 0 0-2.575-.169c-.926 0-1.8.061-2.575.17-.713.099-1.241.711-1.241 1.43 0 .72.528 1.332 1.24 1.432.775.108 1.65.169 2.576.169Z" fill="url(#c)"/><path d="M6.858 14.049h19.284v10.56H6.858v-10.56Z" fill="url(#d)"/><path d="M6.858 20.892h19.284v3.716H6.858v-3.716Z" fill="url(#e)"/><path d="M6.858 14.049h19.284v5.445H6.858V14.05Z" fill="url(#f)"/><path d="M6.858 14.049h19.284v7.371H6.858v-7.371Z" fill="url(#g)"/><path d="M6.858 14.049h19.284v4.576H6.858v-4.576Z" fill="url(#h)"/><path d="m15.638 20.496 4.112 4.112h6.392v-10.56H15.638v6.448Z" fill="url(#i)"/><path d="M6.858 14.049h7.048v10.56H6.858v-10.56Z" fill="url(#j)"/><path d="M21.811 7.347H11.19a4.33 4.33 0 0 0-4.331 4.33v2.372h19.284v-2.371a4.33 4.33 0 0 0-4.33-4.331Z" fill="url(#k)"/><path d="M25.67 9.71a4.33 4.33 0 0 0-3.859-2.363H11.19a4.33 4.33 0 0 0-3.86 2.364h18.342Z" fill="url(#l)"/><path d="M13.906 7.347h-2.718a4.33 4.33 0 0 0-4.33 4.33v2.372h7.048V7.347Z" fill="url(#m)"/><path d="M7.775 24.797h-.886a1.012 1.012 0 0 1-1.011-1.011V9.099c0-1.047.849-1.896 1.897-1.896.558 0 1.011.453 1.011 1.011v15.572c0 .559-.453 1.011-1.011 1.011Z" fill="url(#n)"/><path d="M7.775 24.797h-.886a1.012 1.012 0 0 1-1.011-1.011V9.099c0-1.047.849-1.896 1.897-1.896.558 0 1.011.453 1.011 1.011v15.572c0 .559-.453 1.011-1.011 1.011Z" fill="url(#o)"/><path d="M5.878 20.435v3.351c0 .559.453 1.011 1.011 1.011h.886c.558 0 1.011-.452 1.011-1.011v-3.35H5.878Z" fill="url(#p)"/><path d="M26.11 24.798h-.884a1.012 1.012 0 0 1-1.012-1.012V8.215c0-.559.453-1.012 1.012-1.012 1.047 0 1.896.85 1.896 1.897v14.686c0 .559-.453 1.012-1.011 1.012Z" fill="url(#q)"/><path d="M26.11 24.798h-.884a1.012 1.012 0 0 1-1.012-1.012V8.215c0-.559.453-1.012 1.012-1.012 1.047 0 1.896.85 1.896 1.897v14.686c0 .559-.453 1.012-1.011 1.012Z" fill="url(#r)"/><path d="M5.878 14.23h2.908v4.379H5.878v-4.38Z" fill="url(#s)"/><path d="M24.214 14.23h2.908v4.379h-2.908v-4.38Z" fill="url(#t)"/><path d="M24.214 20.435v3.351c0 .559.453 1.011 1.012 1.011h.885c.558 0 1.011-.452 1.011-1.011v-3.35h-2.908Z" fill="url(#u)"/><path d="M18.012 17.214c0-.875-.057-1.701-.16-2.433a1.364 1.364 0 0 0-1.352-1.173c-.68 0-1.259.5-1.353 1.173a17.81 17.81 0 0 0-.16 2.433c0 .875.058 1.701.16 2.433A1.364 1.364 0 0 0 16.5 20.82c.68 0 1.259-.5 1.353-1.173.102-.732.16-1.558.16-2.433Z" fill="url(#v)"/><path d="M18.012 17.214c0-.875-.057-1.701-.16-2.433a1.364 1.364 0 0 0-1.352-1.173c-.68 0-1.259.5-1.353 1.173a17.81 17.81 0 0 0-.16 2.433c0 .875.058 1.701.16 2.433A1.364 1.364 0 0 0 16.5 20.82c.68 0 1.259-.5 1.353-1.173.102-.732.16-1.558.16-2.433Z" fill="url(#w)"/><path d="M16.5 15.698c3.7 0 7.118-.11 9.879-.297a1.218 1.218 0 0 0 0-2.43c-2.76-.187-6.178-.298-9.88-.298-3.7 0-7.117.11-9.878.297a1.218 1.218 0 0 0 0 2.431c2.76.186 6.178.297 9.879.297Z" fill="url(#x)"/><path d="M16.05 15.697h.45c2.073 0 4.056-.034 5.886-.097V12.77a171.38 171.38 0 0 0-6.336-.097v3.023Z" fill="url(#y)"/><path d="M19.235 14.186a2.735 2.735 0 1 1-5.47 0 2.735 2.735 0 0 1 5.47 0Z" fill="url(#z)"/><path d="M18.323 14.186a1.823 1.823 0 1 1-3.646 0 1.823 1.823 0 0 1 3.646 0Z" fill="url(#A)"/><path d="M13.765 14.185a2.735 2.735 0 1 0 5.307-.931h-5.144a2.73 2.73 0 0 0-.163.931Z" fill="url(#B)"/><path d="M14.566 16.12a2.735 2.735 0 1 0 3.094-4.412l-3.637 3.637c.134.288.318.55.543.774Z" fill="url(#C)"/><path d="M17.371 13.764a.871.871 0 1 0-1.35.729c.007.204.023.397.048.574a.435.435 0 0 0 .862 0c.025-.177.041-.37.048-.574a.87.87 0 0 0 .392-.729Z" fill="url(#D)"/><path d="M16.5 3.429a.37.37 0 0 0-.369.369v.52a.37.37 0 0 0 .738 0v-.52a.369.369 0 0 0-.369-.37Z" fill="url(#E)"/><path d="M16.5 27.313a.368.368 0 0 0-.369.369v.52a.37.37 0 0 0 .738 0v-.52a.368.368 0 0 0-.369-.369Z" fill="url(#F)"/><path d="m24.867 7.11-.367.369a.368.368 0 0 0 .12.602.37.37 0 0 0 .401-.08l.368-.368a.37.37 0 0 0-.522-.522Z" fill="url(#G)"/><path d="m7.979 24-.368.368a.37.37 0 0 0 .522.522l.368-.368A.369.369 0 1 0 7.979 24Z" fill="url(#H)"/><path d="M25.021 24a.37.37 0 0 0-.521.522l.367.368a.37.37 0 0 0 .522-.522L25.021 24Z" fill="url(#I)"/><path d="M8.133 7.11a.37.37 0 0 0-.522.523L7.979 8a.369.369 0 1 0 .522-.522l-.368-.368Z" fill="url(#J)"/><path d="m21.248 5.32.196-.482a.369.369 0 0 0-.683-.278l-.197.482a.37.37 0 0 0 .684.278Z" fill="url(#K)"/><path d="M12.233 26.477a.37.37 0 0 0-.48.203l-.197.482a.37.37 0 0 0 .683.278l.197-.482a.369.369 0 0 0-.203-.48Z" fill="url(#L)"/><path d="m27.94 20.26-.482-.195a.369.369 0 0 0-.278.683l.482.196a.369.369 0 0 0 .278-.683Z" fill="url(#M)"/><path d="m5.06 11.74.482.196a.37.37 0 0 0 .278-.684l-.482-.196a.37.37 0 0 0-.278.683Z" fill="url(#N)"/><path d="m27.41 11.806.479-.202a.37.37 0 0 0 .116-.603.369.369 0 0 0-.403-.077l-.48.201a.372.372 0 0 0-.225.343.37.37 0 0 0 .512.338Z" fill="url(#O)"/><path d="m5.59 20.195-.479.202a.37.37 0 0 0 .287.68l.48-.202a.368.368 0 1 0-.287-.68Z" fill="url(#P)"/><path d="M21.375 26.623a.371.371 0 0 0-.484-.197.368.368 0 0 0-.196.484l.201.48a.372.372 0 0 0 .343.225.37.37 0 0 0 .338-.512l-.202-.48Z" fill="url(#Q)"/><path d="M12.109 5.574a.37.37 0 0 0 .197-.483l-.202-.48a.368.368 0 1 0-.68.287l.201.48a.368.368 0 0 0 .484.196Z" fill="url(#R)"/><defs><linearGradient id="w" x1="15.317" y1="19.29" x2="16.839" y2="16.619" gradientUnits="userSpaceOnUse"><stop stop-color="#FEA613" stop-opacity="0"/><stop offset=".203" stop-color="#FDA215" stop-opacity=".203"/><stop offset=".405" stop-color="#FB961B" stop-opacity=".405"/><stop offset=".607" stop-color="#F68225" stop-opacity=".607"/><stop offset=".807" stop-color="#F06633" stop-opacity=".807"/><stop offset="1" stop-color="#E94444"/></linearGradient><linearGradient id="a" x1="7.742" y1="15.92" x2="7.742" y2="18.08" gradientUnits="userSpaceOnUse"><stop stop-color="#FEF0AE"/><stop offset="1" stop-color="#FAC600"/></linearGradient><linearGradient id="c" x1="29.845" y1="16" x2="26.295" y2="16.345" gradientUnits="userSpaceOnUse"><stop stop-color="#FEA613" stop-opacity="0"/><stop offset=".203" stop-color="#FDA215" stop-opacity=".203"/><stop offset=".405" stop-color="#FB961B" stop-opacity=".405"/><stop offset=".607" stop-color="#F68225" stop-opacity=".607"/><stop offset=".807" stop-color="#F06633" stop-opacity=".807"/><stop offset="1" stop-color="#E94444"/></linearGradient><linearGradient id="d" x1="14.883" y1="14.263" x2="18.75" y2="26.376" gradientUnits="userSpaceOnUse"><stop stop-color="#A274BF"/><stop offset=".143" stop-color="#976FBB"/><stop offset=".393" stop-color="#7B61B3"/><stop offset=".716" stop-color="#4D4BA4"/><stop offset="1" stop-color="#1F3596"/></linearGradient><linearGradient id="e" x1="16.5" y1="22.103" x2="16.5" y2="24.444" gradientUnits="userSpaceOnUse"><stop stop-color="#1F3596" stop-opacity="0"/><stop offset=".263" stop-color="#1F3191" stop-opacity=".263"/><stop offset=".591" stop-color="#1D2781" stop-opacity=".591"/><stop offset=".953" stop-color="#1B1768" stop-opacity=".953"/><stop offset="1" stop-color="#1B1464"/></linearGradient><linearGradient id="f" x1="16.5" y1="17.724" x2="16.5" y2="15.346" gradientUnits="userSpaceOnUse"><stop stop-color="#1F3596" stop-opacity="0"/><stop offset=".263" stop-color="#1F3191" stop-opacity=".263"/><stop offset=".591" stop-color="#1D2781" stop-opacity=".591"/><stop offset=".953" stop-color="#1B1768" stop-opacity=".953"/><stop offset="1" stop-color="#1B1464"/></linearGradient><linearGradient id="g" x1="16.529" y1="17.846" x2="18.496" y2="25.475" gradientUnits="userSpaceOnUse"><stop stop-color="#1F3596" stop-opacity="0"/><stop offset=".263" stop-color="#1F3191" stop-opacity=".263"/><stop offset=".591" stop-color="#1D2781" stop-opacity=".591"/><stop offset=".953" stop-color="#1B1768" stop-opacity=".953"/><stop offset="1" stop-color="#1B1464"/></linearGradient><linearGradient id="h" x1="16.522" y1="16.423" x2="18.044" y2="22.324" gradientUnits="userSpaceOnUse"><stop stop-color="#1F3596" stop-opacity="0"/><stop offset=".263" stop-color="#1F3191" stop-opacity=".263"/><stop offset=".591" stop-color="#1D2781" stop-opacity=".591"/><stop offset=".953" stop-color="#1B1768" stop-opacity=".953"/><stop offset="1" stop-color="#1B1464"/></linearGradient><linearGradient id="i" x1="21.017" y1="18.47" x2="16.778" y2="16.583" gradientUnits="userSpaceOnUse"><stop stop-color="#1F3596" stop-opacity="0"/><stop offset=".263" stop-color="#1F3191" stop-opacity=".263"/><stop offset=".591" stop-color="#1D2781" stop-opacity=".591"/><stop offset=".953" stop-color="#1B1768" stop-opacity=".953"/><stop offset="1" stop-color="#1B1464"/></linearGradient><linearGradient id="j" x1="11.173" y1="19.329" x2="8.502" y2="19.329" gradientUnits="userSpaceOnUse"><stop stop-color="#1F3596" stop-opacity="0"/><stop offset=".263" stop-color="#1F3191" stop-opacity=".263"/><stop offset=".591" stop-color="#1D2781" stop-opacity=".591"/><stop offset=".953" stop-color="#1B1768" stop-opacity=".953"/><stop offset="1" stop-color="#1B1464"/></linearGradient><linearGradient id="k" x1="15.248" y1="8.186" x2="17.717" y2="16.805" gradientUnits="userSpaceOnUse"><stop stop-color="#A274BF"/><stop offset=".143" stop-color="#976FBB"/><stop offset=".393" stop-color="#7B61B3"/><stop offset=".716" stop-color="#4D4BA4"/><stop offset="1" stop-color="#1F3596"/></linearGradient><linearGradient id="l" x1="15.331" y1="6.553" x2="18.126" y2="14.1" gradientUnits="userSpaceOnUse"><stop stop-color="#1F3596" stop-opacity="0"/><stop offset=".263" stop-color="#1F3191" stop-opacity=".263"/><stop offset=".591" stop-color="#1D2781" stop-opacity=".591"/><stop offset=".953" stop-color="#1B1768" stop-opacity=".953"/><stop offset="1" stop-color="#1B1464"/></linearGradient><linearGradient id="m" x1="11.279" y1="10.871" x2="7.738" y2="11.43" gradientUnits="userSpaceOnUse"><stop stop-color="#1F3596" stop-opacity="0"/><stop offset=".263" stop-color="#1F3191" stop-opacity=".263"/><stop offset=".591" stop-color="#1D2781" stop-opacity=".591"/><stop offset=".953" stop-color="#1B1768" stop-opacity=".953"/><stop offset="1" stop-color="#1B1464"/></linearGradient><linearGradient id="n" x1="5.347" y1="14.785" x2="9.349" y2="17.235" gradientUnits="userSpaceOnUse"><stop stop-color="#FEF0AE"/><stop offset="1" stop-color="#FAC600"/></linearGradient><linearGradient id="o" x1="6.81" y1="16" x2="9.379" y2="16" gradientUnits="userSpaceOnUse"><stop stop-color="#FEA613" stop-opacity="0"/><stop offset=".203" stop-color="#FDA215" stop-opacity=".203"/><stop offset=".405" stop-color="#FB961B" stop-opacity=".405"/><stop offset=".607" stop-color="#F68225" stop-opacity=".607"/><stop offset=".807" stop-color="#F06633" stop-opacity=".807"/><stop offset="1" stop-color="#E94444"/></linearGradient><linearGradient id="p" x1="7.332" y1="22.205" x2="7.332" y2="24.925" gradientUnits="userSpaceOnUse"><stop stop-color="#FEA613" stop-opacity="0"/><stop offset=".203" stop-color="#FDA215" stop-opacity=".203"/><stop offset=".405" stop-color="#FB961B" stop-opacity=".405"/><stop offset=".607" stop-color="#F68225" stop-opacity=".607"/><stop offset=".807" stop-color="#F06633" stop-opacity=".807"/><stop offset="1" stop-color="#E94444"/></linearGradient><linearGradient id="q" x1="23.388" y1="14.799" x2="27.516" y2="17.326" gradientUnits="userSpaceOnUse"><stop stop-color="#FEF0AE"/><stop offset="1" stop-color="#FAC600"/></linearGradient><linearGradient id="r" x1="24.513" y1="16" x2="28.162" y2="16" gradientUnits="userSpaceOnUse"><stop stop-color="#FEA613" stop-opacity="0"/><stop offset=".203" stop-color="#FDA215" stop-opacity=".203"/><stop offset=".405" stop-color="#FB961B" stop-opacity=".405"/><stop offset=".607" stop-color="#F68225" stop-opacity=".607"/><stop offset=".807" stop-color="#F06633" stop-opacity=".807"/><stop offset="1" stop-color="#E94444"/></linearGradient><linearGradient id="s" x1="7.332" y1="17.63" x2="7.332" y2="14.882" gradientUnits="userSpaceOnUse"><stop stop-color="#FEA613" stop-opacity="0"/><stop offset=".203" stop-color="#FDA215" stop-opacity=".203"/><stop offset=".405" stop-color="#FB961B" stop-opacity=".405"/><stop offset=".607" stop-color="#F68225" stop-opacity=".607"/><stop offset=".807" stop-color="#F06633" stop-opacity=".807"/><stop offset="1" stop-color="#E94444"/></linearGradient><linearGradient id="t" x1="25.668" y1="17.63" x2="25.668" y2="14.882" gradientUnits="userSpaceOnUse"><stop stop-color="#FEA613" stop-opacity="0"/><stop offset=".203" stop-color="#FDA215" stop-opacity=".203"/><stop offset=".405" stop-color="#FB961B" stop-opacity=".405"/><stop offset=".607" stop-color="#F68225" stop-opacity=".607"/><stop offset=".807" stop-color="#F06633" stop-opacity=".807"/><stop offset="1" stop-color="#E94444"/></linearGradient><linearGradient id="u" x1="25.668" y1="22.205" x2="25.668" y2="24.925" gradientUnits="userSpaceOnUse"><stop stop-color="#FEA613" stop-opacity="0"/><stop offset=".203" stop-color="#FDA215" stop-opacity=".203"/><stop offset=".405" stop-color="#FB961B" stop-opacity=".405"/><stop offset=".607" stop-color="#F68225" stop-opacity=".607"/><stop offset=".807" stop-color="#F06633" stop-opacity=".807"/><stop offset="1" stop-color="#E94444"/></linearGradient><linearGradient id="v" x1="16.001" y1="17.216" x2="18.042" y2="17.216" gradientUnits="userSpaceOnUse"><stop stop-color="#FEF0AE"/><stop offset="1" stop-color="#FAC600"/></linearGradient><linearGradient id="b" x1="25.253" y1="15.92" x2="25.253" y2="18.08" gradientUnits="userSpaceOnUse"><stop stop-color="#FEF0AE"/><stop offset="1" stop-color="#FAC600"/></linearGradient><linearGradient id="x" x1="16.5" y1="12.739" x2="16.5" y2="15.957" gradientUnits="userSpaceOnUse"><stop stop-color="#FEF0AE"/><stop offset="1" stop-color="#FAC600"/></linearGradient><linearGradient id="y" x1="20.584" y1="14.186" x2="18.419" y2="14.186" gradientUnits="userSpaceOnUse"><stop stop-color="#FEA613" stop-opacity="0"/><stop offset=".203" stop-color="#FDA215" stop-opacity=".203"/><stop offset=".405" stop-color="#FB961B" stop-opacity=".405"/><stop offset=".607" stop-color="#F68225" stop-opacity=".607"/><stop offset=".807" stop-color="#F06633" stop-opacity=".807"/><stop offset="1" stop-color="#E94444"/></linearGradient><linearGradient id="z" x1="15.422" y1="13.107" x2="17.988" y2="15.674" gradientUnits="userSpaceOnUse"><stop stop-color="#FEF0AE"/><stop offset="1" stop-color="#FAC600"/></linearGradient><linearGradient id="A" x1="18.044" y1="15.73" x2="14.617" y2="12.303" gradientUnits="userSpaceOnUse"><stop stop-color="#FEF0AE"/><stop offset="1" stop-color="#FAC600"/></linearGradient><linearGradient id="B" x1="16.5" y1="14.225" x2="16.5" y2="16.746" gradientUnits="userSpaceOnUse"><stop stop-color="#FEA613" stop-opacity="0"/><stop offset=".203" stop-color="#FDA215" stop-opacity=".203"/><stop offset=".405" stop-color="#FB961B" stop-opacity=".405"/><stop offset=".607" stop-color="#F68225" stop-opacity=".607"/><stop offset=".807" stop-color="#F06633" stop-opacity=".807"/><stop offset="1" stop-color="#E94444"/></linearGradient><linearGradient id="C" x1="16.951" y1="14.637" x2="18.444" y2="16.129" gradientUnits="userSpaceOnUse"><stop stop-color="#FEA613" stop-opacity="0"/><stop offset=".203" stop-color="#FDA215" stop-opacity=".203"/><stop offset=".405" stop-color="#FB961B" stop-opacity=".405"/><stop offset=".607" stop-color="#F68225" stop-opacity=".607"/><stop offset=".807" stop-color="#F06633" stop-opacity=".807"/><stop offset="1" stop-color="#E94444"/></linearGradient><linearGradient id="D" x1="17.484" y1="14.489" x2="15.015" y2="13.65" gradientUnits="userSpaceOnUse"><stop stop-color="#537983"/><stop offset="1" stop-color="#384949"/></linearGradient><linearGradient id="E" x1="15.455" y1="3.86" x2="17.883" y2="4.319" gradientUnits="userSpaceOnUse"><stop stop-color="#C8EFFE"/><stop offset="1" stop-color="#62DBFB"/></linearGradient><linearGradient id="F" x1="15.455" y1="27.744" x2="17.883" y2="28.204" gradientUnits="userSpaceOnUse"><stop stop-color="#C8EFFE"/><stop offset="1" stop-color="#62DBFB"/></linearGradient><linearGradient id="G" x1="23.654" y1="7.312" x2="26.652" y2="7.879" gradientUnits="userSpaceOnUse"><stop stop-color="#C8EFFE"/><stop offset="1" stop-color="#62DBFB"/></linearGradient><linearGradient id="H" x1="6.765" y1="24.2" x2="9.763" y2="24.768" gradientUnits="userSpaceOnUse"><stop stop-color="#C8EFFE"/><stop offset="1" stop-color="#62DBFB"/></linearGradient><linearGradient id="I" x1="23.483" y1="24.168" x2="26.878" y2="24.811" gradientUnits="userSpaceOnUse"><stop stop-color="#C8EFFE"/><stop offset="1" stop-color="#62DBFB"/></linearGradient><linearGradient id="J" x1="6.594" y1="7.279" x2="9.99" y2="7.922" gradientUnits="userSpaceOnUse"><stop stop-color="#C8EFFE"/><stop offset="1" stop-color="#62DBFB"/></linearGradient><linearGradient id="K" x1="19.951" y1="4.741" x2="22.398" y2="5.203" gradientUnits="userSpaceOnUse"><stop stop-color="#C8EFFE"/><stop offset="1" stop-color="#62DBFB"/></linearGradient><linearGradient id="L" x1="10.943" y1="26.861" x2="13.389" y2="27.324" gradientUnits="userSpaceOnUse"><stop stop-color="#C8EFFE"/><stop offset="1" stop-color="#62DBFB"/></linearGradient><linearGradient id="M" x1="25.998" y1="20.209" x2="29.627" y2="20.895" gradientUnits="userSpaceOnUse"><stop stop-color="#C8EFFE"/><stop offset="1" stop-color="#62DBFB"/></linearGradient><linearGradient id="N" x1="3.878" y1="11.2" x2="7.507" y2="11.887" gradientUnits="userSpaceOnUse"><stop stop-color="#C8EFFE"/><stop offset="1" stop-color="#62DBFB"/></linearGradient><linearGradient id="O" x1="26.039" y1="11.087" x2="29.446" y2="11.732" gradientUnits="userSpaceOnUse"><stop stop-color="#C8EFFE"/><stop offset="1" stop-color="#62DBFB"/></linearGradient><linearGradient id="P" x1="4.028" y1="20.359" x2="7.434" y2="21.003" gradientUnits="userSpaceOnUse"><stop stop-color="#C8EFFE"/><stop offset="1" stop-color="#62DBFB"/></linearGradient><linearGradient id="Q" x1="19.852" y1="26.763" x2="22.834" y2="27.328" gradientUnits="userSpaceOnUse"><stop stop-color="#C8EFFE"/><stop offset="1" stop-color="#62DBFB"/></linearGradient><linearGradient id="R" x1="10.581" y1="4.751" x2="13.563" y2="5.315" gradientUnits="userSpaceOnUse"><stop stop-color="#C8EFFE"/><stop offset="1" stop-color="#62DBFB"/></linearGradient></defs></svg>