<svg width="33" height="32" fill="none" xmlns="http://www.w3.org/2000/svg"><path d="M16.3 28.203c6.74 0 12.203-5.463 12.203-12.203 0-6.74-5.463-12.203-12.203-12.203C9.56 3.797 4.097 9.26 4.097 16c0 6.74 5.463 12.203 12.203 12.203Z" fill="url(#a)"/><path d="M16.3 27.498c6.35 0 11.497-5.148 11.497-11.498S22.65 4.502 16.3 4.502 4.802 9.65 4.802 16 9.95 27.498 16.3 27.498Z" fill="url(#b)"/><path d="M16.3 3.797C9.56 3.797 4.097 9.26 4.097 16c0 6.74 5.463 12.203 12.203 12.203 6.74 0 12.203-5.463 12.203-12.203 0-6.74-5.463-12.203-12.203-12.203Zm0 23.7C9.95 27.498 4.802 22.35 4.802 16S9.95 4.502 16.3 4.502 27.797 9.65 27.797 16 22.65 27.498 16.3 27.498Z" fill="url(#c)"/><path d="M16.3 26.248c5.66 0 10.248-4.588 10.248-10.248 0-5.66-4.588-10.248-10.248-10.248C10.64 5.752 6.05 10.34 6.05 16c0 5.66 4.589 10.248 10.249 10.248Z" fill="url(#d)"/><path d="M16.3 25.53a9.53 9.53 0 1 0 0-19.059 9.53 9.53 0 0 0 0 19.058Z" fill="url(#e)"/><path d="M8.366 10.721a9.475 9.475 0 0 0-1.41 3.402L16.3 16l-7.934-5.279Z" fill="url(#f)"/><path d="M14.422 6.657a9.475 9.475 0 0 0-3.401 1.41L16.3 16l-1.878-9.343Z" fill="url(#g)"/><path d="m16.3 16 7.933 5.28a9.475 9.475 0 0 0 1.41-3.402L16.3 16Z" fill="url(#h)"/><path d="M6.956 17.878a9.475 9.475 0 0 0 1.41 3.402L16.3 16l-9.344 1.878Z" fill="url(#i)"/><path d="M18.177 25.344a9.478 9.478 0 0 0 3.402-1.41L16.299 16l1.878 9.344Z" fill="url(#j)"/><path d="M25.643 14.123a9.477 9.477 0 0 0-1.41-3.402l-7.933 5.28 9.343-1.878Z" fill="url(#k)"/><path d="M11.02 23.934a9.476 9.476 0 0 0 3.403 1.41L16.3 16l-5.28 7.934Z" fill="url(#l)"/><path d="M21.579 8.067a9.475 9.475 0 0 0-3.402-1.41L16.3 16l5.279-7.933Z" fill="url(#m)"/><path d="M18.177 6.657a9.574 9.574 0 0 0-3.754 0L16.3 16l1.877-9.343Z" fill="url(#n)"/><path d="M14.423 25.344a9.573 9.573 0 0 0 3.754 0L16.3 16l-1.877 9.344Z" fill="url(#o)"/><path d="M25.643 17.878a9.573 9.573 0 0 0 0-3.755L16.3 16l9.343 1.878Z" fill="url(#p)"/><path d="M6.956 14.123a9.574 9.574 0 0 0 0 3.755L16.3 16l-9.344-1.877Z" fill="url(#q)"/><path d="M24.233 10.722a9.58 9.58 0 0 0-2.654-2.655L16.299 16l7.934-5.28Z" fill="url(#r)"/><path d="M8.366 21.28a9.58 9.58 0 0 0 2.655 2.654L16.3 16l-7.934 5.28Z" fill="url(#s)"/><path d="M21.579 23.934a9.58 9.58 0 0 0 2.654-2.654L16.3 16l5.279 7.934Z" fill="url(#t)"/><path d="M11.02 8.067a9.58 9.58 0 0 0-2.654 2.655L16.3 16l-5.28-7.934Z" fill="url(#u)"/><path d="m26.811 20.665-7.484-7.485a4.138 4.138 0 1 0-5.847 5.847l7.484 7.485a11.54 11.54 0 0 0 5.847-5.847Z" fill="url(#v)"/><path d="M16.3 20.139a4.138 4.138 0 1 0 0-8.277 4.138 4.138 0 0 0 0 8.277Z" fill="url(#w)"/><path d="M16.3 19.694a3.694 3.694 0 1 0 0-7.388 3.694 3.694 0 0 0 0 7.388Z" fill="url(#x)"/><path d="M18.15 12.298a4.138 4.138 0 0 1-5.553 5.553 4.138 4.138 0 1 0 5.554-5.553Z" fill="url(#y)"/><path d="M19.098 14.229c0 1.062-1.253 1.923-2.798 1.923-1.546 0-2.798-.861-2.798-1.923s1.252-1.923 2.798-1.923c1.545 0 2.798.861 2.798 1.923Z" fill="url(#z)"/><path d="M16.3 27.966a.725.725 0 1 0 0-1.45.725.725 0 0 0 0 1.45Z" fill="url(#A)"/><path d="M16.3 27.866a.625.625 0 1 0 0-1.251.625.625 0 0 0 0 1.25Z" fill="url(#B)"/><path d="M16.3 5.485a.725.725 0 1 0 0-1.45.725.725 0 0 0 0 1.45Z" fill="url(#C)"/><path d="M16.3 5.386a.625.625 0 1 0 0-1.251.625.625 0 0 0 0 1.25Z" fill="url(#D)"/><path d="M5.06 16.725a.725.725 0 1 0 0-1.45.725.725 0 0 0 0 1.45Z" fill="url(#E)"/><path d="M5.06 16.625a.625.625 0 1 0 0-1.25.625.625 0 0 0 0 1.25Z" fill="url(#F)"/><path d="M27.54 16.725a.725.725 0 1 0 0-1.45.725.725 0 0 0 0 1.45Z" fill="url(#G)"/><path d="M27.54 16.625a.625.625 0 1 0 0-1.25.625.625 0 0 0 0 1.25Z" fill="url(#H)"/><path d="M7.84 24.46a.725.725 0 1 0 1.025-1.024.725.725 0 0 0-1.026 1.025Z" fill="url(#I)"/><path d="M8.352 24.574a.625.625 0 1 0 0-1.251.625.625 0 0 0 0 1.25Z" fill="url(#J)"/><path d="M23.735 8.565a.725.725 0 1 0 1.026-1.026.725.725 0 0 0-1.026 1.026Z" fill="url(#K)"/><path d="M23.806 8.494a.625.625 0 1 0 .884-.884.625.625 0 0 0-.884.884Z" fill="url(#L)"/><path d="M7.84 7.54a.725.725 0 1 0 1.025 1.025.725.725 0 0 0-1.026-1.026Z" fill="url(#M)"/><path d="M7.91 7.61a.625.625 0 1 0 .884.884.625.625 0 0 0-.885-.884Z" fill="url(#N)"/><path d="M23.735 23.436a.725.725 0 1 0 1.025 1.025.725.725 0 0 0-1.025-1.025Z" fill="url(#O)"/><path d="M24.248 24.574a.625.625 0 1 0 0-1.251.625.625 0 0 0 0 1.25Z" fill="url(#P)"/><path d="M12.036 27.125a.725.725 0 1 0 0-1.45.725.725 0 0 0 0 1.45Z" fill="url(#Q)"/><path d="M12.036 27.026a.625.625 0 1 0 0-1.251.625.625 0 0 0 0 1.25Z" fill="url(#R)"/><path d="M20.564 6.325a.725.725 0 1 0 0-1.45.725.725 0 0 0 0 1.45Z" fill="url(#S)"/><path d="M20.564 6.225a.625.625 0 1 0 0-1.25.625.625 0 0 0 0 1.25Z" fill="url(#T)"/><path d="M5.229 11.461a.725.725 0 1 0 1.342.55.725.725 0 0 0-1.342-.55Z" fill="url(#U)"/><path d="M5.321 11.5a.626.626 0 1 0 1.158.474.626.626 0 0 0-1.158-.475Z" fill="url(#V)"/><path d="M26.03 19.989a.725.725 0 1 0 1.34.55.725.725 0 0 0-1.34-.55Z" fill="url(#W)"/><path d="M26.121 20.027a.625.625 0 1 0 1.158.474.625.625 0 0 0-1.158-.474Z" fill="url(#X)"/><path d="M5.931 21.064a.725.725 0 1 0 0-1.45.725.725 0 0 0 0 1.45Z" fill="url(#Y)"/><path d="M5.931 20.965a.625.625 0 1 0 0-1.251.625.625 0 0 0 0 1.25Z" fill="url(#Z)"/><path d="M26.669 12.386a.725.725 0 1 0 0-1.45.725.725 0 0 0 0 1.45Z" fill="url(#aa)"/><path d="M26.669 12.287a.625.625 0 1 0 0-1.251.625.625 0 0 0 0 1.25Z" fill="url(#ab)"/><path d="M11.96 6.357a.725.725 0 1 0 0-1.45.725.725 0 0 0 0 1.45Z" fill="url(#ac)"/><path d="M11.96 6.257a.625.625 0 1 0 0-1.251.625.625 0 0 0 0 1.25Z" fill="url(#ad)"/><path d="M20.639 27.094a.725.725 0 1 0 0-1.45.725.725 0 0 0 0 1.45Z" fill="url(#ae)"/><path d="M20.639 26.994a.625.625 0 1 0 0-1.25.625.625 0 0 0 0 1.25Z" fill="url(#af)"/><path d="M16.3 27.498c6.35 0 11.497-5.148 11.497-11.498S22.65 4.502 16.3 4.502 4.802 9.65 4.802 16 9.95 27.498 16.3 27.498Z" fill="url(#ag)"/><defs><linearGradient id="D" x1="16.029" y1="4.489" x2="16.579" y2="5.039" gradientUnits="userSpaceOnUse"><stop stop-color="#FF7044"/><stop offset="1" stop-color="#F82814"/></linearGradient><linearGradient id="a" x1="7.255" y1="6.955" x2="25.204" y2="24.904" gradientUnits="userSpaceOnUse"><stop stop-color="#FFD945"/><stop offset=".304" stop-color="#FFCD3E"/><stop offset=".856" stop-color="#FFAD2B"/><stop offset="1" stop-color="#FFA325"/></linearGradient><linearGradient id="c" x1="16.503" y1="16.193" x2="31.648" y2="30.549" gradientUnits="userSpaceOnUse"><stop stop-color="#E87264" stop-opacity="0"/><stop offset="1" stop-color="#FF7044"/></linearGradient><linearGradient id="d" x1="22.938" y1="22.639" x2="8.534" y2="8.235" gradientUnits="userSpaceOnUse"><stop stop-color="#8A7889"/><stop offset="1" stop-color="#6E566E"/></linearGradient><linearGradient id="e" x1="10.127" y1="9.828" x2="23.52" y2="23.221" gradientUnits="userSpaceOnUse"><stop stop-color="#8A7889"/><stop offset="1" stop-color="#6E566E"/></linearGradient><linearGradient id="f" x1="8.261" y1="11.695" x2="21.654" y2="25.087" gradientUnits="userSpaceOnUse"><stop stop-color="#FF7044"/><stop offset="1" stop-color="#F82814"/></linearGradient><linearGradient id="g" x1="11.994" y1="7.961" x2="25.387" y2="21.354" gradientUnits="userSpaceOnUse"><stop stop-color="#8A7889"/><stop offset="1" stop-color="#6E566E"/></linearGradient><linearGradient id="h" x1="11.994" y1="7.961" x2="25.387" y2="21.354" gradientUnits="userSpaceOnUse"><stop stop-color="#00ADFB"/><stop offset="1" stop-color="#3F3CED"/></linearGradient><linearGradient id="i" x1="6.824" y1="13.131" x2="20.217" y2="26.524" gradientUnits="userSpaceOnUse"><stop stop-color="#8A7889"/><stop offset="1" stop-color="#6E566E"/></linearGradient><linearGradient id="j" x1="8.261" y1="11.695" x2="21.654" y2="25.088" gradientUnits="userSpaceOnUse"><stop stop-color="#8A7889"/><stop offset="1" stop-color="#6E566E"/></linearGradient><linearGradient id="k" x1="13.431" y1="6.525" x2="26.823" y2="19.918" gradientUnits="userSpaceOnUse"><stop stop-color="#8A7889"/><stop offset="1" stop-color="#6E566E"/></linearGradient><linearGradient id="l" x1="6.824" y1="13.131" x2="20.217" y2="26.524" gradientUnits="userSpaceOnUse"><stop stop-color="#9B62CD"/><stop offset=".3" stop-color="#985DCB"/><stop offset=".672" stop-color="#8F4EC7"/><stop offset="1" stop-color="#833AC1"/></linearGradient><linearGradient id="m" x1="13.431" y1="6.525" x2="26.823" y2="19.918" gradientUnits="userSpaceOnUse"><stop stop-color="#92F37F"/><stop offset="1" stop-color="#4AB272"/></linearGradient><linearGradient id="n" x1="12.933" y1="7.023" x2="26.326" y2="20.416" gradientUnits="userSpaceOnUse"><stop stop-color="#00ADFB"/><stop offset="1" stop-color="#3F3CED"/></linearGradient><linearGradient id="o" x1="7.322" y1="12.633" x2="20.715" y2="26.026" gradientUnits="userSpaceOnUse"><stop stop-color="#FF7044"/><stop offset="1" stop-color="#F82814"/></linearGradient><linearGradient id="p" x1="12.932" y1="7.022" x2="26.325" y2="20.415" gradientUnits="userSpaceOnUse"><stop stop-color="#9B62CD"/><stop offset=".3" stop-color="#985DCB"/><stop offset=".672" stop-color="#8F4EC7"/><stop offset="1" stop-color="#833AC1"/></linearGradient><linearGradient id="q" x1="7.322" y1="12.633" x2="20.715" y2="26.026" gradientUnits="userSpaceOnUse"><stop stop-color="#FFD945"/><stop offset=".304" stop-color="#FFCD3E"/><stop offset=".856" stop-color="#FFAD2B"/><stop offset="1" stop-color="#FFA325"/></linearGradient><linearGradient id="r" x1="13.496" y1="6.459" x2="26.889" y2="19.852" gradientUnits="userSpaceOnUse"><stop stop-color="#FFD945"/><stop offset=".304" stop-color="#FFCD3E"/><stop offset=".856" stop-color="#FFAD2B"/><stop offset="1" stop-color="#FFA325"/></linearGradient><linearGradient id="s" x1="6.758" y1="13.197" x2="20.151" y2="26.59" gradientUnits="userSpaceOnUse"><stop stop-color="#00ADFB"/><stop offset="1" stop-color="#3F3CED"/></linearGradient><linearGradient id="t" x1="10.127" y1="9.828" x2="23.52" y2="23.221" gradientUnits="userSpaceOnUse"><stop stop-color="#92F37F"/><stop offset="1" stop-color="#4AB272"/></linearGradient><linearGradient id="u" x1="10.127" y1="9.828" x2="23.52" y2="23.221" gradientUnits="userSpaceOnUse"><stop stop-color="#9B62CD"/><stop offset=".3" stop-color="#985DCB"/><stop offset=".672" stop-color="#8F4EC7"/><stop offset="1" stop-color="#833AC1"/></linearGradient><linearGradient id="v" x1="23.234" y1="22.934" x2="13.946" y2="13.647" gradientUnits="userSpaceOnUse"><stop stop-color="#6E566E" stop-opacity="0"/><stop offset="1" stop-color="#6E566E"/></linearGradient><linearGradient id="w" x1="12.162" y1="16" x2="20.438" y2="16" gradientUnits="userSpaceOnUse"><stop stop-color="#E4F2FF"/><stop offset="1" stop-color="#B2CBFF"/></linearGradient><linearGradient id="x" x1="17.019" y1="16.719" x2="12.069" y2="11.769" gradientUnits="userSpaceOnUse"><stop stop-color="#fff" stop-opacity="0"/><stop offset="1" stop-color="#fff"/></linearGradient><linearGradient id="y" x1="18.058" y1="16.155" x2="25.766" y2="9.631" gradientUnits="userSpaceOnUse"><stop stop-color="#3F3CED" stop-opacity="0"/><stop offset=".266" stop-color="#3D3DE6" stop-opacity=".266"/><stop offset=".657" stop-color="#3640D2" stop-opacity=".657"/><stop offset="1" stop-color="#2F43BB"/></linearGradient><linearGradient id="z" x1="16.3" y1="14.727" x2="16.3" y2="10.825" gradientUnits="userSpaceOnUse"><stop stop-color="#fff" stop-opacity="0"/><stop offset="1" stop-color="#fff"/></linearGradient><linearGradient id="A" x1="58.149" y1="27.649" x2="59.823" y2="25.975" gradientUnits="userSpaceOnUse"><stop stop-color="#FFD945"/><stop offset=".304" stop-color="#FFCD3E"/><stop offset=".856" stop-color="#FFAD2B"/><stop offset="1" stop-color="#FFA325"/></linearGradient><linearGradient id="B" x1="16.029" y1="26.969" x2="16.579" y2="27.519" gradientUnits="userSpaceOnUse"><stop stop-color="#FF7044"/><stop offset="1" stop-color="#F82814"/></linearGradient><linearGradient id="C" x1="58.149" y1="5.168" x2="59.823" y2="3.494" gradientUnits="userSpaceOnUse"><stop stop-color="#FFD945"/><stop offset=".304" stop-color="#FFCD3E"/><stop offset=".856" stop-color="#FFAD2B"/><stop offset="1" stop-color="#FFA325"/></linearGradient><linearGradient id="b" x1="16.891" y1="16.591" x2="7.378" y2="7.078" gradientUnits="userSpaceOnUse"><stop stop-color="#FFD945" stop-opacity="0"/><stop offset="1" stop-color="#FBED21"/></linearGradient><linearGradient id="E" x1="4.652" y1="16.408" x2="6.326" y2="14.734" gradientUnits="userSpaceOnUse"><stop stop-color="#FFD945"/><stop offset=".304" stop-color="#FFCD3E"/><stop offset=".856" stop-color="#FFAD2B"/><stop offset="1" stop-color="#FFA325"/></linearGradient><linearGradient id="F" x1="5.331" y1="15.729" x2="4.781" y2="16.279" gradientUnits="userSpaceOnUse"><stop stop-color="#FF7044"/><stop offset="1" stop-color="#F82814"/></linearGradient><linearGradient id="G" x1="27.132" y1="16.408" x2="28.806" y2="14.734" gradientUnits="userSpaceOnUse"><stop stop-color="#FFD945"/><stop offset=".304" stop-color="#FFCD3E"/><stop offset=".856" stop-color="#FFAD2B"/><stop offset="1" stop-color="#FFA325"/></linearGradient><linearGradient id="H" x1="27.811" y1="15.729" x2="27.261" y2="16.279" gradientUnits="userSpaceOnUse"><stop stop-color="#FF7044"/><stop offset="1" stop-color="#F82814"/></linearGradient><linearGradient id="I" x1="8.36" y1="24.527" x2="8.36" y2="22.16" gradientUnits="userSpaceOnUse"><stop stop-color="#FFD945"/><stop offset=".304" stop-color="#FFCD3E"/><stop offset=".856" stop-color="#FFAD2B"/><stop offset="1" stop-color="#FFA325"/></linearGradient><linearGradient id="J" x1="8.355" y1="23.565" x2="8.355" y2="24.343" gradientUnits="userSpaceOnUse"><stop stop-color="#FF7044"/><stop offset="1" stop-color="#F82814"/></linearGradient><linearGradient id="K" x1="24.256" y1="8.631" x2="24.256" y2="6.264" gradientUnits="userSpaceOnUse"><stop stop-color="#FFD945"/><stop offset=".304" stop-color="#FFCD3E"/><stop offset=".856" stop-color="#FFAD2B"/><stop offset="1" stop-color="#FFA325"/></linearGradient><linearGradient id="L" x1="24.251" y1="7.669" x2="24.251" y2="8.447" gradientUnits="userSpaceOnUse"><stop stop-color="#FF7044"/><stop offset="1" stop-color="#F82814"/></linearGradient><linearGradient id="M" x1="7.773" y1="8.064" x2="10.14" y2="8.064" gradientUnits="userSpaceOnUse"><stop stop-color="#FFD945"/><stop offset=".304" stop-color="#FFCD3E"/><stop offset=".856" stop-color="#FFAD2B"/><stop offset="1" stop-color="#FFA325"/></linearGradient><linearGradient id="N" x1="8.735" y1="8.055" x2="7.958" y2="8.055" gradientUnits="userSpaceOnUse"><stop stop-color="#FF7044"/><stop offset="1" stop-color="#F82814"/></linearGradient><linearGradient id="O" x1="23.669" y1="23.96" x2="26.036" y2="23.96" gradientUnits="userSpaceOnUse"><stop stop-color="#FFD945"/><stop offset=".304" stop-color="#FFCD3E"/><stop offset=".856" stop-color="#FFAD2B"/><stop offset="1" stop-color="#FFA325"/></linearGradient><linearGradient id="P" x1="24.631" y1="23.951" x2="23.854" y2="23.951" gradientUnits="userSpaceOnUse"><stop stop-color="#FF7044"/><stop offset="1" stop-color="#F82814"/></linearGradient><linearGradient id="Q" x1="12.285" y1="26.934" x2="11.37" y2="24.75" gradientUnits="userSpaceOnUse"><stop stop-color="#FFD945"/><stop offset=".304" stop-color="#FFCD3E"/><stop offset=".856" stop-color="#FFAD2B"/><stop offset="1" stop-color="#FFA325"/></linearGradient><linearGradient id="R" x1="11.892" y1="26.048" x2="12.193" y2="26.765" gradientUnits="userSpaceOnUse"><stop stop-color="#FF7044"/><stop offset="1" stop-color="#F82814"/></linearGradient><linearGradient id="S" x1="20.808" y1="6.133" x2="19.894" y2="3.949" gradientUnits="userSpaceOnUse"><stop stop-color="#FFD945"/><stop offset=".304" stop-color="#FFCD3E"/><stop offset=".856" stop-color="#FFAD2B"/><stop offset="1" stop-color="#FFA325"/></linearGradient><linearGradient id="T" x1="20.416" y1="5.247" x2="20.716" y2="5.964" gradientUnits="userSpaceOnUse"><stop stop-color="#FF7044"/><stop offset="1" stop-color="#F82814"/></linearGradient><linearGradient id="U" x1="5.36" y1="11.991" x2="7.543" y2="11.076" gradientUnits="userSpaceOnUse"><stop stop-color="#FFD945"/><stop offset=".304" stop-color="#FFCD3E"/><stop offset=".856" stop-color="#FFAD2B"/><stop offset="1" stop-color="#FFA325"/></linearGradient><linearGradient id="V" x1="6.246" y1="11.6" x2="5.529" y2="11.9" gradientUnits="userSpaceOnUse"><stop stop-color="#FF7044"/><stop offset="1" stop-color="#F82814"/></linearGradient><linearGradient id="W" x1="26.161" y1="20.514" x2="28.344" y2="19.6" gradientUnits="userSpaceOnUse"><stop stop-color="#FFD945"/><stop offset=".304" stop-color="#FFCD3E"/><stop offset=".856" stop-color="#FFAD2B"/><stop offset="1" stop-color="#FFA325"/></linearGradient><linearGradient id="X" x1="27.047" y1="20.124" x2="26.329" y2="20.424" gradientUnits="userSpaceOnUse"><stop stop-color="#FF7044"/><stop offset="1" stop-color="#F82814"/></linearGradient><linearGradient id="Y" x1="5.705" y1="20.856" x2="6.603" y2="18.666" gradientUnits="userSpaceOnUse"><stop stop-color="#FFD945"/><stop offset=".304" stop-color="#FFCD3E"/><stop offset=".856" stop-color="#FFAD2B"/><stop offset="1" stop-color="#FFA325"/></linearGradient><linearGradient id="Z" x1="6.076" y1="19.972" x2="5.781" y2="20.692" gradientUnits="userSpaceOnUse"><stop stop-color="#FF7044"/><stop offset="1" stop-color="#F82814"/></linearGradient><linearGradient id="aa" x1="26.443" y1="12.18" x2="27.342" y2="9.99" gradientUnits="userSpaceOnUse"><stop stop-color="#FFD945"/><stop offset=".304" stop-color="#FFCD3E"/><stop offset=".856" stop-color="#FFAD2B"/><stop offset="1" stop-color="#FFA325"/></linearGradient><linearGradient id="ab" x1="26.815" y1="11.296" x2="26.52" y2="12.015" gradientUnits="userSpaceOnUse"><stop stop-color="#FF7044"/><stop offset="1" stop-color="#F82814"/></linearGradient><linearGradient id="ac" x1="11.462" y1="5.378" x2="13.652" y2="6.276" gradientUnits="userSpaceOnUse"><stop stop-color="#FFD945"/><stop offset=".304" stop-color="#FFCD3E"/><stop offset=".856" stop-color="#FFAD2B"/><stop offset="1" stop-color="#FFA325"/></linearGradient><linearGradient id="ad" x1="12.326" y1="5.774" x2="11.606" y2="5.478" gradientUnits="userSpaceOnUse"><stop stop-color="#FF7044"/><stop offset="1" stop-color="#F82814"/></linearGradient><linearGradient id="ae" x1="20.137" y1="26.116" x2="22.328" y2="27.014" gradientUnits="userSpaceOnUse"><stop stop-color="#FFD945"/><stop offset=".304" stop-color="#FFCD3E"/><stop offset=".856" stop-color="#FFAD2B"/><stop offset="1" stop-color="#FFA325"/></linearGradient><linearGradient id="af" x1="21.002" y1="26.512" x2="20.282" y2="26.217" gradientUnits="userSpaceOnUse"><stop stop-color="#FF7044"/><stop offset="1" stop-color="#F82814"/></linearGradient><linearGradient id="ag" x1="17.381" y1="18.09" x2="3.312" y2="-9.114" gradientUnits="userSpaceOnUse"><stop stop-color="#fff" stop-opacity="0"/><stop offset="1" stop-color="#fff"/></linearGradient></defs></svg>